<?xml version="1.0" encoding="UTF-8"?><svg xmlns="http://www.w3.org/2000/svg" xmlns:xlink="http://www.w3.org/1999/xlink" width="144.75pt" zoomAndPan="magnify" viewBox="0 0 144.75 172.499995" height="172.499995pt" preserveAspectRatio="xMidYMid meet" version="1.2"><defs><clipPath xml:id="clip1" id="clip1"><path d="M 0.0859375 72 L 87 72 L 87 107 L 0.0859375 107 Z M 0.0859375 72 "/></clipPath><clipPath xml:id="clip2" id="clip2"><path d="M 72 14.753906 L 138 14.753906 L 138 52 L 72 52 Z M 72 14.753906 "/></clipPath><clipPath xml:id="clip3" id="clip3"><path d="M 52 86.621094 L 144.339844 86.621094 L 144.339844 146.585938 L 52 146.585938 Z M 52 86.621094 "/></clipPath><clipPath xml:id="clip4" id="clip4"><path d="M 131.976562 120.671875 L 144.417969 120.671875 L 144.417969 126.140625 L 131.976562 126.140625 Z M 131.976562 120.671875 "/></clipPath></defs><g xml:id="surface1" id="surface1"><g clip-rule="nonzero" clip-path="url(#clip1)"><path style=" stroke:none;fill-rule:nonzero;fill:rgb(54.508972%,47.059631%,85.099792%);fill-opacity:1;" d="M 86.164062 81.328125 C 85.140625 82.945312 83.480469 83.929688 81.734375 84.730469 C 81.804688 84.277344 81.796875 83.792969 81.691406 83.273438 C 81.636719 82.988281 81.496094 82.699219 81.296875 82.40625 C 82.289062 81.695312 83.316406 81.042969 84.4375 80.542969 C 84.863281 80.351562 84.539062 79.703125 84.117188 79.894531 C 82.949219 80.417969 81.878906 81.101562 80.84375 81.84375 C 80.460938 81.429688 79.972656 81.011719 79.429688 80.613281 C 80.421875 79.875 81.578125 79.378906 82.839844 79.144531 C 83.296875 79.0625 83.152344 78.355469 82.695312 78.4375 C 81.25 78.703125 79.933594 79.300781 78.8125 80.179688 C 78.160156 79.738281 77.457031 79.324219 76.769531 78.949219 C 77.96875 78.214844 79.332031 77.65625 80.558594 77.816406 C 81.023438 77.875 81.070312 77.15625 80.609375 77.097656 C 79.082031 76.898438 77.433594 77.636719 76.03125 78.558594 C 75.109375 78.085938 74.261719 77.703125 73.660156 77.457031 C 75.1875 76.816406 76.835938 76.519531 78.507812 76.359375 C 78.96875 76.3125 78.824219 75.605469 78.363281 75.648438 C 76.429688 75.835938 74.519531 76.207031 72.789062 77.058594 C 72.453125 76.84375 72.113281 76.636719 71.773438 76.4375 C 73.003906 75.683594 74.34375 75.132812 75.785156 74.792969 C 76.238281 74.683594 76.097656 73.976562 75.644531 74.082031 C 73.992188 74.472656 72.460938 75.128906 71.0625 76.035156 C 70.566406 75.765625 70.066406 75.503906 69.558594 75.261719 C 70.820312 74.796875 72.023438 74.125 72.941406 73.34375 C 73.296875 73.042969 72.824219 72.5 72.46875 72.800781 C 71.433594 73.679688 70.023438 74.394531 68.589844 74.824219 C 67.8125 74.492188 67.023438 74.1875 66.21875 73.921875 C 67.734375 73.804688 69.191406 73.433594 70.597656 72.851562 C 71.027344 72.671875 70.703125 72.027344 70.273438 72.203125 C 68.453125 72.957031 66.601562 73.269531 64.632812 73.234375 C 64.492188 73.234375 64.351562 73.230469 64.210938 73.230469 C 62.296875 72.730469 59.746094 72.496094 57.546875 72.84375 C 54.316406 73.351562 51.214844 75.285156 48.648438 77.445312 C 48.214844 77.808594 47.816406 78.21875 47.355469 78.550781 C 47.355469 78.550781 47.351562 78.554688 47.347656 78.554688 C 47.371094 78.527344 47.273438 78.574219 47.050781 78.699219 C 46.960938 78.703125 46.847656 78.710938 46.800781 78.714844 C 46.644531 78.707031 46.429688 78.695312 46.371094 78.695312 C 46.035156 78.679688 45.703125 78.648438 45.371094 78.621094 C 44.636719 78.558594 43.910156 78.492188 43.171875 78.511719 C 40.183594 78.582031 37.238281 79.300781 34.679688 80.882812 C 33.996094 81.304688 33.339844 81.777344 32.679688 82.234375 C 32.601562 82.285156 32.542969 82.328125 32.492188 82.363281 C 32.46875 82.375 32.425781 82.398438 32.359375 82.4375 C 32.136719 82.566406 31.910156 82.691406 31.675781 82.804688 C 31.589844 82.839844 31.445312 82.898438 31.398438 82.914062 C 31.269531 82.953125 31.195312 82.984375 31.15625 83.007812 C 31.113281 82.992188 31.03125 82.972656 30.875 82.953125 C 30.621094 82.925781 30.371094 82.910156 30.117188 82.878906 C 30.082031 82.871094 29.128906 82.703125 29.449219 82.769531 C 27.8125 82.449219 26.320312 82.101562 24.632812 82.25 C 23.039062 82.394531 21.65625 83.042969 20.375 83.980469 C 19.832031 84.378906 19.347656 84.847656 18.84375 85.292969 C 18.675781 85.445312 18.507812 85.59375 18.335938 85.738281 C 18.3125 85.757812 17.980469 86.007812 17.863281 86.101562 C 17.84375 86.089844 17.804688 86.085938 17.714844 86.101562 C 17.660156 86.109375 17.621094 86.117188 17.589844 86.125 C 17.347656 86.117188 17.109375 86.097656 16.871094 86.070312 C 16.144531 85.984375 16.082031 85.9375 15.367188 85.789062 C 12.019531 85.085938 7.976562 85.265625 6.015625 88.566406 C 5.867188 88.820312 5.746094 89.085938 5.65625 89.355469 C 5.421875 89.746094 5.203125 90.144531 4.960938 90.539062 C 4.496094 91.292969 3.976562 91.90625 3.101562 92.1875 C 2.570312 92.355469 1.4375 92.671875 0.820312 92.5625 C 0.8125 92.558594 0.808594 92.550781 0.796875 92.542969 C 0.789062 92.535156 0.777344 92.527344 0.765625 92.523438 C 0.601562 92.402344 0.382812 92.464844 0.265625 92.617188 C 0.253906 92.628906 0.242188 92.644531 0.234375 92.65625 C 0.0820312 92.847656 0.207031 93.121094 0.410156 93.199219 C 1.082031 93.464844 2.226562 93.144531 2.90625 92.980469 C 3.570312 92.820312 4.15625 92.574219 4.660156 92.105469 C 4.980469 91.808594 5.234375 91.464844 5.46875 91.105469 C 5.519531 91.542969 5.65625 91.96875 5.863281 92.359375 C 4.796875 93.761719 3.101562 94.5 1.3125 94.300781 C 0.847656 94.25 0.796875 94.972656 1.261719 95.023438 C 3.203125 95.234375 5.082031 94.457031 6.296875 92.984375 C 6.488281 93.203125 6.710938 93.40625 6.96875 93.582031 C 6.972656 93.582031 6.976562 93.585938 6.980469 93.585938 C 7.011719 93.691406 7.226562 93.890625 7.574219 94.152344 C 6.886719 94.367188 6.210938 94.605469 5.574219 94.9375 C 4.644531 95.417969 3.898438 96.117188 3.109375 96.792969 C 2.757812 97.09375 3.230469 97.636719 3.585938 97.335938 C 4.324219 96.703125 5.019531 96.035156 5.894531 95.582031 C 6.660156 95.1875 7.484375 94.925781 8.3125 94.675781 C 8.523438 94.824219 8.761719 94.976562 9.011719 95.140625 C 8.988281 95.148438 8.960938 95.152344 8.9375 95.160156 C 8.425781 95.320312 7.917969 95.503906 7.441406 95.746094 C 6.542969 96.203125 5.792969 96.847656 5.238281 97.6875 C 4.980469 98.074219 5.578125 98.480469 5.835938 98.09375 C 6.484375 97.113281 7.425781 96.472656 8.519531 96.0625 C 8.929688 95.90625 9.433594 95.824219 9.921875 95.722656 C 10.53125 96.101562 11.199219 96.507812 11.890625 96.917969 C 11.5 97.277344 11.082031 97.613281 10.644531 97.933594 C 9.433594 98.8125 8.074219 99.886719 6.496094 99.746094 C 6.03125 99.703125 5.980469 100.421875 6.445312 100.464844 C 8 100.601562 9.253906 99.777344 10.480469 98.925781 C 11.207031 98.425781 11.910156 97.898438 12.535156 97.300781 C 12.855469 97.488281 13.179688 97.675781 13.5 97.863281 C 13.054688 98.257812 12.613281 98.738281 12.394531 98.90625 C 11.566406 99.554688 10.671875 100.089844 9.667969 100.414062 C 9.234375 100.558594 9.371094 101.269531 9.8125 101.121094 C 11.289062 100.640625 12.53125 99.785156 13.6875 98.765625 C 13.796875 98.667969 14.019531 98.5 14.257812 98.296875 C 14.8125 98.613281 15.355469 98.921875 15.875 99.207031 C 14.628906 99.886719 13.511719 100.808594 12.417969 101.742188 C 12.0625 102.046875 12.539062 102.589844 12.894531 102.285156 C 14.0625 101.285156 15.261719 100.289062 16.632812 99.625 C 17.253906 99.964844 17.816406 100.261719 18.296875 100.503906 C 16.84375 101.164062 15.511719 102.019531 14.453125 103.28125 C 14.152344 103.636719 14.753906 104.039062 15.050781 103.6875 C 16.144531 102.390625 17.59375 101.546875 19.140625 100.917969 C 19.152344 100.921875 19.164062 100.925781 19.171875 100.933594 C 19.929688 101.277344 20.695312 101.644531 21.476562 101.976562 C 20.945312 102.191406 20.421875 102.429688 19.910156 102.6875 C 18.753906 103.273438 17.664062 103.976562 16.632812 104.761719 C 16.261719 105.042969 16.738281 105.585938 17.105469 105.304688 C 18.199219 104.476562 19.355469 103.75 20.589844 103.15625 C 21.214844 102.855469 21.933594 102.660156 22.617188 102.425781 C 22.972656 102.554688 23.332031 102.667969 23.695312 102.765625 C 23.996094 102.84375 24.300781 102.910156 24.605469 102.96875 C 22.859375 103.664062 21.234375 104.625 19.757812 105.839844 C 19.394531 106.132812 19.871094 106.675781 20.230469 106.382812 C 22.066406 104.875 24.132812 103.78125 26.382812 103.113281 C 26.660156 103.101562 26.941406 103.082031 27.226562 103.039062 C 27.800781 102.949219 28.359375 102.773438 28.898438 102.554688 C 28.980469 102.523438 29.519531 102.304688 29.875 102.136719 C 29.980469 102.148438 30.089844 102.160156 30.195312 102.179688 C 29.265625 102.058594 32.324219 102.597656 31.355469 102.417969 C 32.082031 102.550781 32.808594 102.644531 33.550781 102.664062 C 35.210938 102.710938 36.925781 102.550781 38.53125 102.105469 C 41.753906 101.210938 44.621094 99.535156 46.863281 97.054688 C 47.226562 96.652344 47.582031 96.246094 47.9375 95.84375 C 48.027344 95.742188 48.085938 95.675781 48.125 95.628906 C 48.160156 95.59375 48.203125 95.554688 48.25 95.503906 C 48.492188 95.265625 48.726562 95.019531 48.980469 94.789062 C 49.019531 94.757812 49.375 94.496094 49.476562 94.40625 C 49.589844 94.351562 49.71875 94.292969 49.789062 94.253906 C 50.054688 94.226562 50.441406 94.195312 50.21875 94.183594 C 50.996094 94.214844 51.40625 94.398438 52.40625 94.632812 C 56.300781 95.542969 59.894531 94.816406 63.4375 93.019531 C 66.5 91.46875 69.046875 89.707031 72.324219 89.1875 C 74.015625 88.921875 75.738281 88.835938 77.417969 88.5 C 79.140625 88.15625 80.796875 87.15625 81.46875 85.632812 C 83.527344 84.726562 85.550781 83.652344 86.761719 81.734375 C 87.007812 81.339844 86.410156 80.933594 86.164062 81.328125 "/></g><path style=" stroke:none;fill-rule:nonzero;fill:rgb(100%,83.139038%,78.039551%);fill-opacity:1;" d="M 51.914062 122.910156 C 51.246094 120.058594 47.644531 119.507812 45.292969 118.757812 C 42.082031 117.726562 37.441406 117.03125 34.261719 115.765625 C 33.054688 115.28125 31.671875 114.851562 30.339844 114.8125 C 28.765625 114.773438 27.242188 115.289062 25.742188 115.707031 C 22.058594 116.730469 11.757812 118.09375 9.738281 118.6875 C 8.515625 119.050781 8.078125 120.660156 7.941406 121.703125 C 7.738281 123.246094 7.128906 125.804688 8.601562 126.78125 C 9.910156 127.648438 17.1875 130.820312 20.355469 131.789062 C 22.332031 132.390625 24.167969 133.082031 26.226562 133.347656 C 28.304688 133.613281 30.292969 133.394531 32.335938 132.976562 C 36.757812 132.066406 41.605469 130.894531 46.015625 129.925781 C 47.8125 129.535156 49.667969 129.097656 51.066406 127.824219 C 52.382812 126.628906 51.976562 123.167969 51.914062 122.910156 "/><path style=" stroke:none;fill-rule:nonzero;fill:rgb(9.408569%,10.198975%,21.179199%);fill-opacity:1;" d="M 19.265625 119.804688 C 18.996094 119.5625 18.289062 119.164062 17.710938 119.460938 C 17.4375 119.601562 17.390625 119.933594 17.515625 120.191406 C 17.804688 120.78125 18.609375 120.984375 19.15625 120.644531 C 19.433594 120.472656 19.535156 120.039062 19.265625 119.804688 "/><path style=" stroke:none;fill-rule:nonzero;fill:rgb(9.408569%,10.198975%,21.179199%);fill-opacity:1;" d="M 30.574219 117.464844 C 30.246094 117.304688 29.460938 117.105469 28.980469 117.542969 C 28.753906 117.753906 28.796875 118.085938 28.988281 118.300781 C 29.421875 118.792969 30.253906 118.777344 30.691406 118.304688 C 30.914062 118.066406 30.894531 117.621094 30.574219 117.464844 "/><path style=" stroke:none;fill-rule:nonzero;fill:rgb(9.408569%,10.198975%,21.179199%);fill-opacity:1;" d="M 28.410156 122.9375 C 28.082031 122.777344 27.296875 122.578125 26.816406 123.019531 C 26.589844 123.226562 26.632812 123.558594 26.824219 123.777344 C 27.257812 124.265625 28.089844 124.25 28.527344 123.777344 C 28.75 123.539062 28.730469 123.097656 28.410156 122.9375 "/><path style=" stroke:none;fill-rule:nonzero;fill:rgb(9.408569%,10.198975%,21.179199%);fill-opacity:1;" d="M 41.140625 120.304688 C 40.816406 120.140625 40.03125 119.945312 39.550781 120.382812 C 39.320312 120.589844 39.363281 120.921875 39.558594 121.140625 C 39.988281 121.628906 40.820312 121.613281 41.257812 121.144531 C 41.480469 120.902344 41.460938 120.460938 41.140625 120.304688 "/><path style=" stroke:none;fill-rule:nonzero;fill:rgb(9.408569%,10.198975%,21.179199%);fill-opacity:1;" d="M 7.730469 122.558594 C 11.582031 124.058594 15.457031 125.507812 19.351562 126.898438 C 21.375 127.617188 23.394531 128.402344 25.453125 129.019531 C 27.023438 129.488281 28.429688 129.15625 30.007812 128.882812 C 37.355469 127.601562 44.667969 126.128906 51.9375 124.46875 C 51.9375 124.273438 51.933594 124.089844 51.925781 123.917969 C 44.949219 125.515625 37.941406 126.941406 30.894531 128.1875 C 28.796875 128.558594 27.015625 128.984375 24.949219 128.285156 C 23.042969 127.636719 21.140625 126.96875 19.246094 126.292969 C 15.414062 124.925781 11.601562 123.496094 7.8125 122.019531 C 7.785156 122.191406 7.757812 122.371094 7.730469 122.558594 "/><path style=" stroke:none;fill-rule:nonzero;fill:rgb(45.098877%,23.919678%,18.03894%);fill-opacity:1;" d="M 115.59375 49.148438 C 116.277344 54.976562 116.738281 60.828125 116.972656 66.691406 C 116.988281 67.058594 116.417969 67.054688 116.402344 66.691406 C 116.167969 60.828125 115.707031 54.976562 115.019531 49.148438 C 114.980469 48.785156 115.550781 48.789062 115.59375 49.148438 "/><path style=" stroke:none;fill-rule:nonzero;fill:rgb(45.098877%,23.919678%,18.03894%);fill-opacity:1;" d="M 107.496094 46.566406 C 107.507812 46.203125 108.078125 46.203125 108.066406 46.566406 C 107.796875 54.171875 108.042969 61.777344 108.804688 69.351562 C 108.839844 69.714844 108.269531 69.710938 108.234375 69.351562 C 107.46875 61.777344 107.222656 54.171875 107.496094 46.566406 "/><path style=" stroke:none;fill-rule:nonzero;fill:rgb(100%,73.329163%,38.819885%);fill-opacity:1;" d="M 114.957031 68.394531 C 114.984375 68.648438 115.417969 68.71875 116.84375 68.628906 C 117.40625 68.605469 117.804688 68.546875 118.363281 68.460938 C 118.613281 68.417969 118.632812 68.289062 118.628906 68.003906 C 118.457031 65.867188 118.183594 64.214844 116.574219 64.109375 C 114.496094 64.105469 114.808594 67.042969 114.957031 68.394531 "/><path style=" stroke:none;fill-rule:nonzero;fill:rgb(100%,73.329163%,38.819885%);fill-opacity:1;" d="M 106.542969 74.21875 C 106.578125 74.542969 107.125 74.628906 108.941406 74.519531 C 109.652344 74.484375 110.160156 74.414062 110.867188 74.300781 C 111.183594 74.25 111.210938 74.085938 111.210938 73.722656 C 110.992188 71.007812 110.640625 68.90625 108.59375 68.773438 C 105.953125 68.765625 106.351562 72.503906 106.542969 74.21875 "/><path style=" stroke:none;fill-rule:nonzero;fill:rgb(12.159729%,12.939453%,26.669312%);fill-opacity:1;" d="M 87.917969 92.445312 L 106.992188 30.875 C 107.316406 29.824219 108.953125 30.328125 108.628906 31.382812 C 102.269531 51.90625 95.914062 72.425781 89.554688 92.949219 C 89.230469 94.003906 87.59375 93.5 87.917969 92.445312 "/><path style=" stroke:none;fill-rule:nonzero;fill:rgb(94.119263%,35.688782%,35.688782%);fill-opacity:1;" d="M 73.03125 36.765625 C 73.140625 37.304688 73.964844 37.078125 73.855469 36.539062 C 73.511719 34.832031 73.695312 33.15625 74.363281 31.546875 C 74.574219 31.039062 73.742188 30.820312 73.535156 31.320312 C 72.8125 33.070312 72.65625 34.914062 73.03125 36.765625 Z M 76.539062 32.933594 C 75.945312 34.828125 75.710938 36.75 75.828125 38.730469 C 75.851562 39.113281 76.433594 39.359375 76.628906 38.945312 C 76.664062 38.867188 76.699219 38.792969 76.734375 38.71875 C 76.816406 38.535156 76.769531 38.363281 76.667969 38.238281 C 76.617188 36.511719 76.84375 34.824219 77.363281 33.160156 C 77.527344 32.636719 76.703125 32.410156 76.539062 32.933594 Z M 77.683594 40.933594 C 77.6875 40.949219 77.691406 40.964844 77.695312 40.980469 C 77.753906 41.203125 78 41.339844 78.222656 41.28125 C 79.03125 41.054688 79.355469 39.878906 79.617188 39.195312 C 80.113281 37.890625 80.507812 36.585938 80.5 35.179688 C 80.496094 34.628906 79.640625 34.628906 79.644531 35.179688 C 79.648438 36.167969 79.449219 37.085938 79.136719 38.015625 C 78.996094 38.433594 78.617188 40.035156 78.117188 40.394531 C 78.050781 40.390625 77.984375 40.402344 77.914062 40.4375 C 77.902344 40.441406 77.890625 40.445312 77.878906 40.453125 C 77.707031 40.53125 77.640625 40.765625 77.683594 40.933594 Z M 82.800781 37.363281 C 82.605469 39.257812 82.699219 41.121094 83.066406 42.988281 C 83.171875 43.527344 83.996094 43.296875 83.890625 42.757812 C 83.539062 40.96875 83.46875 39.179688 83.65625 37.363281 C 83.714844 36.816406 82.855469 36.820312 82.800781 37.363281 Z M 84.570312 39.039062 C 84.949219 40.949219 85.105469 42.867188 85.050781 44.808594 C 85.027344 44.863281 85.015625 44.925781 85.023438 45.003906 C 85.03125 45.058594 85.035156 45.117188 85.042969 45.171875 C 85.097656 45.710938 85.875 45.730469 85.898438 45.171875 C 85.984375 43.027344 85.816406 40.917969 85.394531 38.8125 C 85.289062 38.273438 84.460938 38.503906 84.570312 39.039062 Z M 88.585938 43.628906 C 88.773438 45.28125 89.144531 46.871094 89.726562 48.433594 C 89.917969 48.945312 90.742188 48.722656 90.550781 48.203125 C 90 46.722656 89.621094 45.199219 89.441406 43.628906 C 89.382812 43.085938 88.523438 43.082031 88.585938 43.628906 Z M 91.835938 44.265625 C 92.152344 46.195312 92.269531 48.128906 92.199219 50.082031 C 92.183594 50.46875 92.667969 50.628906 92.929688 50.386719 L 93.007812 50.3125 C 93.183594 50.148438 93.167969 49.941406 93.0625 49.789062 C 93.109375 47.859375 92.972656 45.949219 92.660156 44.039062 C 92.570312 43.496094 91.746094 43.726562 91.835938 44.265625 Z M 95.972656 44.667969 C 96.117188 46.75 96.492188 48.777344 97.109375 50.769531 C 97.273438 51.296875 98.101562 51.070312 97.9375 50.542969 C 97.339844 48.625 96.96875 46.671875 96.828125 44.667969 C 96.789062 44.121094 95.933594 44.121094 95.972656 44.667969 Z M 93.707031 44.625 C 93.90625 46.789062 94.339844 48.894531 95.035156 50.957031 C 95.210938 51.476562 96.035156 51.25 95.859375 50.726562 C 95.191406 48.742188 94.753906 46.714844 94.5625 44.625 C 94.511719 44.082031 93.65625 44.078125 93.707031 44.625 Z M 102.398438 52.292969 C 102.269531 52.828125 103.09375 53.054688 103.222656 52.519531 C 103.753906 50.308594 103.898438 48.027344 103.746094 45.761719 C 103.710938 45.214844 102.851562 45.214844 102.890625 45.761719 C 103.039062 47.953125 102.910156 50.152344 102.398438 52.292969 Z M 116.53125 48.148438 C 116.175781 50.410156 115.878906 52.652344 116.375 54.917969 C 116.464844 55.339844 117.089844 55.308594 117.199219 54.917969 C 117.21875 54.847656 117.238281 54.777344 117.261719 54.703125 C 117.3125 54.511719 117.238281 54.363281 117.117188 54.273438 C 116.777344 52.300781 117.046875 50.34375 117.359375 48.375 C 117.445312 47.835938 116.621094 47.605469 116.53125 48.148438 Z M 105.753906 46.15625 C 105.394531 48.417969 105.097656 50.664062 105.59375 52.929688 C 105.6875 53.351562 106.308594 53.320312 106.417969 52.929688 C 106.4375 52.855469 106.460938 52.785156 106.480469 52.714844 C 106.535156 52.523438 106.460938 52.371094 106.335938 52.28125 C 105.996094 50.3125 106.265625 48.355469 106.578125 46.382812 C 106.664062 45.84375 105.839844 45.617188 105.753906 46.15625 Z M 108.101562 47.835938 C 108.003906 49.089844 108.0625 50.324219 108.25 51.570312 C 108.253906 51.609375 108.257812 51.644531 108.265625 51.683594 C 108.34375 52.171875 109.109375 52.035156 109.105469 51.570312 C 109.105469 51.527344 109.105469 51.484375 109.105469 51.441406 C 109.105469 51.371094 109.089844 51.308594 109.066406 51.257812 C 108.902344 50.121094 108.871094 48.980469 108.960938 47.835938 C 109.003906 47.285156 108.144531 47.289062 108.101562 47.835938 Z M 111.480469 49.117188 C 111.253906 50.949219 111.222656 52.773438 111.382812 54.609375 C 111.429688 55.152344 112.226562 55.167969 112.238281 54.609375 C 112.242188 54.492188 112.246094 54.375 112.246094 54.261719 C 112.25 54.175781 112.230469 54.109375 112.199219 54.050781 C 112.089844 52.402344 112.132812 50.761719 112.339844 49.117188 C 112.40625 48.574219 111.546875 48.578125 111.480469 49.117188 Z M 121.101562 54.371094 C 120.972656 54.90625 121.796875 55.132812 121.925781 54.601562 C 122.355469 52.804688 122.484375 51 122.289062 49.160156 C 122.230469 48.621094 121.375 48.617188 121.433594 49.160156 C 121.617188 50.921875 121.515625 52.648438 121.101562 54.371094 Z M 125.375 48.765625 C 125.097656 50.429688 125.085938 52.066406 125.335938 53.734375 C 125.417969 54.277344 126.242188 54.046875 126.164062 53.507812 C 125.9375 52 125.949219 50.496094 126.199219 48.992188 C 126.289062 48.453125 125.464844 48.222656 125.375 48.765625 Z M 129.542969 53.378906 C 129.484375 53.464844 129.457031 53.578125 129.492188 53.710938 C 129.511719 53.796875 129.53125 53.878906 129.550781 53.964844 C 129.667969 54.445312 130.382812 54.320312 130.394531 53.851562 C 130.433594 52.214844 130.441406 50.578125 130.421875 48.945312 C 130.414062 48.394531 129.558594 48.394531 129.566406 48.945312 C 129.582031 50.421875 129.574219 51.902344 129.542969 53.378906 Z M 131.265625 49.035156 C 131.769531 50.507812 132.03125 52.007812 132.050781 53.554688 C 131.972656 53.671875 131.945312 53.824219 132.023438 53.988281 C 132.03125 54.035156 132.039062 54.085938 132.050781 54.136719 C 132.050781 54.6875 132.894531 54.683594 132.90625 54.136719 C 132.953125 52.308594 132.683594 50.539062 132.089844 48.808594 C 131.914062 48.289062 131.085938 48.515625 131.265625 49.035156 Z M 134.253906 49.132812 C 134.179688 50.933594 134.21875 52.730469 134.371094 54.523438 C 134.417969 55.082031 135.164062 55.066406 135.226562 54.523438 C 135.246094 54.375 135.261719 54.222656 135.28125 54.070312 C 135.296875 53.929688 135.25 53.824219 135.171875 53.757812 C 135.070312 52.21875 135.046875 50.675781 135.109375 49.132812 C 135.132812 48.582031 134.273438 48.585938 134.253906 49.132812 Z M 135.945312 49.226562 L 135.945312 54.800781 C 135.945312 55.351562 136.804688 55.351562 136.804688 54.800781 L 136.804688 49.226562 C 136.804688 48.675781 135.945312 48.679688 135.945312 49.226562 "/><g clip-rule="nonzero" clip-path="url(#clip2)"><path style=" stroke:none;fill-rule:nonzero;fill:rgb(94.119263%,35.688782%,35.688782%);fill-opacity:1;" d="M 73.761719 30.085938 C 73.984375 29.988281 74.75 29.628906 75.023438 29.519531 L 112.746094 14.917969 C 112.917969 14.800781 113.109375 14.757812 113.292969 14.769531 C 113.605469 14.757812 113.871094 14.898438 114.046875 15.121094 C 114.132812 15.207031 114.203125 15.300781 114.25 15.421875 C 114.25 15.421875 137.613281 47.53125 137.097656 49.511719 C 136.957031 50.101562 136.234375 50.503906 135.667969 50.222656 C 128.515625 49.132812 121.230469 49.425781 114.183594 51.054688 C 113.863281 51.128906 112.746094 50.640625 112.632812 50.28125 C 105.621094 47.199219 98.0625 45.554688 90.402344 45.40625 C 90.3125 45.40625 90.234375 45.390625 90.160156 45.371094 C 89.878906 45.429688 89.574219 45.363281 89.3125 45.09375 C 85.683594 41.34375 81.75 37.921875 77.535156 34.863281 C 76.628906 34.332031 73.847656 32.320312 73.257812 31.945312 C 72.382812 31.382812 72.773438 30.527344 73.761719 30.085938 "/></g><path style=" stroke:none;fill-rule:nonzero;fill:rgb(100%,73.329163%,38.819885%);fill-opacity:1;" d="M 110.082031 76.421875 C 110.011719 76.488281 109.929688 76.539062 109.84375 76.578125 C 109.78125 76.605469 109.71875 76.628906 109.652344 76.644531 C 109.433594 76.691406 109.222656 76.632812 109.054688 76.515625 C 109.035156 76.507812 109.019531 76.5 109.003906 76.488281 C 108.554688 76.191406 108.574219 75.609375 108.8125 75.191406 C 108.855469 75.117188 108.914062 75.0625 108.980469 75.015625 L 108.957031 74.898438 C 108.953125 74.882812 108.957031 74.867188 108.957031 74.851562 C 108.917969 74.605469 108.875 74.363281 108.84375 74.117188 C 108.800781 73.753906 109.359375 73.636719 109.40625 74 C 109.441406 74.296875 109.488281 74.59375 109.539062 74.886719 C 109.695312 74.914062 109.839844 74.984375 109.941406 75.105469 C 109.953125 75.125 109.96875 75.144531 109.984375 75.160156 C 110.082031 75.234375 110.164062 75.332031 110.222656 75.453125 C 110.386719 75.765625 110.367188 76.152344 110.082031 76.421875 "/><path style=" stroke:none;fill-rule:nonzero;fill:rgb(100%,73.329163%,38.819885%);fill-opacity:1;" d="M 115.6875 70.238281 C 115.742188 70.292969 115.804688 70.332031 115.875 70.359375 C 116.277344 70.476562 116.515625 70.300781 116.53125 70.292969 C 116.882812 70.058594 116.9375 69.621094 116.679688 69.277344 C 116.640625 69.226562 116.597656 69.175781 116.546875 69.136719 C 116.546875 69.136719 116.628906 68.628906 116.652344 68.4375 C 116.6875 68.152344 116.25 68.0625 116.214844 68.347656 C 116.1875 68.578125 116.152344 68.808594 116.109375 69.039062 C 115.6875 69.0625 115.566406 69.359375 115.53125 69.460938 C 115.476562 69.617188 115.460938 70.027344 115.6875 70.238281 "/><path style=" stroke:none;fill-rule:nonzero;fill:rgb(100%,90.589905%,81.959534%);fill-opacity:1;" d="M 121.066406 37.015625 C 123.125 36.363281 125.351562 34.847656 127.316406 33.808594 L 125.089844 30.609375 C 123.785156 31.332031 122.171875 32.324219 120.75 32.902344 C 119.097656 33.578125 117.480469 33.792969 115.875 32.902344 C 114.039062 31.886719 112.4375 30.667969 110.464844 29.898438 C 109.464844 29.507812 108.453125 29.179688 107.402344 28.957031 C 106.449219 28.753906 105.386719 28.726562 104.523438 28.238281 C 103.570312 27.695312 102.824219 26.65625 102.082031 25.867188 C 101.417969 25.160156 100.746094 24.460938 100.046875 23.785156 C 99.027344 22.796875 98.011719 21.90625 96.878906 21.058594 C 95.378906 21.636719 93.851562 22.21875 92.328125 22.816406 C 94.789062 24.195312 96.839844 26.148438 98.804688 28.203125 C 100.296875 29.765625 101.648438 31.503906 103.765625 32.234375 C 105.804688 32.941406 107.925781 33.039062 109.910156 33.980469 C 111.933594 34.9375 113.632812 36.554688 115.796875 37.199219 C 117.511719 37.707031 119.378906 37.550781 121.066406 37.015625 Z M 80.664062 27.335938 C 82.980469 28.363281 85.382812 29.738281 87.289062 31.414062 C 89.273438 33.160156 90.652344 35.296875 92.417969 37.226562 C 95.46875 40.5625 100.261719 40.527344 104.203125 42.160156 C 108.15625 43.800781 111.644531 46.625 115.75 47.867188 C 120.113281 49.1875 123.480469 46.800781 127.425781 45.40625 C 129.570312 44.648438 131.898438 44.140625 134.132812 43.949219 L 131.683594 40.210938 C 129.8125 40.507812 127.691406 41.0625 125.917969 41.722656 C 124.066406 42.410156 122.335938 43.4375 120.445312 44.011719 C 118.578125 44.582031 116.875 44.199219 115.148438 43.367188 C 111.292969 41.503906 107.789062 39.121094 103.695312 37.738281 C 101.734375 37.078125 99.625 36.839844 97.695312 36.085938 C 95.5625 35.25 94.492188 33.414062 93.113281 31.71875 C 91.054688 29.1875 88.527344 27.050781 85.714844 25.398438 C 83.980469 26.105469 82.113281 26.710938 80.664062 27.335938 Z M 117.640625 25.332031 C 118.359375 25.042969 119.554688 24.433594 120.449219 24.046875 L 118.125 20.792969 C 116.488281 21.554688 114.4375 22.570312 112.683594 22.046875 C 110.582031 21.417969 109.109375 19.476562 107.910156 17.757812 C 107.734375 17.507812 107.558594 17.257812 107.382812 17.007812 C 106.246094 17.433594 104.957031 17.917969 103.570312 18.441406 C 104.25 19.417969 104.890625 20.425781 105.605469 21.339844 C 107.023438 23.152344 108.722656 24.785156 110.898438 25.632812 C 113.15625 26.507812 115.4375 26.214844 117.640625 25.332031 "/><g clip-rule="nonzero" clip-path="url(#clip3)"><path style=" stroke:none;fill-rule:nonzero;fill:rgb(100%,73.329163%,38.819885%);fill-opacity:1;" d="M 136.097656 113.96875 C 127.839844 109.917969 119.496094 106.042969 111.078125 102.328125 C 106.410156 100.269531 75.992188 79.929688 69.203125 88.972656 C 67.914062 90.6875 66.921875 92.570312 65.46875 94.171875 C 63.984375 95.816406 62.316406 97.269531 60.472656 98.496094 C 56.429688 101.183594 52.113281 104.179688 52.003906 109.542969 C 51.96875 111.4375 58.882812 115.058594 60.722656 115.761719 C 64.214844 117.097656 67.871094 118.261719 70.902344 120.527344 C 72.308594 121.578125 73.433594 122.957031 74.773438 124.089844 C 76.320312 125.390625 77.980469 126.347656 79.902344 127 C 83.15625 128.113281 86.667969 128.128906 89.945312 129.164062 C 93.367188 130.25 95.507812 133.105469 98.285156 135.21875 C 102.886719 138.710938 107.867188 138.222656 114.332031 143.339844 C 115.851562 144.546875 117.289062 145.949219 119.226562 146.4375 C 123.6875 147.554688 127.230469 142.175781 129.613281 139.207031 C 132.039062 136.191406 134.265625 133 137.0625 130.308594 C 139.628906 127.835938 144.039062 126.054688 144.300781 122 C 144.601562 117.339844 139.492188 115.628906 136.097656 113.96875 "/></g><path style=" stroke:none;fill-rule:nonzero;fill:rgb(100%,58.039856%,49.01886%);fill-opacity:1;" d="M 67.976562 86.152344 C 67.890625 85.5625 67.820312 84.96875 67.761719 84.375 C 67.515625 81.949219 67.433594 79.507812 67.3125 77.074219 C 67.195312 74.738281 67.042969 72.398438 66.671875 70.085938 C 66.371094 68.179688 66.042969 65.976562 64.546875 64.605469 C 64.363281 64.4375 64.113281 64.609375 64.117188 64.792969 C 62.632812 65.34375 61.839844 66.867188 61.820312 68.414062 C 61.804688 69.480469 62.125 70.480469 62.472656 71.476562 C 62.820312 72.472656 63.0625 73.484375 63.277344 74.515625 C 64.230469 79.082031 65.179688 83.648438 66.128906 88.214844 C 66.152344 88.328125 66.257812 88.386719 66.363281 88.398438 C 66.941406 88.460938 68.085938 88.425781 68.1875 87.660156 C 68.25 87.191406 68.042969 86.617188 67.976562 86.152344 "/><path style=" stroke:none;fill-rule:nonzero;fill:rgb(12.159729%,12.939453%,26.669312%);fill-opacity:1;" d="M 54.9375 58.3125 C 54.125 56.820312 54.96875 54.765625 55.988281 53.574219 C 56.550781 52.921875 57.628906 51.871094 56.738281 51.042969 C 56.789062 50.890625 56.664062 50.664062 56.445312 50.695312 C 55.375 50.847656 54.410156 51.425781 53.78125 52.304688 C 53.09375 53.265625 53.175781 54.628906 52.394531 55.507812 C 51.980469 55.972656 51.347656 56.136719 50.863281 56.515625 C 50.414062 56.867188 50.113281 57.359375 50.039062 57.929688 C 49.957031 58.539062 50.269531 59.175781 49.925781 59.738281 C 49.660156 60.175781 49.246094 60.507812 49.210938 61.046875 C 49.160156 61.898438 49.882812 62.617188 50.726562 62.558594 C 51.335938 62.515625 51.878906 62.113281 52.5 62.164062 C 53.1875 62.222656 53.78125 62.652344 54.488281 62.664062 C 55.410156 62.683594 56.652344 62.113281 56.722656 61.070312 C 56.800781 59.90625 55.433594 59.222656 54.9375 58.3125 "/><path style=" stroke:none;fill-rule:nonzero;fill:rgb(12.159729%,12.939453%,26.669312%);fill-opacity:1;" d="M 65.332031 61.078125 C 65.1875 60.382812 65.59375 59.816406 65.664062 59.148438 C 65.765625 58.164062 64.976562 57.765625 64.40625 57.117188 C 63.855469 56.488281 64.042969 55.691406 64.015625 54.929688 C 63.996094 54.371094 63.859375 53.824219 63.621094 53.320312 C 63.132812 52.289062 62.207031 51.441406 61.046875 51.3125 C 60.730469 51.277344 60.726562 51.765625 61.039062 51.800781 C 61.128906 51.8125 61.21875 51.828125 61.304688 51.851562 C 61.289062 51.882812 61.277344 51.921875 61.277344 51.964844 C 61.304688 53.222656 61.964844 54.441406 61.816406 55.699219 C 61.664062 57.019531 60.53125 57.925781 59.804688 58.949219 C 59.226562 59.765625 58.796875 60.835938 59.183594 61.824219 C 59.515625 62.664062 60.289062 63.117188 61.179688 62.984375 C 61.761719 62.894531 62.460938 62.523438 63.046875 62.75 C 63.539062 62.9375 63.691406 63.496094 64.242188 63.605469 C 64.980469 63.746094 65.667969 63.191406 65.671875 62.445312 C 65.675781 61.964844 65.429688 61.539062 65.332031 61.078125 "/><path style=" stroke:none;fill-rule:nonzero;fill:rgb(100%,58.039856%,49.01886%);fill-opacity:1;" d="M 36.722656 94.519531 C 36.734375 95.160156 36.828125 95.820312 37.058594 96.398438 C 36.722656 96.5625 36.507812 96.664062 36.503906 96.664062 C 34.835938 97.429688 33.417969 99.101562 32.757812 99.855469 C 32.367188 100.300781 30.839844 102.398438 30.285156 100.925781 C 30.074219 100.378906 30.472656 99.457031 30.75 98.996094 C 31.277344 98.136719 33.871094 94.761719 34.171875 94.558594 C 35.03125 93.96875 35.734375 94.835938 36.332031 94.777344 C 36.347656 94.769531 36.492188 94.675781 36.722656 94.519531 "/><path style=" stroke:none;fill-rule:nonzero;fill:rgb(100%,58.039856%,49.01886%);fill-opacity:1;" d="M 38.003906 87.5625 C 38.171875 88.179688 38.425781 88.796875 38.792969 89.300781 C 38.507812 89.539062 38.320312 89.691406 38.320312 89.695312 C 36.890625 90.84375 35.925781 92.8125 35.472656 93.703125 C 35.203125 94.234375 34.242188 96.636719 33.335938 95.347656 C 33 94.867188 33.160156 93.875 33.316406 93.363281 C 33.613281 92.398438 35.300781 88.496094 35.539062 88.222656 C 36.230469 87.441406 37.125 88.109375 37.691406 87.90625 C 37.703125 87.898438 37.820312 87.769531 38.003906 87.5625 "/><path style=" stroke:none;fill-rule:nonzero;fill:rgb(100%,58.039856%,49.01886%);fill-opacity:1;" d="M 57.683594 64.855469 C 57.117188 64.597656 56.15625 63.894531 55.753906 63.390625 C 55.699219 63.324219 55.652344 63.253906 55.609375 63.179688 L 55.898438 58.6875 L 60.460938 59.628906 L 60.089844 65.390625 C 59.292969 65.453125 58.429688 65.191406 57.683594 64.855469 "/><path style=" stroke:none;fill-rule:nonzero;fill:rgb(86.669922%,47.44873%,40.779114%);fill-opacity:1;" d="M 55.664062 62.417969 C 56.730469 62.671875 57.84375 62.785156 58.910156 62.472656 C 59.34375 62.34375 59.917969 62.085938 60.332031 61.714844 L 60.429688 60.207031 C 59.929688 60.21875 59.152344 60.683594 58.917969 60.769531 C 58.3125 60.980469 57.683594 61.144531 57.046875 61.25 C 56.589844 61.324219 56.140625 61.367188 55.722656 61.535156 L 55.664062 62.417969 "/><path style=" stroke:none;fill-rule:nonzero;fill:rgb(100%,58.039856%,49.01886%);fill-opacity:1;" d="M 62.75 57.429688 C 62.980469 56.539062 62.847656 55.597656 62.714844 54.699219 C 62.601562 53.910156 62.539062 52.785156 62.074219 52.113281 C 61.980469 51.980469 61.933594 51.828125 61.917969 51.667969 C 60.550781 50.710938 58.351562 50.285156 56.851562 50.664062 C 54.414062 51.285156 54.363281 53.359375 54.242188 55.789062 C 54.101562 58.542969 54.5625 61.949219 56.667969 62.023438 C 59.035156 62.109375 60.921875 60.945312 62.316406 59.03125 C 62.5 58.777344 62.671875 58.507812 62.824219 58.226562 C 62.710938 58.003906 62.671875 57.734375 62.75 57.429688 "/><path style=" stroke:none;fill-rule:nonzero;fill:rgb(12.159729%,12.939453%,26.669312%);fill-opacity:1;" d="M 58.832031 56.589844 C 58.789062 56.871094 58.898438 57.125 59.074219 57.152344 C 59.253906 57.179688 59.433594 56.972656 59.476562 56.6875 C 59.523438 56.402344 59.414062 56.152344 59.234375 56.125 C 59.054688 56.097656 58.875 56.304688 58.832031 56.589844 "/><path style=" stroke:none;fill-rule:nonzero;fill:rgb(12.159729%,12.939453%,26.669312%);fill-opacity:1;" d="M 55.453125 56.242188 C 55.414062 56.527344 55.527344 56.777344 55.707031 56.804688 C 55.886719 56.828125 56.0625 56.617188 56.101562 56.332031 C 56.144531 56.046875 56.03125 55.796875 55.851562 55.773438 C 55.671875 55.75 55.496094 55.957031 55.453125 56.242188 "/><path style=" stroke:none;fill-rule:nonzero;fill:rgb(86.669922%,47.44873%,40.779114%);fill-opacity:1;" d="M 56.835938 56.941406 C 56.886719 56.796875 57.125 56.859375 57.070312 57.007812 C 56.945312 57.359375 56.839844 57.722656 56.8125 58.09375 C 56.792969 58.378906 56.824219 58.558594 57.128906 58.675781 C 57.316406 58.746094 57.546875 58.730469 57.742188 58.722656 C 57.898438 58.71875 57.898438 58.960938 57.742188 58.96875 C 57.339844 58.980469 56.765625 58.972656 56.605469 58.515625 C 56.4375 58.050781 56.675781 57.375 56.835938 56.941406 "/><path style=" stroke:none;fill-rule:nonzero;fill:rgb(100%,58.039856%,49.01886%);fill-opacity:1;" d="M 65.246094 65.453125 C 64.757812 64.238281 63.1875 64.046875 62.074219 63.792969 C 60.492188 63.429688 58.894531 63.15625 57.285156 62.949219 C 57.226562 62.886719 57.140625 62.847656 57.023438 62.859375 L 53.90625 63.140625 C 53.078125 63.214844 52.226562 63.273438 51.4375 63.535156 C 49.882812 64.054688 49.175781 65.285156 48.984375 66.851562 C 48.742188 68.847656 48.734375 70.894531 48.621094 72.90625 C 48.519531 74.734375 48.417969 76.5625 48.3125 78.390625 C 48.304688 78.421875 48.296875 78.453125 48.292969 78.492188 C 48.28125 78.804688 48.269531 79.121094 48.253906 79.4375 C 48.238281 79.871094 48.847656 79.910156 48.96875 79.550781 C 49.894531 80.199219 50.53125 81.183594 51.546875 81.730469 C 52.363281 82.167969 53.292969 82.386719 54.21875 82.390625 C 56.324219 82.394531 58.117188 81.3125 59.179688 79.519531 C 59.886719 78.332031 60.425781 77.039062 61.074219 75.816406 C 61.707031 74.628906 62.367188 73.457031 62.992188 72.265625 C 63.613281 71.082031 64.203125 69.882812 64.710938 68.644531 C 65.101562 67.691406 65.664062 66.488281 65.246094 65.453125 "/><path style=" stroke:none;fill-rule:nonzero;fill:rgb(12.159729%,12.939453%,26.669312%);fill-opacity:1;" d="M 63.695312 56.699219 C 63.6875 56.648438 63.652344 56.621094 63.613281 56.613281 C 63.785156 54.449219 63.40625 51.988281 61.179688 51.019531 C 59.292969 50.199219 56.1875 49.972656 54.820312 51.832031 C 54.785156 51.878906 54.796875 51.925781 54.824219 51.960938 C 54.757812 52.054688 54.699219 52.15625 54.640625 52.265625 C 54.28125 52.707031 53.996094 53.207031 53.863281 53.734375 C 53.683594 54.472656 54.121094 55.160156 54.929688 55.050781 C 55.457031 54.980469 55.832031 54.59375 56.25 54.304688 C 56.640625 54.035156 57.050781 53.917969 57.519531 53.984375 C 57.796875 54.019531 58.074219 54.097656 58.355469 54.105469 C 59.296875 54.132812 59.757812 53.382812 60.097656 52.621094 C 60.34375 52.976562 60.363281 53.371094 60.269531 53.839844 C 60.214844 54.109375 60.113281 54.367188 60.167969 54.648438 C 60.300781 55.332031 61.082031 55.316406 61.410156 55.859375 C 61.941406 56.722656 61.492188 57.734375 61.152344 58.578125 C 60.855469 59.3125 60.535156 60.097656 60.441406 60.890625 C 60.253906 62.46875 62.203125 60.964844 62.660156 60.527344 C 63.722656 59.5 63.921875 58.105469 63.695312 56.699219 "/><path style=" stroke:none;fill-rule:nonzero;fill:rgb(100%,58.039856%,49.01886%);fill-opacity:1;" d="M 58.175781 80.691406 C 58.089844 79.988281 57.402344 79.515625 56.910156 79.078125 C 56.183594 78.433594 55.410156 77.832031 54.605469 77.28125 C 53.128906 76.273438 51.539062 75.441406 49.878906 74.785156 C 49.957031 74.546875 49.105469 75.941406 48.800781 76.050781 C 45.59375 77.195312 43.320312 77.832031 41.226562 80.628906 C 39.570312 82.839844 38.644531 86.78125 41.964844 87.972656 C 43.59375 88.554688 45.476562 88.214844 47.15625 88.101562 C 49 87.976562 50.917969 87.988281 52.738281 87.65625 C 54.242188 87.382812 55.347656 86.613281 56.207031 85.363281 C 56.664062 84.695312 57.058594 83.984375 57.394531 83.246094 C 57.722656 82.53125 58.273438 81.5 58.175781 80.691406 "/><path style=" stroke:none;fill-rule:nonzero;fill:rgb(86.669922%,47.44873%,40.779114%);fill-opacity:1;" d="M 54.929688 82.050781 C 55.558594 82.261719 55.890625 81.621094 55.96875 81.105469 C 56.09375 80.257812 55.796875 79.414062 55.363281 78.703125 C 54.421875 77.164062 52.847656 75.835938 51.195312 75.117188 C 50.351562 74.75 49.433594 74.542969 48.511719 74.585938 C 48.480469 75.167969 48.449219 75.753906 48.414062 76.339844 C 49.609375 76.648438 50.769531 77.375 51.597656 78.089844 C 52.324219 78.714844 52.957031 79.441406 53.472656 80.246094 C 53.855469 80.832031 54.195312 81.804688 54.929688 82.050781 "/><path style=" stroke:none;fill-rule:nonzero;fill:rgb(100%,58.039856%,49.01886%);fill-opacity:1;" d="M 54.960938 77.417969 C 54.015625 74.988281 50.296875 75.636719 48.460938 76.207031 C 45.671875 77.070312 43.480469 78.746094 41.253906 80.625 C 41.191406 80.679688 41.167969 80.738281 41.171875 80.796875 C 40.988281 80.988281 40.851562 81.226562 40.695312 81.453125 C 40.34375 81.96875 39.996094 82.492188 39.652344 83.011719 C 38.964844 84.058594 38.292969 85.117188 37.632812 86.183594 C 37.304688 86.714844 36.980469 87.25 36.660156 87.789062 C 36.402344 88.214844 36.0625 88.660156 35.910156 89.140625 C 35.644531 89.980469 36.738281 90.527344 37.070312 90.375 C 37.757812 90.050781 43.253906 88.289062 44.542969 87.5625 C 46.902344 86.226562 49.277344 84.824219 51.425781 83.164062 C 52.414062 82.398438 53.335938 81.539062 54.066406 80.519531 C 54.6875 79.65625 55.386719 78.511719 54.960938 77.417969 "/><path style=" stroke:none;fill-rule:nonzero;fill:rgb(100%,58.039856%,49.01886%);fill-opacity:1;" d="M 58.078125 80.386719 C 57.898438 80.128906 57.46875 80.367188 57.648438 80.628906 C 57.75 80.773438 57.855469 80.925781 57.957031 81.082031 C 56.359375 80.363281 54.589844 80.914062 53.039062 81.535156 C 51.3125 82.230469 49.683594 83.144531 48.152344 84.195312 C 44.839844 86.46875 42 89.320312 39.136719 92.109375 C 37.429688 93.773438 35.699219 95.414062 33.84375 96.914062 C 33.652344 97.066406 33.847656 97.402344 34.074219 97.324219 C 38.875 95.714844 43.675781 94.109375 48.472656 92.496094 C 50.535156 91.800781 52.597656 91.085938 54.546875 90.117188 C 56.234375 89.28125 58.238281 88.222656 59.285156 86.585938 C 60.632812 84.484375 59.3125 82.179688 58.078125 80.386719 "/><path style=" stroke:none;fill-rule:nonzero;fill:rgb(12.159729%,12.939453%,26.669312%);fill-opacity:1;" d="M 60.570312 55.367188 C 60.566406 55.359375 60.5625 55.347656 60.550781 55.339844 C 60.179688 55.050781 59.726562 54.898438 59.257812 54.917969 C 59.007812 54.929688 58.285156 55.019531 58.355469 55.410156 C 58.382812 55.558594 58.53125 55.585938 58.65625 55.609375 C 59.011719 55.675781 59.367188 55.738281 59.722656 55.792969 C 60.050781 55.84375 60.5625 55.835938 60.578125 55.398438 C 60.578125 55.386719 60.574219 55.375 60.570312 55.367188 "/><path style=" stroke:none;fill-rule:nonzero;fill:rgb(12.159729%,12.939453%,26.669312%);fill-opacity:1;" d="M 54.804688 54.992188 C 54.746094 55.429688 55.25 55.519531 55.582031 55.527344 C 55.941406 55.535156 56.300781 55.535156 56.660156 55.527344 C 56.789062 55.523438 56.9375 55.523438 56.992188 55.382812 C 57.132812 55.007812 56.429688 54.796875 56.191406 54.746094 C 55.726562 54.644531 55.253906 54.71875 54.839844 54.941406 C 54.828125 54.945312 54.824219 54.953125 54.816406 54.960938 C 54.8125 54.96875 54.808594 54.980469 54.804688 54.992188 "/><path style=" stroke:none;fill-rule:nonzero;fill:rgb(100%,58.039856%,49.01886%);fill-opacity:1;" d="M 65.859375 85.785156 C 65.769531 86.503906 65.8125 87.277344 66.167969 87.921875 C 66.230469 88.988281 66.914062 89.925781 67.972656 90.242188 C 68.125 90.285156 68.660156 90.476562 68.664062 90.164062 C 68.664062 90.039062 68.492188 89.902344 68.414062 89.835938 C 68.144531 89.601562 67.730469 89.453125 67.648438 89.089844 C 68.023438 89.226562 68.410156 89.386719 68.800781 89.398438 C 69.074219 89.40625 72.398438 89.589844 72.554688 89.367188 C 72.9375 88.804688 70.5 87.457031 70.179688 87.40625 C 69.644531 87.324219 68.175781 87.265625 68.054688 87.242188 C 67.664062 87.167969 67.273438 87.09375 66.882812 87.019531 C 66.847656 87.015625 66.816406 87.015625 66.789062 87.027344 C 66.726562 87 66.664062 86.972656 66.605469 86.949219 C 66.5625 86.929688 66.519531 86.910156 66.472656 86.894531 C 66.386719 86.855469 66.421875 86.847656 66.425781 86.941406 C 66.421875 86.839844 66.359375 86.75 66.246094 86.746094 C 66.234375 86.746094 66.222656 86.746094 66.210938 86.75 C 66.179688 86.433594 66.195312 86.109375 66.234375 85.800781 C 66.265625 85.558594 65.886719 85.546875 65.859375 85.785156 "/><path style=" stroke:none;fill-rule:nonzero;fill:rgb(100%,81.568909%,76.078796%);fill-opacity:1;" d="M 58.226562 59.285156 C 58.105469 59.238281 57.886719 59.289062 57.753906 59.289062 C 57.542969 59.289062 57.332031 59.289062 57.121094 59.285156 C 56.816406 59.28125 56.515625 59.195312 56.222656 59.191406 C 56.167969 59.191406 55.949219 59.261719 56.09375 59.527344 C 56.527344 60.332031 57.628906 60.519531 58.234375 59.792969 C 58.402344 59.585938 58.5 59.382812 58.226562 59.285156 "/><path style=" stroke:none;fill-rule:nonzero;fill:rgb(86.669922%,47.44873%,40.779114%);fill-opacity:1;" d="M 52.75 81.695312 C 50.984375 83.664062 48.824219 85.210938 46.394531 86.253906 C 46.25 86.316406 46.371094 86.527344 46.515625 86.464844 C 48.964844 85.414062 51.144531 83.851562 52.921875 81.871094 C 53.027344 81.753906 52.855469 81.578125 52.75 81.695312 "/><path style=" stroke:none;fill-rule:nonzero;fill:rgb(100%,58.039856%,49.01886%);fill-opacity:1;" d="M 51.847656 63.550781 C 51.933594 63.511719 52.015625 63.476562 52.101562 63.4375 C 52.246094 63.375 51.308594 63.574219 51.160156 63.617188 C 47.585938 64.59375 45.507812 66.234375 42.957031 68.722656 C 41.804688 69.84375 40.734375 71.160156 40.101562 72.644531 C 39.582031 73.878906 39.273438 75.761719 40.429688 76.753906 C 41.023438 77.257812 41.835938 77.4375 42.570312 77.625 C 43.582031 77.886719 44.609375 78.082031 45.648438 78.230469 C 45.652344 78.25 45.65625 78.273438 45.664062 78.304688 C 45.675781 78.351562 45.730469 78.402344 45.78125 78.394531 C 46.640625 78.292969 47.621094 77.992188 48.257812 77.371094 C 48.730469 76.910156 48.472656 76.632812 47.949219 76.445312 C 46.863281 76.046875 45.632812 75.78125 44.609375 75.238281 C 43.085938 74.429688 44.445312 72.90625 45.308594 72.1875 C 47.015625 70.773438 48.96875 69.707031 50.699219 68.335938 C 51.394531 67.785156 52.136719 67.089844 52.386719 66.207031 C 52.648438 65.285156 52.242188 64.371094 51.847656 63.550781 "/><path style=" stroke:none;fill-rule:nonzero;fill:rgb(87.838745%,30.589294%,30.589294%);fill-opacity:1;" d="M 62.101562 68.847656 C 61.886719 68.308594 61.699219 67.703125 61.410156 67.203125 C 61.285156 66.988281 61.117188 66.792969 60.886719 66.722656 C 61.050781 65.707031 61.214844 64.695312 61.382812 63.683594 C 61.40625 63.527344 61.171875 63.457031 61.144531 63.613281 C 60.976562 64.640625 60.8125 65.667969 60.644531 66.691406 C 60.210938 66.71875 59.855469 67.144531 59.574219 67.425781 C 59.109375 67.886719 58.683594 68.386719 58.242188 68.867188 C 57.296875 69.894531 56.324219 70.902344 55.332031 71.886719 C 54.738281 70.839844 54.148438 69.792969 53.554688 68.746094 C 53.261719 68.226562 52.984375 67.691406 52.648438 67.199219 C 52.515625 67 52.359375 66.714844 52.125 66.648438 C 52.300781 65.480469 52.496094 64.3125 52.707031 63.148438 C 52.734375 62.996094 52.5 62.925781 52.46875 63.082031 C 52.253906 64.269531 52.058594 65.464844 51.875 66.65625 C 51.585938 66.753906 51.324219 67.09375 51.144531 67.304688 C 50.800781 67.710938 50.46875 68.132812 50.144531 68.558594 C 49.648438 69.207031 49.183594 69.875 48.734375 70.554688 C 48.710938 71.136719 48.691406 71.71875 48.660156 72.300781 C 53.304688 72.386719 57.941406 72.699219 62.566406 73.082031 C 62.714844 72.8125 62.859375 72.539062 63.003906 72.265625 C 63.074219 72.128906 63.148438 71.992188 63.21875 71.851562 C 62.867188 70.84375 62.496094 69.84375 62.101562 68.847656 "/><path style=" stroke:none;fill-rule:nonzero;fill:rgb(86.669922%,47.44873%,40.779114%);fill-opacity:1;" d="M 52.058594 79.910156 C 51.1875 78.078125 49.691406 77.523438 49.515625 77.417969 C 50.132812 77.40625 50.773438 77.34375 50.464844 76.886719 C 50.234375 76.542969 49.507812 76.621094 49.121094 76.546875 C 48.671875 76.457031 48.199219 76.34375 47.746094 76.335938 C 47.191406 76.683594 46.554688 76.875 45.996094 77.226562 C 45.636719 77.449219 45.300781 77.695312 44.941406 77.898438 C 44.980469 77.917969 45.03125 77.921875 45.070312 77.890625 C 45.726562 78.503906 46.609375 79.261719 47.503906 79.515625 C 47.636719 79.601562 48.582031 80.160156 48.859375 80.4375 C 49.066406 80.636719 49.472656 81.300781 49.84375 81.070312 C 49.929688 81.015625 49.96875 80.9375 49.972656 80.84375 C 50.097656 80.964844 50.226562 81.082031 50.363281 81.1875 C 50.535156 81.316406 50.734375 81.410156 50.925781 81.261719 C 51.105469 81.125 51.144531 80.902344 51.113281 80.660156 C 51.25 80.777344 51.40625 80.847656 51.574219 80.796875 C 51.886719 80.695312 51.835938 80.351562 51.777344 80.089844 C 51.902344 80.140625 52.148438 80.105469 52.058594 79.910156 "/><path style=" stroke:none;fill-rule:nonzero;fill:rgb(65.879822%,34.899902%,28.239441%);fill-opacity:1;" d="M 71.691406 100.867188 C 71.71875 100.789062 71.714844 100.699219 71.644531 100.617188 C 70.988281 99.875 69.820312 100.449219 69.0625 100.691406 C 67.644531 101.136719 66.230469 101.585938 64.816406 102.03125 C 63.554688 102.429688 62.222656 102.75 61.023438 103.300781 C 60.074219 103.734375 59.25 104.488281 59.089844 105.558594 C 59.078125 105.652344 59.109375 105.730469 59.167969 105.785156 C 59.167969 105.808594 59.175781 105.832031 59.1875 105.859375 C 60.296875 108.230469 63.34375 106.496094 64.863281 105.65625 C 67.246094 104.34375 69.507812 102.816406 71.632812 101.121094 C 71.730469 101.042969 71.734375 100.945312 71.691406 100.867188 "/><path style=" stroke:none;fill-rule:nonzero;fill:rgb(56.079102%,26.269531%,21.179199%);fill-opacity:1;" d="M 63.71875 102.378906 C 63.003906 104.054688 62.078125 105.628906 60.957031 107.070312 C 61.058594 107.074219 61.160156 107.074219 61.265625 107.066406 C 62.386719 105.597656 63.308594 103.996094 64.023438 102.289062 C 63.921875 102.320312 63.820312 102.347656 63.71875 102.378906 "/><path style=" stroke:none;fill-rule:nonzero;fill:rgb(56.079102%,26.269531%,21.179199%);fill-opacity:1;" d="M 66.640625 101.457031 C 67.566406 101.917969 68.5 102.355469 69.445312 102.769531 C 69.933594 102.421875 70.414062 102.066406 70.886719 101.703125 C 70.90625 101.066406 70.773438 100.46875 70.195312 100.324219 C 69.792969 100.421875 69.390625 100.585938 69.0625 100.691406 C 68.253906 100.945312 67.449219 101.199219 66.640625 101.457031 "/><path style=" stroke:none;fill-rule:nonzero;fill:rgb(65.879822%,34.899902%,28.239441%);fill-opacity:1;" d="M 133.542969 98.007812 C 132.585938 98.300781 130.640625 99.074219 128.183594 100.339844 C 128.179688 100.351562 124.609375 103.179688 124.601562 103.1875 C 124.050781 102.765625 126.980469 100.304688 126.277344 100.15625 C 126.363281 100.089844 127.332031 99.160156 127.402344 99.105469 C 127.695312 98.585938 127.226562 97.691406 128.113281 97.144531 C 128.425781 96.957031 132.570312 95.960938 133.570312 95.832031 C 134.105469 95.761719 135.113281 95.773438 135.53125 96.1875 C 136.652344 97.292969 134.113281 97.832031 133.542969 98.007812 "/><g clip-rule="nonzero" clip-path="url(#clip4)"><path style=" stroke:none;fill-rule:nonzero;fill:rgb(65.879822%,34.899902%,28.239441%);fill-opacity:1;" d="M 141.96875 125.226562 C 141.082031 124.757812 139.160156 123.925781 136.53125 123.082031 C 136.515625 123.082031 131.992188 122.554688 131.980469 122.554688 C 131.890625 121.863281 135.707031 122.207031 135.316406 121.601562 C 135.425781 121.617188 136.769531 121.644531 136.855469 121.65625 C 137.433594 121.5 137.738281 120.535156 138.753906 120.78125 C 139.105469 120.867188 142.734375 123.09375 143.535156 123.710938 C 143.957031 124.042969 144.660156 124.761719 144.660156 125.347656 C 144.667969 126.921875 142.492188 125.503906 141.96875 125.226562 "/></g><path style=" stroke:none;fill-rule:nonzero;fill:rgb(65.879822%,34.899902%,28.239441%);fill-opacity:1;" d="M 66.40625 79.085938 C 66.179688 80.824219 66.105469 85.25 68.191406 85.535156 C 70.539062 85.851562 72.535156 84.886719 74.113281 83.121094 C 75.59375 81.464844 76.476562 78.933594 75.445312 76.832031 C 75.394531 76.730469 75.316406 76.6875 75.234375 76.679688 C 74.339844 75.050781 71.445312 73.960938 69.519531 74.25 C 67.03125 74.625 66.71875 76.675781 66.40625 79.085938 "/><path style=" stroke:none;fill-rule:nonzero;fill:rgb(65.879822%,34.899902%,28.239441%);fill-opacity:1;" d="M 73.34375 88.578125 C 72.722656 88.765625 72.03125 88.765625 71.398438 88.628906 C 71.3125 88.609375 71.230469 88.582031 71.152344 88.554688 L 68.703125 84.59375 L 72.515625 82.25 L 75.65625 87.320312 C 75.035156 87.9375 74.164062 88.328125 73.34375 88.578125 "/><path style=" stroke:none;fill-rule:nonzero;fill:rgb(65.879822%,34.899902%,28.239441%);fill-opacity:1;" d="M 66.390625 89.078125 C 66.371094 89.070312 66.351562 89.066406 66.332031 89.0625 C 66.292969 89.050781 66.25 89.054688 66.199219 89.070312 C 64.921875 89.535156 64.234375 90.6875 63.660156 91.84375 C 62.882812 93.414062 60.949219 97.761719 60.289062 99.445312 C 59.671875 101.027344 58.917969 102.675781 58.753906 104.378906 C 58.648438 105.445312 59.203125 106.96875 60.542969 106.789062 C 61.050781 106.722656 61.402344 106.359375 61.691406 105.96875 C 62.171875 105.320312 62.578125 104.605469 62.949219 103.886719 C 64.429688 101.050781 67.460938 93.046875 67.683594 92.210938 C 68.003906 91 67.671875 89.550781 66.390625 89.078125 "/><path style=" stroke:none;fill-rule:nonzero;fill:rgb(65.879822%,34.899902%,28.239441%);fill-opacity:1;" d="M 137.113281 121.742188 C 133.234375 119.679688 127.429688 117.152344 123.175781 116.050781 C 121.027344 115.496094 118.789062 114.949219 116.558594 114.910156 C 116.300781 114.90625 116.042969 114.910156 115.785156 114.921875 C 116.054688 114.621094 116.316406 114.316406 116.578125 114.007812 C 116.570312 114.023438 116.566406 114.027344 116.574219 114.015625 C 116.578125 114.007812 116.582031 114.003906 116.585938 113.996094 C 117.164062 113.304688 117.726562 112.601562 118.300781 111.921875 C 121.714844 107.894531 125.128906 103.863281 128.546875 99.832031 C 128.734375 99.609375 128.449219 99.292969 128.242188 99.445312 C 128.230469 99.445312 128.214844 99.441406 128.199219 99.441406 C 127.082031 99.371094 123.019531 100.832031 122.042969 101.238281 C 120.269531 101.980469 118.539062 102.851562 117.023438 104.042969 C 114.628906 105.925781 112.960938 108.582031 112.21875 111.503906 C 111.398438 111.328125 103.746094 108.140625 103.230469 106.886719 C 102.195312 104.359375 100.15625 100.570312 96.015625 99.476562 C 92.675781 98.59375 88.5625 100.835938 85.835938 100.582031 C 82.984375 98.757812 82.652344 96.378906 81.820312 88.84375 C 81.675781 87.550781 80.960938 85.789062 79.472656 85.796875 C 78.640625 85.804688 77.785156 86.023438 76.964844 86.152344 L 73.910156 86.628906 C 73.753906 86.652344 73.6875 86.757812 73.6875 86.875 L 67.015625 88.773438 C 66.160156 89.035156 65.167969 89.433594 64.761719 90.332031 C 64.324219 91.296875 68.179688 99.59375 68.78125 100.707031 C 69.316406 101.699219 76.78125 105.972656 79.269531 106.96875 C 82.011719 115.046875 88.917969 117.34375 104.488281 119.1875 C 110.375 119.882812 115.113281 120.441406 120.058594 121.058594 C 125.519531 121.738281 130.980469 122.421875 136.441406 123.105469 C 136.59375 123.121094 137.144531 121.757812 137.113281 121.742188 "/><path style=" stroke:none;fill-rule:nonzero;fill:rgb(12.159729%,12.939453%,26.669312%);fill-opacity:1;" d="M 76.402344 72.820312 C 75.585938 72.097656 74.269531 71.867188 73.371094 72.589844 C 72.910156 72.957031 72.699219 73.5 72.648438 74.074219 C 72.636719 74.207031 72.621094 74.398438 72.617188 74.597656 C 72.457031 74.554688 72.292969 74.511719 72.132812 74.472656 C 71.761719 74.386719 71.378906 74.316406 70.996094 74.277344 C 70.59375 73.570312 69.992188 72.972656 69.214844 72.855469 C 68.074219 72.683594 67.046875 73.441406 66.664062 74.484375 C 66.414062 75.167969 66.445312 75.859375 66.648438 76.511719 C 66.53125 76.835938 66.472656 77.183594 66.488281 77.550781 C 66.492188 77.621094 66.523438 77.667969 66.570312 77.695312 C 66.546875 77.746094 66.542969 77.800781 66.574219 77.863281 C 66.875 78.425781 66.921875 78.949219 66.9375 79.570312 C 66.941406 79.878906 66.972656 80.199219 67.195312 80.4375 C 67.527344 80.78125 68.046875 80.757812 68.335938 81.1875 C 68.65625 81.660156 68.683594 82.257812 68.796875 82.796875 C 68.972656 83.648438 69.4375 84.285156 70.277344 84.582031 C 71.265625 84.929688 72.3125 84.652344 73.28125 84.378906 C 73.390625 84.347656 73.683594 84.230469 73.664062 84.144531 C 74.980469 83.136719 75.835938 81.996094 75.976562 80.257812 C 76.027344 79.613281 76.023438 78.878906 75.910156 78.160156 C 76.800781 78.558594 77.566406 77.378906 77.691406 76.539062 C 77.882812 75.253906 77.382812 73.695312 76.402344 72.820312 "/><path style=" stroke:none;fill-rule:nonzero;fill:rgb(56.079102%,26.269531%,21.179199%);fill-opacity:1;" d="M 116.570312 114.921875 C 116.390625 114.917969 116.214844 114.917969 116.039062 114.925781 C 116.550781 114.953125 117.0625 114.96875 117.574219 114.972656 C 117.238281 114.945312 116.902344 114.925781 116.570312 114.921875 Z M 101.988281 110.625 C 101.167969 110.042969 100.457031 109.324219 99.78125 108.585938 C 98.523438 107.210938 97.363281 105.742188 95.835938 104.652344 C 95.707031 104.558594 95.582031 104.773438 95.710938 104.863281 C 97.378906 106.054688 98.597656 107.710938 99.996094 109.179688 C 100.660156 109.871094 101.371094 110.527344 102.179688 111.050781 C 103.035156 111.605469 103.988281 111.992188 104.933594 112.363281 C 108.414062 113.730469 112.082031 114.667969 115.816406 114.910156 C 115.882812 114.832031 115.949219 114.753906 116.019531 114.675781 C 112.238281 114.457031 108.523438 113.511719 105 112.128906 C 103.953125 111.71875 102.910156 111.28125 101.988281 110.625 "/><path style=" stroke:none;fill-rule:nonzero;fill:rgb(100%,100%,100%);fill-opacity:1;" d="M 96.191406 105.03125 C 96.328125 105.085938 96.445312 104.925781 96.417969 104.804688 C 96.023438 103.105469 96.285156 101.355469 97.121094 99.851562 C 97.015625 99.804688 96.910156 99.765625 96.804688 99.726562 C 96.773438 99.714844 96.738281 99.703125 96.707031 99.691406 C 96.625 99.660156 96.542969 99.632812 96.460938 99.609375 C 96.425781 99.597656 96.394531 99.585938 96.359375 99.574219 C 96.246094 99.542969 96.132812 99.507812 96.015625 99.476562 C 95.914062 99.449219 95.8125 99.425781 95.710938 99.40625 C 95.675781 99.398438 95.640625 99.390625 95.609375 99.386719 C 95.539062 99.375 95.46875 99.359375 95.402344 99.351562 C 95.359375 99.34375 95.316406 99.339844 95.273438 99.332031 C 95.210938 99.324219 95.148438 99.316406 95.085938 99.308594 C 95.042969 99.304688 94.996094 99.300781 94.953125 99.296875 C 94.890625 99.292969 94.832031 99.289062 94.769531 99.285156 C 94.722656 99.28125 94.675781 99.28125 94.628906 99.277344 C 94.570312 99.277344 94.511719 99.273438 94.449219 99.273438 C 94.402344 99.273438 94.355469 99.273438 94.304688 99.273438 C 94.246094 99.273438 94.1875 99.273438 94.128906 99.273438 C 94.078125 99.273438 94.03125 99.273438 93.980469 99.277344 C 93.921875 99.277344 93.863281 99.28125 93.804688 99.285156 C 93.753906 99.289062 93.703125 99.289062 93.65625 99.292969 C 93.59375 99.296875 93.535156 99.300781 93.476562 99.308594 C 93.425781 99.3125 93.378906 99.316406 93.328125 99.320312 C 93.265625 99.328125 93.207031 99.332031 93.148438 99.339844 C 93.097656 99.347656 93.046875 99.351562 93 99.355469 C 92.9375 99.363281 92.878906 99.371094 92.820312 99.382812 C 92.769531 99.386719 92.71875 99.394531 92.667969 99.402344 C 92.609375 99.410156 92.546875 99.421875 92.488281 99.429688 C 92.4375 99.4375 92.390625 99.445312 92.339844 99.453125 C 92.277344 99.464844 92.21875 99.476562 92.15625 99.488281 C 92.109375 99.496094 92.058594 99.503906 92.011719 99.511719 C 91.949219 99.523438 91.886719 99.535156 91.824219 99.550781 C 91.777344 99.558594 91.730469 99.566406 91.679688 99.578125 C 91.617188 99.589844 91.550781 99.605469 91.484375 99.617188 C 91.441406 99.628906 91.398438 99.636719 91.355469 99.644531 C 91.277344 99.664062 91.199219 99.679688 91.121094 99.695312 C 91.089844 99.703125 91.058594 99.710938 91.027344 99.71875 C 91 99.730469 90.976562 99.738281 90.949219 99.75 C 90.949219 99.746094 90.945312 99.742188 90.941406 99.738281 C 90.863281 99.753906 90.785156 99.773438 90.707031 99.792969 C 88.914062 100.210938 87.203125 100.710938 85.835938 100.582031 C 85.832031 100.570312 85.828125 100.554688 85.828125 100.539062 C 85.164062 101.273438 84.382812 101.898438 83.664062 102.574219 C 82.730469 103.453125 81.835938 104.371094 80.960938 105.308594 C 80.535156 105.761719 80.113281 106.21875 79.695312 106.679688 C 79.566406 106.820312 79.378906 106.949219 79.316406 107.101562 C 79.929688 108.988281 80.738281 110.144531 80.757812 110.167969 C 84.84375 106.773438 90.710938 102.828125 96.191406 105.03125 "/><path style=" stroke:none;fill-rule:nonzero;fill:rgb(56.079102%,26.269531%,21.179199%);fill-opacity:1;" d="M 67.800781 91.75 C 67.703125 92.898438 67.347656 93.960938 66.742188 94.941406 C 66.660156 95.074219 66.871094 95.199219 66.953125 95.0625 C 67.582031 94.050781 67.945312 92.9375 68.046875 91.75 C 68.058594 91.59375 67.8125 91.597656 67.800781 91.75 "/><path style=" stroke:none;fill-rule:nonzero;fill:rgb(56.079102%,26.269531%,21.179199%);fill-opacity:1;" d="M 83.871094 101.257812 C 82.15625 101.058594 81.242188 99.367188 80.382812 98.074219 C 79.523438 96.78125 78.699219 95.464844 78.046875 94.050781 C 77.980469 93.90625 77.769531 94.03125 77.832031 94.175781 C 78.609375 95.859375 79.632812 97.402344 80.664062 98.9375 C 81.457031 100.113281 82.355469 101.328125 83.871094 101.503906 C 84.027344 101.519531 84.027344 101.273438 83.871094 101.257812 "/><path style=" stroke:none;fill-rule:nonzero;fill:rgb(100%,100%,100%);fill-opacity:1;" d="M 70.855469 102.339844 C 74.460938 99.558594 78.523438 97.410156 82.839844 95.972656 C 82.535156 94.6875 82.308594 93.066406 82.066406 90.964844 C 76.6875 91.894531 71.882812 94.566406 67.375 97.683594 C 67.621094 98.246094 67.828125 98.714844 68.007812 99.113281 C 68.371094 99.886719 68.65625 100.472656 68.785156 100.714844 C 68.949219 101.015625 69.75 101.617188 70.855469 102.339844 "/><path style=" stroke:none;fill-rule:nonzero;fill:rgb(100%,67.83905%,61.178589%);fill-opacity:1;" d="M 29.027344 101.898438 C 28.558594 100.214844 27.9375 98.578125 27.277344 96.960938 C 26.671875 95.488281 26.101562 93.964844 25.300781 92.582031 C 23.914062 90.179688 21.683594 88.371094 19.082031 87.433594 C 19.28125 87.1875 19.519531 86.976562 19.8125 86.8125 C 20.15625 86.617188 19.847656 86.089844 19.503906 86.28125 C 18.148438 87.042969 17.773438 88.617188 17.667969 90.058594 C 17.511719 92.21875 17.65625 94.433594 17.917969 96.582031 C 18.1875 98.757812 18.632812 100.917969 19.257812 103.023438 C 19.472656 103.742188 19.714844 104.539062 20.382812 104.976562 C 21.058594 105.417969 21.914062 105.335938 22.664062 105.144531 C 24.871094 104.59375 27.007812 103.503906 28.886719 102.242188 C 29 102.167969 29.066406 102.035156 29.027344 101.898438 "/><path style=" stroke:none;fill-rule:nonzero;fill:rgb(82.348633%,50.979614%,44.309998%);fill-opacity:1;" d="M 26.929688 103.441406 C 26.925781 103.355469 26.917969 103.265625 26.902344 103.171875 C 26.769531 102.488281 26.378906 101.816406 26.070312 101.203125 C 25.679688 100.421875 25.257812 99.65625 24.820312 98.898438 C 23.96875 97.414062 23.085938 95.945312 22.203125 94.480469 C 21.773438 93.769531 21.367188 93.035156 20.902344 92.347656 C 20.621094 91.925781 20.285156 91.5625 19.777344 91.464844 C 19.726562 90.953125 19.6875 90.4375 19.671875 89.921875 C 19.664062 89.765625 19.421875 89.761719 19.425781 89.921875 C 19.613281 95.183594 21.535156 100.148438 23.976562 104.761719 C 24.992188 104.410156 25.980469 103.960938 26.929688 103.441406 "/><path style=" stroke:none;fill-rule:nonzero;fill:rgb(12.159729%,12.939453%,26.669312%);fill-opacity:1;" d="M 35.039062 72.355469 C 30.859375 71.609375 28.628906 74.699219 27.179688 77.316406 C 25.570312 80.226562 24.679688 83.53125 24.40625 86.835938 C 24.386719 87.0625 24.617188 87.265625 24.835938 87.261719 C 25.664062 87.25 26.492188 87.238281 27.324219 87.226562 C 27.960938 87.214844 28.632812 87.230469 29.234375 86.976562 C 30.484375 86.449219 30.710938 84.691406 31.074219 83.550781 C 32.082031 80.378906 33.007812 77.183594 33.851562 73.964844 C 33.867188 73.898438 33.871094 73.835938 33.863281 73.78125 C 33.980469 73.773438 34.101562 73.765625 34.222656 73.761719 C 34.773438 73.746094 35.585938 72.449219 35.039062 72.355469 "/><path style=" stroke:none;fill-rule:nonzero;fill:rgb(100%,67.83905%,61.178589%);fill-opacity:1;" d="M 37.40625 73.921875 C 37.109375 73.726562 36.761719 73.554688 36.386719 73.417969 C 34.300781 74.128906 32.242188 74.925781 30.175781 75.683594 C 29.964844 75.761719 29.757812 75.714844 29.578125 75.605469 C 29.027344 76.972656 29.046875 78.601562 29.464844 80 C 30.140625 82.269531 31.53125 83.988281 33.792969 84.695312 C 35.804688 85.324219 37.621094 81.289062 38.160156 79.617188 C 38.90625 77.304688 39.5 75.316406 37.40625 73.921875 "/><path style=" stroke:none;fill-rule:nonzero;fill:rgb(100%,67.83905%,61.178589%);fill-opacity:1;" d="M 30.546875 86.988281 C 31.1875 87.105469 31.984375 86.855469 32.597656 86.652344 C 32.683594 86.625 32.757812 86.589844 32.832031 86.550781 L 34.835938 82.351562 L 31.03125 79.492188 L 28.117188 85.988281 C 28.800781 86.535156 29.707031 86.832031 30.546875 86.988281 "/><path style=" stroke:none;fill-rule:nonzero;fill:rgb(100%,67.83905%,61.178589%);fill-opacity:1;" d="M 78.003906 132.855469 C 77.035156 132.589844 74.914062 132.042969 73.496094 130.875 C 73.488281 130.863281 69.515625 127.703125 69.507812 127.695312 C 68.964844 128.136719 71.679688 131.402344 70.980469 131.574219 C 71.066406 131.636719 71.757812 131.898438 71.832031 131.945312 C 72.140625 132.460938 71.703125 133.367188 72.605469 133.882812 C 72.921875 134.066406 77.09375 134.933594 78.101562 135.03125 C 78.636719 135.082031 79.640625 135.039062 80.046875 134.613281 C 81.132812 133.472656 78.578125 133.015625 78.003906 132.855469 "/><path style=" stroke:none;fill-rule:nonzero;fill:rgb(82.348633%,50.979614%,44.309998%);fill-opacity:1;" d="M 59.925781 125.1875 C 58.957031 124.921875 56.832031 124.375 55.417969 123.207031 C 55.410156 123.195312 51.433594 120.035156 51.425781 120.023438 C 50.886719 120.46875 39.542969 121.117188 38.84375 121.289062 C 38.933594 121.351562 53.679688 124.226562 53.75 124.277344 C 54.0625 124.789062 53.621094 125.699219 54.527344 126.214844 C 54.84375 126.394531 59.015625 127.261719 60.019531 127.363281 C 60.554688 127.414062 61.5625 127.367188 61.96875 126.945312 C 63.054688 125.804688 60.5 125.34375 59.925781 125.1875 "/><path style=" stroke:none;fill-rule:nonzero;fill:rgb(100%,67.83905%,61.178589%);fill-opacity:1;" d="M 29.570312 114.386719 C 28.59375 113.003906 27.445312 111.722656 26.363281 110.414062 C 26.59375 110.300781 26.820312 110.183594 27.046875 110.0625 C 27.597656 109.761719 27.101562 108.929688 26.550781 109.230469 C 24.085938 110.570312 21.308594 111.347656 18.996094 112.957031 C 17.9375 113.691406 16.902344 114.59375 16.410156 115.796875 C 15.925781 116.980469 16.074219 118.277344 16.933594 119.25 C 17.832031 120.261719 19.183594 120.671875 20.453125 121.019531 C 21.972656 121.441406 23.507812 121.816406 25.070312 122.027344 C 26.453125 122.214844 28.023438 122.398438 29.320312 121.777344 C 30.542969 121.191406 31.011719 120.023438 31.042969 118.75 C 31.082031 117.175781 30.472656 115.664062 29.570312 114.386719 "/><path style=" stroke:none;fill-rule:nonzero;fill:rgb(82.348633%,50.979614%,44.309998%);fill-opacity:1;" d="M 26.949219 110.113281 C 26.890625 109.796875 26.824219 109.480469 26.757812 109.164062 C 26.695312 109.171875 26.625 109.191406 26.558594 109.226562 C 26.238281 109.402344 25.910156 109.570312 25.578125 109.726562 C 24.59375 111.46875 23.746094 113.28125 23.042969 115.15625 C 22.382812 116.921875 21.386719 119.316406 22.691406 121.039062 C 22.921875 121.34375 23.207031 121.578125 23.523438 121.761719 C 24.039062 121.863281 24.558594 121.953125 25.082031 122.023438 C 26.355469 122.195312 27.789062 122.363281 29.023438 121.902344 C 29 121.667969 28.953125 121.4375 28.925781 121.265625 C 28.742188 120.050781 28.382812 118.867188 28.136719 117.660156 C 27.71875 115.574219 27.492188 113.453125 27.160156 111.351562 C 26.894531 111.039062 26.632812 110.726562 26.371094 110.410156 C 26.566406 110.316406 26.757812 110.214844 26.949219 110.113281 "/><path style=" stroke:none;fill-rule:nonzero;fill:rgb(100%,67.83905%,61.178589%);fill-opacity:1;" d="M 74.3125 131.957031 C 74.199219 131.667969 74.359375 132.101562 74.246094 131.8125 C 74.105469 131.460938 73.425781 130.6875 73.171875 130.828125 C 71.257812 129.082031 69.457031 127.214844 67.785156 125.238281 C 65.855469 122.957031 64.265625 120.4375 62.390625 118.117188 C 60.546875 115.839844 58.269531 114.257812 55.550781 113.15625 C 52.746094 112.019531 49.769531 111.242188 46.855469 110.449219 C 44.300781 109.757812 41.734375 109.121094 39.152344 108.539062 C 38.011719 105.75 37.609375 103.640625 37.699219 103.214844 C 38.210938 100.839844 39.386719 93.851562 39.464844 91.78125 C 39.492188 91.054688 39.527344 90.324219 39.5625 89.597656 C 39.59375 88.984375 39.664062 88.34375 39.519531 87.738281 C 39.367188 87.109375 38.914062 86.566406 38.332031 86.382812 C 38.28125 86.320312 38.207031 86.269531 38.101562 86.25 C 35.382812 85.644531 32.601562 85.613281 29.832031 85.625 C 29.761719 85.527344 29.652344 85.453125 29.496094 85.449219 C 26.816406 85.359375 24.078125 85.351562 21.410156 85.667969 C 20.464844 85.78125 19.46875 86.019531 18.808594 86.757812 C 18.136719 87.511719 18.003906 88.574219 18.148438 89.539062 C 18.335938 90.796875 18.84375 92.035156 19.273438 93.230469 C 19.609375 94.167969 24.011719 100.773438 26.0625 105.683594 C 26.621094 107.023438 26.777344 109.117188 26.546875 110.1875 C 25.023438 112.113281 23.953125 114.574219 24.046875 117.035156 C 24.132812 119.335938 25.46875 121.03125 27.398438 122 C 27.484375 121.933594 27.601562 121.910156 27.722656 121.976562 C 29.496094 122.9375 31.664062 122.789062 33.304688 121.632812 C 33.421875 121.550781 33.582031 121.597656 33.679688 121.679688 C 35.175781 123.023438 37.414062 123.140625 39.359375 123.246094 C 43.914062 122.949219 54.875 121.726562 57.863281 121.378906 C 58.429688 122.386719 59.265625 123.226562 60.160156 123.976562 C 62.699219 126.117188 65.355469 128.203125 68.167969 129.984375 C 69.804688 131.019531 71.515625 131.914062 73.316406 132.628906 C 73.503906 132.703125 73.65625 132.664062 73.761719 132.566406 C 74.097656 132.59375 74.464844 132.339844 74.3125 131.957031 "/><path style=" stroke:none;fill-rule:nonzero;fill:rgb(9.408569%,10.198975%,21.179199%);fill-opacity:1;" d="M 39.398438 108.589844 C 39.320312 108.570312 39.242188 108.550781 39.164062 108.535156 C 39.136719 108.460938 39.105469 108.390625 39.078125 108.320312 C 37.136719 109.339844 35.019531 109.996094 32.835938 110.238281 C 31.785156 110.351562 30.722656 110.375 29.671875 110.300781 C 28.699219 110.234375 27.5625 110.15625 26.617188 109.785156 C 26.609375 109.875 26.597656 109.953125 26.582031 110.035156 C 26.769531 110.101562 26.964844 110.160156 27.160156 110.210938 C 27.164062 110.242188 29.523438 110.84375 31.109375 115.84375 C 31.746094 117.839844 32.5 119.808594 32.96875 121.851562 C 33.085938 121.78125 33.203125 121.707031 33.316406 121.628906 C 33.386719 121.578125 33.472656 121.578125 33.550781 121.601562 C 34.042969 119.300781 34.472656 115.773438 35.328125 113.578125 C 36.242188 111.214844 37.003906 110.007812 39.398438 108.589844 "/><path style=" stroke:none;fill-rule:nonzero;fill:rgb(12.159729%,12.939453%,26.669312%);fill-opacity:1;" d="M 37.902344 74.152344 C 36.941406 73.039062 35.203125 71.292969 31.113281 73.089844 C 31.078125 73.085938 28.128906 74.578125 28.316406 80.804688 C 28.382812 82.972656 28.371094 85.164062 28.464844 87.332031 C 28.5625 89.5625 28.683594 91.792969 28.835938 94.019531 C 29.011719 96.574219 29.222656 99.121094 29.46875 101.667969 C 29.488281 101.84375 29.65625 102.046875 29.859375 101.964844 C 32.09375 101.054688 34.546875 101.039062 36.792969 101.917969 C 36.980469 101.992188 37.183594 101.808594 37.179688 101.625 C 37.113281 95.980469 35.410156 90.550781 34.722656 84.980469 C 34.570312 83.757812 34.351562 82.417969 34.601562 81.195312 C 34.859375 79.949219 35.699219 79.410156 36.757812 78.863281 C 37.589844 78.433594 38.378906 77.902344 38.636719 76.949219 C 38.902344 75.957031 38.558594 74.910156 37.902344 74.152344 "/><path style=" stroke:none;fill-rule:nonzero;fill:rgb(12.159729%,12.939453%,26.669312%);fill-opacity:1;" d="M 38.804688 96.085938 C 32.90625 96.371094 26.996094 96.402344 21.09375 96.171875 C 20.9375 96.167969 20.9375 96.414062 21.09375 96.417969 C 26.996094 96.644531 32.90625 96.617188 38.804688 96.328125 C 38.960938 96.320312 38.960938 96.078125 38.804688 96.085938 "/><path style=" stroke:none;fill-rule:nonzero;fill:rgb(100%,67.83905%,61.178589%);fill-opacity:1;" d="M 46.777344 111.496094 C 44.949219 107.089844 43.441406 102.554688 42.289062 97.925781 C 41.722656 95.652344 41.324219 93.339844 40.722656 91.078125 C 40.449219 90.050781 40.125 89.035156 39.703125 88.058594 C 39.375 87.296875 38.96875 86.546875 38.125 86.289062 C 37.921875 86.222656 37.800781 86.417969 37.832031 86.578125 C 36.519531 87.464844 36.265625 89.089844 36.480469 90.566406 C 36.78125 92.632812 37.429688 94.699219 38.015625 96.699219 C 38.59375 98.691406 39.242188 100.65625 39.949219 102.605469 C 40.621094 104.453125 41.285156 106.363281 42.273438 108.074219 C 43.210938 109.703125 44.523438 111.101562 46.300781 111.800781 C 46.382812 111.835938 46.449219 111.820312 46.5 111.78125 C 46.667969 111.8125 46.859375 111.691406 46.777344 111.496094 "/><path style=" stroke:none;fill-rule:nonzero;fill:rgb(82.348633%,50.979614%,44.309998%);fill-opacity:1;" d="M 38.496094 98.21875 C 38.070312 96.84375 37.648438 95.464844 37.28125 94.074219 C 36.917969 92.695312 36.476562 91.210938 36.945312 89.808594 C 36.996094 89.65625 36.761719 89.59375 36.710938 89.742188 C 36.273438 91.046875 36.601562 92.394531 36.929688 93.6875 C 37.320312 95.234375 37.789062 96.757812 38.257812 98.285156 C 38.304688 98.433594 38.542969 98.371094 38.496094 98.21875 "/><path style=" stroke:none;fill-rule:nonzero;fill:rgb(82.348633%,50.979614%,44.309998%);fill-opacity:1;" d="M 61.367188 120.667969 C 60.574219 120.886719 59.769531 121.03125 58.949219 121.101562 C 58.792969 121.113281 58.789062 121.359375 58.949219 121.34375 C 59.789062 121.273438 60.617188 121.128906 61.433594 120.90625 C 61.585938 120.863281 61.519531 120.628906 61.367188 120.667969 "/><path style=" stroke:none;fill-rule:nonzero;fill:rgb(82.348633%,50.979614%,44.309998%);fill-opacity:1;" d="M 32.003906 105.40625 C 31.984375 105.25 31.746094 105.316406 31.769531 105.472656 C 31.890625 106.347656 32 107.222656 32.101562 108.101562 C 32.121094 108.253906 32.367188 108.257812 32.347656 108.101562 C 32.242188 107.203125 32.128906 106.304688 32.003906 105.40625 "/><path style=" stroke:none;fill-rule:nonzero;fill:rgb(94.119263%,35.688782%,35.688782%);fill-opacity:1;" d="M 66.839844 135.976562 C 66.210938 135.742188 65.5625 135.570312 64.90625 135.433594 C 65.058594 134.984375 65.179688 134.527344 65.257812 134.058594 C 65.324219 133.660156 65.476562 132.984375 65.015625 132.753906 C 64.480469 132.484375 64.1875 133.105469 64.003906 133.488281 C 63.757812 134.003906 63.550781 134.535156 63.375 135.078125 C 62.78125 134.882812 62.179688 134.734375 61.558594 134.660156 C 61.152344 134.613281 60.46875 134.496094 60.261719 134.964844 C 60.019531 135.511719 60.652344 135.773438 61.042969 135.9375 C 61.53125 136.140625 62.03125 136.308594 62.539062 136.453125 C 61.996094 136.828125 61.484375 137.242188 61.027344 137.722656 C 60.75 138.019531 60.246094 138.496094 60.496094 138.941406 C 60.792969 139.464844 61.382812 139.113281 61.746094 138.898438 C 62.375 138.527344 62.964844 138.101562 63.523438 137.640625 C 63.535156 137.628906 63.539062 137.621094 63.546875 137.613281 C 63.550781 137.628906 63.550781 137.644531 63.558594 137.65625 C 63.816406 138.3125 64.128906 138.945312 64.523438 139.53125 C 64.75 139.867188 65.105469 140.460938 65.597656 140.3125 C 66.171875 140.140625 65.960938 139.484375 65.828125 139.085938 C 65.601562 138.394531 65.316406 137.730469 64.984375 137.082031 C 64.976562 137.066406 64.964844 137.054688 64.957031 137.042969 C 65.425781 137.15625 65.902344 137.238281 66.382812 137.273438 C 66.789062 137.300781 67.476562 137.390625 67.664062 136.914062 C 67.882812 136.355469 67.238281 136.121094 66.839844 135.976562 "/><path style=" stroke:none;fill-rule:nonzero;fill:rgb(100%,56.858826%,56.858826%);fill-opacity:1;" d="M 63.078125 135.757812 C 63.058594 135.761719 63.039062 135.765625 63.015625 135.765625 C 62.972656 135.773438 62.929688 135.789062 62.890625 135.8125 C 62.816406 135.839844 62.753906 135.898438 62.734375 135.984375 C 62.707031 136.101562 62.777344 136.242188 62.890625 136.28125 C 62.992188 136.375 63.136719 136.378906 63.257812 136.273438 C 63.347656 136.195312 63.378906 136.046875 63.332031 135.9375 C 63.292969 135.839844 63.195312 135.746094 63.078125 135.757812 "/><path style=" stroke:none;fill-rule:nonzero;fill:rgb(100%,56.858826%,56.858826%);fill-opacity:1;" d="M 63.972656 135.164062 C 63.953125 135.167969 63.933594 135.171875 63.914062 135.171875 C 63.871094 135.179688 63.824219 135.195312 63.789062 135.21875 C 63.710938 135.246094 63.648438 135.304688 63.628906 135.390625 C 63.605469 135.503906 63.671875 135.648438 63.789062 135.6875 C 63.886719 135.78125 64.035156 135.789062 64.152344 135.679688 C 64.242188 135.601562 64.273438 135.453125 64.226562 135.34375 C 64.1875 135.246094 64.089844 135.152344 63.972656 135.164062 "/><path style=" stroke:none;fill-rule:nonzero;fill:rgb(100%,56.858826%,56.858826%);fill-opacity:1;" d="M 63.773438 136.84375 C 63.769531 136.835938 63.769531 136.828125 63.765625 136.820312 C 63.710938 136.742188 63.636719 136.703125 63.554688 136.695312 C 63.484375 136.679688 63.394531 136.699219 63.339844 136.75 C 63.292969 136.777344 63.253906 136.820312 63.230469 136.875 C 63.160156 137.015625 63.210938 137.15625 63.316406 137.246094 C 63.367188 137.308594 63.445312 137.351562 63.53125 137.347656 C 63.730469 137.332031 63.890625 137.171875 63.835938 136.964844 C 63.824219 136.917969 63.800781 136.878906 63.773438 136.84375 "/><path style=" stroke:none;fill-rule:nonzero;fill:rgb(100%,56.858826%,56.858826%);fill-opacity:1;" d="M 64.625 136.054688 C 64.5625 136.039062 64.480469 136.054688 64.425781 136.089844 C 64.285156 136.15625 64.226562 136.316406 64.261719 136.46875 C 64.289062 136.589844 64.433594 136.667969 64.554688 136.640625 C 64.625 136.648438 64.699219 136.628906 64.757812 136.578125 C 64.953125 136.421875 64.863281 136.109375 64.625 136.054688 "/><path style=" stroke:none;fill-rule:nonzero;fill:rgb(100%,92.939758%,87.059021%);fill-opacity:1;" d="M 112.449219 86.257812 C 111.160156 85.863281 108.449219 85.730469 107.238281 86.179688 C 106.449219 86.472656 106.101562 86.921875 106.054688 87.375 C 105.914062 88.714844 105.929688 90.015625 105.875 91.359375 C 105.847656 92.003906 105.835938 92.644531 105.828125 93.289062 C 105.824219 93.859375 105.722656 94.496094 106.300781 94.992188 C 107.195312 95.765625 109.703125 95.964844 111.164062 95.703125 C 113.285156 95.324219 113.574219 94.199219 113.675781 93.097656 L 113.785156 89.449219 C 113.875 88.449219 114.011719 86.738281 112.449219 86.257812 "/><path style=" stroke:none;fill-rule:nonzero;fill:rgb(100%,92.939758%,87.059021%);fill-opacity:1;" d="M 120.957031 80.675781 C 119.992188 80.082031 118.113281 80.066406 117.199219 80.679688 C 117.09375 80.75 117 80.832031 116.910156 80.917969 C 116.515625 81.179688 116.222656 81.609375 116.1875 82.207031 C 116.082031 83.984375 116.003906 85.761719 115.964844 87.542969 C 115.945312 88.394531 115.933594 89.246094 115.929688 90.101562 C 115.925781 90.851562 115.847656 91.695312 116.285156 92.355469 C 116.964844 93.378906 118.578125 93.589844 119.6875 93.242188 C 121.296875 92.742188 121.515625 91.253906 121.59375 89.796875 L 121.851562 84.820312 C 121.921875 83.496094 122.335938 81.523438 120.957031 80.675781 "/><path style=" stroke:none;fill-rule:nonzero;fill:rgb(12.159729%,12.939453%,26.669312%);fill-opacity:1;" d="M 118.675781 79.710938 L 118.675781 80.738281 C 118.675781 81.082031 119.210938 81.082031 119.210938 80.738281 L 119.210938 79.710938 C 119.210938 79.367188 118.675781 79.367188 118.675781 79.710938 "/><path style=" stroke:none;fill-rule:nonzero;fill:rgb(12.159729%,12.939453%,26.669312%);fill-opacity:1;" d="M 110.023438 85.519531 C 109.945312 85.835938 109.894531 86.15625 109.875 86.480469 C 109.851562 86.824219 110.386719 86.824219 110.410156 86.480469 C 110.429688 86.203125 110.472656 85.933594 110.542969 85.660156 C 110.625 85.328125 110.105469 85.183594 110.023438 85.519531 "/><path style=" stroke:none;fill-rule:nonzero;fill:rgb(100%,92.939758%,87.059021%);fill-opacity:1;" d="M 53.804688 135.417969 C 53.804688 139.8125 50.230469 143.378906 45.824219 143.378906 C 41.414062 143.378906 37.839844 139.8125 37.839844 135.417969 C 37.839844 131.019531 41.414062 127.453125 45.824219 127.453125 C 50.230469 127.453125 53.804688 131.019531 53.804688 135.417969 "/><path style=" stroke:none;fill-rule:nonzero;fill:rgb(47.059631%,56.079102%,85.099792%);fill-opacity:1;" d="M 52.90625 131.761719 C 51.785156 129.613281 49.714844 128.039062 47.246094 127.597656 C 46.714844 128.742188 46.238281 130.324219 46.121094 130.722656 C 45.847656 130.78125 43.035156 131.402344 41.910156 131.972656 C 40.261719 132.804688 38.929688 133.742188 37.867188 134.8125 C 37.851562 135.015625 37.839844 135.222656 37.839844 135.429688 C 37.839844 139.828125 41.414062 143.394531 45.824219 143.394531 C 45.972656 143.394531 46.125 143.386719 46.273438 143.378906 C 46.167969 140.683594 46.539062 138.308594 46.511719 135.375 C 46.496094 133.429688 46.226562 131.339844 46.160156 130.832031 C 46.558594 130.925781 48.699219 131.40625 50.710938 131.605469 C 51.472656 131.683594 52.199219 131.730469 52.90625 131.761719 "/><path style=" stroke:none;fill-rule:nonzero;fill:rgb(9.408569%,10.198975%,21.179199%);fill-opacity:1;" d="M 46.125 130.535156 C 45.832031 130.535156 45.832031 130.984375 46.125 130.984375 C 46.414062 130.984375 46.414062 130.535156 46.125 130.535156 "/><path style=" stroke:none;fill-rule:nonzero;fill:rgb(45.098877%,23.919678%,18.03894%);fill-opacity:1;" d="M 94.296875 92.007812 C 94.261719 91.578125 93.101562 90.203125 90.777344 90.175781 C 88.089844 90.144531 87.148438 91.386719 87.070312 91.710938 C 86.78125 92.894531 86.691406 94.367188 87.253906 95.488281 C 87.851562 96.679688 89.238281 97.304688 90.535156 97.269531 C 91.757812 97.230469 92.914062 96.671875 93.632812 95.679688 C 94.402344 94.621094 94.394531 93.253906 94.296875 92.007812 "/><path style=" stroke:none;fill-rule:nonzero;fill:rgb(100%,90.589905%,81.959534%);fill-opacity:1;" d="M 94.304688 92.113281 C 94.300781 92.078125 94.296875 92.042969 94.296875 92.007812 C 94.261719 91.578125 93.101562 90.203125 90.777344 90.175781 C 88.089844 90.144531 87.148438 91.386719 87.070312 91.710938 C 87.035156 91.839844 87.007812 91.976562 86.980469 92.109375 C 89.191406 93.144531 92.265625 93.542969 94.304688 92.113281 "/><path style=" stroke:none;fill-rule:nonzero;fill:rgb(94.119263%,35.688782%,35.688782%);fill-opacity:1;" d="M 92.109375 91.28125 C 92.117188 91.113281 92.027344 91.007812 91.902344 90.945312 C 91.871094 90.910156 91.828125 90.882812 91.765625 90.871094 C 91.746094 90.867188 91.726562 90.863281 91.703125 90.863281 C 91.699219 90.4375 91.695312 90.011719 91.691406 89.585938 C 91.691406 89.25 91.796875 88.710938 91.652344 88.410156 C 91.523438 88.144531 91.234375 88.054688 90.980469 87.917969 C 90.5 87.652344 90.039062 87.363281 89.589844 87.050781 C 89.390625 86.914062 89.203125 87.242188 89.402344 87.378906 C 89.726562 87.601562 90.050781 87.8125 90.386719 88.011719 C 90.726562 88.214844 91.230469 88.339844 91.308594 88.742188 C 91.378906 89.121094 91.316406 89.570312 91.316406 89.953125 C 91.320312 90.265625 91.324219 90.574219 91.324219 90.882812 C 91.1875 90.914062 91.066406 90.980469 90.996094 91.09375 C 90.804688 91.40625 91.179688 91.625 91.441406 91.65625 C 91.691406 91.6875 92.101562 91.59375 92.109375 91.28125 "/><path style=" stroke:none;fill-rule:nonzero;fill:rgb(100%,67.83905%,61.178589%);fill-opacity:1;" d="M 92.230469 90.828125 C 92.40625 90.773438 92.589844 90.785156 92.761719 90.835938 C 92.335938 90.425781 92.382812 89.847656 92.890625 89.535156 C 93.335938 89.261719 93.957031 88.957031 94.402344 89.417969 C 94.53125 89.550781 94.605469 89.722656 94.636719 89.90625 C 94.929688 89.382812 95.507812 89.285156 95.933594 89.703125 C 96.308594 90.070312 96.757812 90.597656 96.417969 91.136719 C 96.328125 91.28125 96.195312 91.386719 96.042969 91.460938 C 96.628906 91.566406 96.914062 92.074219 96.664062 92.613281 C 96.441406 93.089844 96.09375 93.6875 95.46875 93.546875 C 95.28125 93.507812 95.117188 93.394531 94.988281 93.253906 C 94.996094 93.277344 95 93.304688 95.007812 93.328125 C 95.125 93.917969 94.75 94.371094 94.152344 94.328125 C 93.628906 94.292969 92.945312 94.183594 92.847656 93.550781 C 92.808594 93.277344 92.921875 93 93.09375 92.785156 C 92.992188 92.835938 92.890625 92.878906 92.785156 92.917969 C 92.222656 93.128906 91.714844 92.828125 91.664062 92.230469 C 91.617188 91.710938 91.621094 91.019531 92.230469 90.828125 "/><path style=" stroke:none;fill-rule:nonzero;fill:rgb(12.159729%,12.939453%,26.669312%);fill-opacity:1;" d="M 94.09375 90.527344 C 94.238281 90.734375 94.335938 90.960938 94.394531 91.199219 C 94.414062 91.207031 94.433594 91.214844 94.453125 91.222656 C 94.601562 91.296875 94.722656 91.496094 94.667969 91.664062 C 94.640625 91.746094 94.609375 91.816406 94.546875 91.871094 C 94.421875 92.007812 94.207031 92.0625 94.023438 91.96875 C 93.695312 91.800781 93.757812 91.320312 94.09375 91.203125 C 94.105469 91.199219 94.121094 91.195312 94.132812 91.195312 C 94.082031 91.007812 94 90.832031 93.886719 90.667969 C 93.792969 90.535156 94.003906 90.394531 94.09375 90.527344 "/></g></svg>