<?xml version="1.0" encoding="UTF-8"?><svg xmlns="http://www.w3.org/2000/svg" xmlns:xlink="http://www.w3.org/1999/xlink" width="151.5pt" zoomAndPan="magnify" viewBox="0 0 151.5 100.499997" height="100.499997pt" preserveAspectRatio="xMidYMid meet" version="1.2"><defs><clipPath xml:id="clip1" id="clip1"><path d="M 65 2 L 98 2 L 98 100.003906 L 65 100.003906 Z M 65 2 "/></clipPath></defs><g xml:id="surface1" id="surface1"><path style=" stroke:none;fill-rule:nonzero;fill:rgb(49.01886%,73.329163%,34.509277%);fill-opacity:1;" d="M 52.671875 14.632812 C 50.683594 15.292969 48.699219 15.074219 47.59375 15.515625 C 46.488281 15.957031 43.175781 16.175781 40.527344 16.617188 C 37.878906 17.0625 38.539062 16.175781 38.539062 15.957031 C 38.539062 15.734375 41.1875 14.1875 42.292969 13.082031 C 43.394531 11.980469 45.164062 9.105469 45.605469 8.660156 C 46.046875 8.21875 45.605469 7.558594 45.605469 6.007812 C 45.605469 4.460938 46.046875 3.796875 47.152344 2.472656 C 48.257812 1.148438 49.359375 1.808594 51.125 0.925781 C 52.890625 0.0390625 55.320312 2.027344 55.320312 2.027344 C 55.320312 2.027344 55.320312 2.027344 60.621094 1.585938 C 65.921875 1.144531 70.117188 3.796875 66.363281 8.4375 C 62.609375 13.078125 52.671875 14.632812 52.671875 14.632812 Z M 125.71875 27.136719 C 125.058594 25.589844 125.277344 26.03125 123.070312 24.484375 C 120.859375 22.933594 118.652344 23.378906 114.457031 22.933594 C 110.261719 22.492188 106.726562 23.597656 103.195312 23.820312 C 99.660156 24.039062 97.230469 25.367188 94.140625 25.367188 C 92.910156 25.367188 91.890625 25.613281 90.84375 25.949219 C 91.324219 25.246094 91.640625 24.300781 91.488281 22.9375 C 91.046875 18.960938 89.722656 18.738281 89.058594 17.191406 C 88.398438 15.640625 87.957031 14.539062 87.511719 14.097656 L 86.410156 14.097656 C 86.410156 14.097656 87.292969 16.085938 87.292969 17.632812 C 87.292969 19.179688 86.851562 20.726562 85.082031 20.285156 C 83.316406 19.84375 82.652344 18.515625 81.992188 16.96875 C 81.332031 15.421875 81.332031 14.316406 81.332031 14.316406 L 79.121094 14.097656 L 76.691406 21.613281 L 75.28125 30.644531 C 75.28125 30.644531 75.03125 30.804688 74.65625 31.136719 C 74.445312 31.210938 74.242188 31.277344 74.042969 31.339844 C 71.171875 32.222656 69.847656 33.550781 66.753906 34.875 C 63.660156 36.199219 63.222656 38.410156 59.910156 40.402344 C 56.597656 42.390625 56.15625 44.378906 54.609375 46.589844 C 53.0625 48.800781 51.738281 53.21875 52.84375 55.871094 C 53.945312 58.523438 57.039062 59.1875 61.015625 60.070312 C 64.988281 60.953125 67.417969 60.070312 70.949219 60.292969 C 74.484375 60.511719 76.25 60.070312 80.667969 60.070312 C 85.082031 60.070312 90.824219 57.640625 93.917969 57.199219 C 97.007812 56.757812 100.542969 53.882812 103.410156 52.777344 C 106.28125 51.671875 109.59375 49.460938 112.246094 47.03125 C 114.894531 44.597656 118.207031 42.386719 121.519531 39.070312 C 124.835938 35.757812 126.628906 29.253906 125.71875 27.136719 Z M 125.71875 27.136719 "/><path style=" stroke:none;fill-rule:nonzero;fill:rgb(100%,100%,100%);fill-opacity:1;" d="M 56.425781 31.429688 C 54.660156 31.429688 52.230469 32.976562 49.359375 32.535156 C 46.488281 32.089844 44.5 29.660156 44.5 29.660156 L 44.941406 27.449219 C 44.941406 27.449219 47.8125 27.230469 48.695312 26.125 C 49.578125 25.019531 50.019531 21.703125 49.578125 19.714844 C 49.136719 17.726562 48.476562 16.398438 48.476562 16.398438 C 50.90625 16.179688 53.996094 17.503906 53.996094 17.503906 L 58.636719 17.503906 C 61.726562 19.496094 61.285156 23.914062 61.0625 27.449219 C 60.84375 30.984375 59.519531 32.09375 59.519531 32.09375 C 59.519531 32.09375 58.195312 31.429688 56.425781 31.429688 Z M 125.953125 28.59375 C 125.953125 28.523438 125.953125 28.457031 125.949219 28.386719 C 125.949219 28.351562 125.945312 28.3125 125.945312 28.273438 C 125.9375 28.214844 125.9375 28.15625 125.933594 28.097656 C 125.929688 28.054688 125.925781 28.019531 125.917969 27.976562 C 125.914062 27.925781 125.910156 27.875 125.902344 27.828125 C 125.894531 27.78125 125.882812 27.738281 125.875 27.695312 C 125.867188 27.65625 125.863281 27.613281 125.855469 27.574219 C 125.84375 27.523438 125.828125 27.476562 125.816406 27.429688 C 125.808594 27.398438 125.800781 27.371094 125.792969 27.34375 C 125.769531 27.269531 125.746094 27.199219 125.714844 27.132812 C 125.6875 27.070312 125.660156 27.007812 125.636719 26.949219 C 125.632812 26.941406 125.628906 26.929688 125.625 26.921875 C 125.574219 26.804688 125.527344 26.695312 125.484375 26.601562 C 125.480469 26.59375 125.476562 26.585938 125.472656 26.578125 C 125.429688 26.484375 125.394531 26.40625 125.355469 26.328125 C 125.355469 26.324219 125.351562 26.316406 125.347656 26.3125 C 125.308594 26.238281 125.273438 26.175781 125.234375 26.117188 C 125.230469 26.113281 125.230469 26.105469 125.226562 26.101562 C 125.203125 26.074219 125.1875 26.046875 125.164062 26.015625 C 125.144531 25.992188 125.125 25.964844 125.101562 25.941406 C 125.097656 25.9375 125.09375 25.933594 125.089844 25.929688 C 125.066406 25.902344 125.042969 25.878906 125.019531 25.855469 C 125.019531 25.855469 125.015625 25.851562 125.015625 25.851562 C 124.992188 25.832031 124.96875 25.808594 124.941406 25.785156 C 124.9375 25.78125 124.929688 25.777344 124.925781 25.773438 C 124.898438 25.75 124.871094 25.722656 124.839844 25.699219 C 124.839844 25.699219 124.835938 25.695312 124.832031 25.691406 C 124.800781 25.671875 124.769531 25.648438 124.738281 25.621094 C 124.734375 25.617188 124.726562 25.613281 124.71875 25.609375 C 124.683594 25.582031 124.644531 25.554688 124.605469 25.527344 C 124.601562 25.523438 124.597656 25.519531 124.59375 25.519531 C 124.554688 25.492188 124.515625 25.464844 124.472656 25.4375 C 124.464844 25.429688 124.457031 25.425781 124.449219 25.417969 C 124.402344 25.386719 124.351562 25.355469 124.296875 25.320312 C 122.308594 25.53125 119.828125 25.976562 117.542969 26.914062 C 112.683594 28.902344 99.433594 32.21875 90.601562 35.753906 C 90.195312 35.917969 89.808594 36.078125 89.433594 36.234375 C 89.140625 36.359375 91.066406 39.476562 90.601562 41.058594 C 89.746094 43.972656 86.414062 46.148438 85.960938 46.363281 C 87.949219 39.957031 87.152344 34.664062 87.066406 33.101562 C 86.625 24.921875 90.378906 26.472656 87.285156 17.628906 C 87.285156 19.179688 86.84375 20.722656 85.078125 20.28125 C 84.550781 20.152344 84.121094 19.9375 83.757812 19.664062 C 84.054688 20.691406 84.503906 22.695312 84.191406 24.703125 C 83.75 27.574219 82.425781 31.113281 81.761719 36.417969 C 81.5625 38.042969 80.972656 40.597656 80.972656 40.597656 C 80.972656 40.597656 80.355469 44.863281 79.554688 45.257812 C 78.617188 45.71875 76.761719 42.699219 75.5625 43.167969 C 74.203125 43.703125 72.625 44.25 70.722656 44.816406 C 62.0625 47.398438 54.792969 50.59375 52.617188 51.582031 C 52.582031 51.773438 52.550781 51.964844 52.527344 52.15625 C 52.527344 52.160156 52.527344 52.164062 52.523438 52.167969 C 52.449219 52.734375 52.414062 53.300781 52.433594 53.839844 C 52.433594 53.847656 52.433594 53.859375 52.433594 53.867188 C 52.441406 54.03125 52.453125 54.199219 52.46875 54.359375 C 52.472656 54.382812 52.472656 54.402344 52.476562 54.421875 C 52.496094 54.578125 52.515625 54.730469 52.546875 54.882812 C 52.550781 54.902344 52.554688 54.929688 52.558594 54.949219 C 52.589844 55.101562 52.625 55.246094 52.667969 55.386719 C 52.671875 55.40625 52.675781 55.421875 52.683594 55.4375 C 52.726562 55.585938 52.777344 55.730469 52.835938 55.867188 C 52.898438 56.023438 52.972656 56.167969 53.050781 56.308594 C 53.058594 56.328125 53.066406 56.339844 53.074219 56.355469 C 53.144531 56.488281 53.226562 56.613281 53.3125 56.730469 C 53.328125 56.757812 53.34375 56.777344 53.363281 56.804688 C 53.445312 56.914062 53.53125 57.019531 53.621094 57.121094 C 53.648438 57.152344 53.671875 57.179688 53.699219 57.207031 C 53.789062 57.304688 53.878906 57.394531 53.976562 57.480469 C 54.011719 57.515625 54.046875 57.542969 54.082031 57.574219 C 54.175781 57.652344 54.273438 57.734375 54.375 57.808594 C 54.417969 57.84375 54.46875 57.875 54.515625 57.910156 C 54.589844 57.960938 54.664062 58.007812 54.742188 58.058594 C 54.828125 58.113281 54.914062 58.164062 55.003906 58.214844 C 55.0625 58.246094 55.117188 58.277344 55.179688 58.308594 C 55.300781 58.375 55.425781 58.4375 55.550781 58.496094 C 55.59375 58.515625 55.628906 58.535156 55.671875 58.554688 C 55.84375 58.632812 56.023438 58.707031 56.210938 58.78125 C 60.285156 57.183594 66.667969 54.71875 70.5 53.4375 C 76.460938 51.449219 84.410156 48.796875 87.503906 46.585938 C 90.59375 44.375 104.507812 39.070312 113.121094 35.976562 C 117.792969 34.296875 122.203125 33.140625 125.261719 32.433594 C 125.347656 32.15625 125.425781 31.882812 125.496094 31.613281 C 125.496094 31.609375 125.496094 31.609375 125.496094 31.609375 C 125.53125 31.476562 125.566406 31.34375 125.59375 31.214844 C 125.59375 31.210938 125.597656 31.207031 125.597656 31.199219 C 125.628906 31.074219 125.65625 30.945312 125.683594 30.820312 C 125.683594 30.8125 125.683594 30.804688 125.6875 30.800781 C 125.710938 30.679688 125.734375 30.558594 125.757812 30.4375 C 125.757812 30.429688 125.761719 30.417969 125.761719 30.40625 C 125.785156 30.292969 125.804688 30.179688 125.820312 30.066406 C 125.820312 30.050781 125.824219 30.035156 125.824219 30.023438 C 125.84375 29.914062 125.855469 29.808594 125.867188 29.707031 C 125.871094 29.683594 125.871094 29.664062 125.875 29.644531 C 125.886719 29.546875 125.898438 29.453125 125.90625 29.355469 C 125.90625 29.332031 125.910156 29.304688 125.910156 29.28125 C 125.917969 29.191406 125.925781 29.105469 125.929688 29.019531 C 125.929688 28.992188 125.929688 28.960938 125.933594 28.929688 C 125.9375 28.851562 125.9375 28.777344 125.941406 28.699219 C 125.953125 28.660156 125.953125 28.628906 125.953125 28.59375 Z M 81.195312 9.523438 C 81.910156 9.035156 81.585938 8.292969 81.242188 8.710938 C 80.894531 9.128906 80.339844 9.339844 79.96875 9.429688 C 79.96875 9.429688 80.476562 10.007812 81.195312 9.523438 Z M 81.195312 9.523438 "/><g clip-rule="nonzero" clip-path="url(#clip1)"><path style=" stroke:none;fill-rule:nonzero;fill:rgb(97.24884%,72.938538%,72.938538%);fill-opacity:1;" d="M 94.582031 96.980469 C 93.476562 98.308594 88.175781 100.296875 87.070312 100.296875 C 85.96875 100.296875 84.640625 97.867188 83.757812 96.320312 C 82.878906 94.773438 82.214844 93.886719 81.550781 92.34375 C 80.890625 90.792969 80.003906 89.6875 79.5625 88.363281 C 79.121094 87.039062 77.355469 83.28125 77.355469 83.28125 C 77.355469 83.28125 72.9375 87.703125 71.832031 88.804688 C 70.730469 89.910156 70.285156 90.355469 70.285156 91.457031 C 70.285156 92.5625 70.285156 93.667969 70.285156 94.550781 C 70.285156 95.4375 70.949219 96.542969 71.167969 96.761719 C 71.390625 96.984375 72.273438 97.867188 71.390625 97.867188 C 70.507812 97.867188 69.179688 97.867188 68.078125 97.867188 C 66.972656 97.867188 65.648438 93.003906 65.425781 91.679688 C 65.207031 90.355469 64.984375 89.246094 66.089844 88.144531 C 67.191406 87.039062 67.855469 84.164062 68.738281 82.839844 C 69.621094 81.511719 70.285156 79.964844 71.832031 77.089844 C 73.378906 74.21875 76.027344 73.113281 76.46875 72.226562 C 76.910156 71.34375 75.808594 70.015625 75.808594 68.914062 C 75.808594 67.808594 74.039062 64.933594 73.597656 63.386719 C 73.15625 61.839844 70.949219 57.417969 69.625 52.113281 C 68.300781 46.808594 68.960938 42.390625 69.183594 42.167969 C 69.625 41.726562 70.066406 41.945312 71.390625 41.726562 C 72.71875 41.503906 73.378906 41.726562 75.367188 42.167969 C 77.355469 42.609375 79.339844 44.15625 80.242188 44.691406 C 81.140625 45.222656 81.328125 47.03125 81.328125 47.03125 C 83.535156 46.808594 85.964844 44.601562 86.847656 44.15625 C 87.730469 43.714844 90.601562 41.0625 90.601562 41.0625 C 90.601562 41.0625 91.042969 45.261719 91.042969 46.808594 C 91.042969 48.359375 91.707031 52.117188 91.484375 53.660156 C 91.265625 55.210938 91.707031 58.523438 91.484375 60.511719 C 91.265625 62.503906 91.265625 65.15625 90.601562 67.363281 C 89.941406 69.574219 89.71875 70.902344 89.054688 72.226562 C 88.390625 73.554688 85.300781 76.207031 85.300781 76.207031 C 85.300781 76.207031 85.300781 77.53125 85.742188 79.300781 C 86.183594 81.070312 86.40625 83.277344 86.625 85.710938 C 86.847656 88.140625 88.613281 94.992188 89.054688 95.433594 C 89.496094 95.875 92.367188 95.433594 93.695312 95.214844 C 95.023438 94.996094 95.6875 95.65625 94.582031 96.980469 Z M 78.019531 8.347656 C 78.019531 6.578125 78.019531 4.371094 78.019531 4.371094 C 78.679688 3.707031 79.121094 2.601562 79.121094 2.601562 C 81.550781 7.023438 85.964844 6.578125 85.964844 6.578125 C 86.1875 7.683594 85.304688 8.347656 85.304688 8.347656 C 85.304688 9.453125 85.746094 9.894531 85.746094 9.894531 C 85.746094 9.894531 85.746094 11.445312 85.746094 12.546875 C 85.746094 13.652344 85.746094 14.097656 85.746094 14.097656 L 86.40625 14.097656 C 86.628906 14.539062 87.070312 15.867188 87.289062 17.03125 C 87.511719 18.199219 87.511719 20.0625 86.265625 20.410156 C 85.019531 20.753906 83.535156 19.84375 82.550781 18.167969 C 81.566406 16.496094 81.328125 14.316406 81.328125 14.316406 C 81.328125 14.316406 81.769531 12.546875 81.769531 12.105469 C 81.769531 11.664062 81.550781 11.886719 80.222656 11.664062 C 78.902344 11.441406 78.019531 10.117188 78.019531 8.347656 Z M 79.96875 9.429688 C 79.96875 9.429688 80.476562 10.007812 81.195312 9.523438 C 81.910156 9.035156 81.585938 8.292969 81.242188 8.710938 C 80.894531 9.128906 80.339844 9.339844 79.96875 9.429688 Z M 96.347656 24.261719 C 96.078125 24.261719 95.480469 24.371094 94.75 24.554688 C 94.761719 23.984375 94.800781 22.375 94.800781 20.945312 C 94.800781 19.175781 94.582031 16.96875 94.140625 15.640625 C 93.699219 14.3125 92.371094 13.652344 90.828125 13.652344 C 89.28125 13.652344 87.515625 14.09375 87.515625 14.09375 C 87.734375 14.976562 88.839844 16.523438 89.503906 18.515625 C 90.164062 20.503906 91.269531 21.167969 91.492188 22.933594 C 91.675781 24.417969 91.101562 25.523438 90.910156 25.847656 C 88.476562 26.765625 79.566406 29.125 79.566406 29.125 C 79.566406 29.125 78.683594 26.695312 78.683594 25.148438 C 78.683594 23.601562 78.023438 20.949219 78.023438 20.949219 C 78.683594 20.066406 78.683594 18.296875 79.125 17.414062 C 79.566406 16.53125 80.230469 14.320312 80.011719 14.195312 C 79.789062 14.070312 77.359375 13.878906 75.8125 14.097656 C 74.265625 14.320312 72.28125 14.761719 71.617188 17.191406 C 70.957031 19.625 71.398438 20.066406 72.058594 24.042969 C 72.722656 28.023438 73.382812 28.6875 74.046875 30.675781 C 74.710938 32.664062 75.59375 33.328125 77.582031 34.210938 C 79.570312 35.09375 80.894531 34.210938 82.660156 33.769531 C 84.429688 33.328125 85.53125 32.886719 87.738281 31.117188 C 89.949219 29.347656 90.609375 28.464844 92.15625 28.242188 C 93.703125 28.023438 95.027344 25.589844 95.414062 25.386719 C 95.796875 25.183594 96.796875 25.148438 97.5 24.867188 C 98.195312 24.582031 97.011719 24.261719 96.347656 24.261719 Z M 96.347656 24.261719 "/></g><path style=" stroke:none;fill-rule:nonzero;fill:rgb(91.369629%,50.979614%,41.958618%);fill-opacity:1;" d="M 71.078125 97.757812 C 71.078125 97.820312 71.027344 97.871094 70.964844 97.871094 C 70.90625 97.871094 70.855469 97.820312 70.855469 97.757812 C 70.855469 97.078125 70.390625 96.945312 70.371094 96.941406 C 70.308594 96.921875 70.277344 96.863281 70.289062 96.804688 C 70.304688 96.746094 70.363281 96.710938 70.425781 96.726562 C 70.433594 96.726562 71.078125 96.898438 71.078125 97.757812 Z M 78.019531 21.058594 C 78.027344 21.058594 78.03125 21.058594 78.039062 21.054688 C 78.101562 21.042969 78.140625 20.984375 78.128906 20.925781 C 77.988281 20.203125 77.8125 19.066406 77.8125 19.058594 C 77.804688 18.996094 77.746094 18.957031 77.6875 18.964844 C 77.625 18.972656 77.585938 19.027344 77.59375 19.089844 C 77.59375 19.101562 77.769531 20.238281 77.910156 20.96875 C 77.921875 21.019531 77.96875 21.058594 78.019531 21.058594 Z M 76.945312 80.136719 C 76.945312 79.582031 76.886719 79.050781 76.820312 78.484375 C 76.730469 77.6875 76.636719 76.863281 76.699219 75.871094 C 76.714844 75.613281 76.730469 75.367188 76.746094 75.132812 C 76.835938 73.792969 76.910156 72.730469 76.695312 71.777344 C 76.683594 71.71875 76.625 71.679688 76.5625 71.695312 C 76.503906 71.707031 76.46875 71.769531 76.480469 71.828125 C 76.691406 72.75 76.617188 73.792969 76.527344 75.117188 C 76.511719 75.351562 76.496094 75.597656 76.480469 75.851562 C 76.417969 76.863281 76.511719 77.699219 76.605469 78.507812 C 76.667969 79.066406 76.726562 79.59375 76.726562 80.132812 C 76.726562 81.449219 77.230469 83.230469 77.253906 83.304688 C 77.265625 83.355469 77.3125 83.386719 77.359375 83.386719 C 77.367188 83.386719 77.378906 83.386719 77.386719 83.382812 C 77.445312 83.367188 77.480469 83.304688 77.464844 83.246094 C 77.457031 83.230469 76.945312 81.421875 76.945312 80.136719 Z M 68.226562 96.40625 C 68.167969 96.386719 68.109375 96.417969 68.085938 96.476562 C 68.070312 96.535156 68.101562 96.597656 68.160156 96.617188 C 68.164062 96.621094 68.828125 96.839844 69.011719 97.269531 C 69.078125 97.429688 69.070312 97.597656 68.980469 97.78125 C 68.957031 97.835938 68.976562 97.90625 69.035156 97.929688 C 69.050781 97.9375 69.066406 97.941406 69.082031 97.941406 C 69.125 97.941406 69.164062 97.917969 69.183594 97.878906 C 69.296875 97.636719 69.308594 97.398438 69.214844 97.179688 C 68.992188 96.660156 68.257812 96.417969 68.226562 96.40625 Z M 83.183594 11.535156 C 82.769531 11.6875 82.203125 11.792969 81.703125 11.871094 C 81.753906 11.914062 81.773438 11.984375 81.773438 12.105469 C 81.773438 12.238281 81.730469 12.496094 81.671875 12.792969 C 82.730469 12.289062 83.867188 11.289062 83.183594 11.535156 Z M 69.460938 96.632812 C 69.410156 96.601562 69.339844 96.617188 69.308594 96.667969 C 69.277344 96.71875 69.289062 96.789062 69.34375 96.820312 C 69.351562 96.824219 70.046875 97.277344 69.867188 97.757812 C 69.84375 97.8125 69.875 97.878906 69.933594 97.898438 C 69.945312 97.902344 69.957031 97.90625 69.96875 97.90625 C 70.015625 97.90625 70.058594 97.878906 70.074219 97.835938 C 70.316406 97.1875 69.496094 96.65625 69.460938 96.632812 Z M 81.902344 15.695312 C 81.882812 15.753906 81.914062 15.816406 81.972656 15.835938 L 83.429688 16.324219 C 83.441406 16.328125 83.453125 16.328125 83.464844 16.328125 C 83.511719 16.328125 83.554688 16.300781 83.570312 16.253906 C 83.585938 16.195312 83.558594 16.136719 83.5 16.113281 L 82.039062 15.628906 C 81.980469 15.609375 81.917969 15.636719 81.902344 15.695312 Z M 79.542969 29.015625 C 78.335938 29.273438 77.898438 29.925781 77.878906 29.953125 C 77.847656 30.003906 77.863281 30.074219 77.914062 30.105469 C 77.929688 30.117188 77.953125 30.125 77.972656 30.125 C 78.011719 30.125 78.042969 30.105469 78.066406 30.078125 C 78.070312 30.070312 78.480469 29.46875 79.589844 29.234375 C 79.648438 29.222656 79.6875 29.164062 79.675781 29.101562 C 79.660156 29.042969 79.601562 29.003906 79.542969 29.015625 Z M 86.789062 15.542969 L 85.980469 16.007812 C 85.925781 16.039062 85.90625 16.105469 85.9375 16.15625 C 85.957031 16.195312 85.996094 16.210938 86.035156 16.210938 C 86.050781 16.210938 86.070312 16.207031 86.089844 16.199219 L 86.898438 15.734375 C 86.949219 15.703125 86.96875 15.636719 86.9375 15.582031 C 86.90625 15.53125 86.839844 15.511719 86.789062 15.542969 Z M 93.363281 95.390625 C 93.304688 95.378906 93.246094 95.414062 93.234375 95.476562 C 93.21875 95.535156 93.257812 95.59375 93.320312 95.605469 C 93.347656 95.613281 94.03125 95.761719 94.03125 96.566406 C 94.03125 96.628906 94.082031 96.679688 94.144531 96.679688 C 94.207031 96.679688 94.253906 96.628906 94.253906 96.566406 C 94.25 95.578125 93.371094 95.390625 93.363281 95.390625 Z M 92.414062 95.820312 C 92.355469 95.800781 92.292969 95.832031 92.273438 95.890625 C 92.257812 95.949219 92.289062 96.007812 92.347656 96.027344 C 92.382812 96.039062 93.269531 96.332031 93.175781 97.082031 C 93.167969 97.144531 93.210938 97.199219 93.269531 97.207031 C 93.273438 97.207031 93.28125 97.207031 93.285156 97.207031 C 93.339844 97.207031 93.386719 97.167969 93.394531 97.109375 C 93.488281 96.367188 92.796875 95.941406 92.414062 95.820312 Z M 81.109375 72.605469 C 81.097656 72.542969 81.039062 72.503906 80.980469 72.515625 C 80.917969 72.527344 80.878906 72.582031 80.890625 72.644531 C 80.898438 72.695312 81.121094 73.941406 82 74.601562 C 82.019531 74.613281 82.039062 74.621094 82.066406 74.621094 C 82.097656 74.621094 82.132812 74.605469 82.152344 74.578125 C 82.191406 74.53125 82.179688 74.460938 82.132812 74.425781 C 81.324219 73.8125 81.109375 72.617188 81.109375 72.605469 Z M 91.464844 96.5625 C 91.40625 96.566406 91.359375 96.621094 91.363281 96.679688 C 91.367188 96.742188 91.425781 96.789062 91.480469 96.785156 C 91.484375 96.785156 91.746094 96.765625 91.945312 96.953125 C 92.089844 97.085938 92.160156 97.296875 92.160156 97.582031 C 92.160156 97.640625 92.210938 97.691406 92.273438 97.691406 C 92.335938 97.691406 92.382812 97.644531 92.382812 97.582031 C 92.382812 97.234375 92.289062 96.96875 92.097656 96.789062 C 91.828125 96.539062 91.480469 96.5625 91.464844 96.5625 Z M 94.394531 24.496094 C 93.453125 24.660156 91.285156 25.578125 91.195312 25.617188 C 91.136719 25.640625 91.109375 25.707031 91.136719 25.761719 C 91.152344 25.804688 91.195312 25.828125 91.238281 25.828125 C 91.25 25.828125 91.265625 25.828125 91.277344 25.820312 C 91.300781 25.8125 93.515625 24.875 94.429688 24.714844 C 94.488281 24.703125 94.53125 24.648438 94.519531 24.585938 C 94.511719 24.523438 94.453125 24.484375 94.394531 24.496094 Z M 86.230469 72.183594 C 86.222656 72.121094 86.167969 72.078125 86.109375 72.085938 C 86.046875 72.09375 86.003906 72.148438 86.011719 72.207031 C 86.015625 72.261719 86.160156 73.515625 86.414062 74.023438 C 86.433594 74.0625 86.472656 74.085938 86.511719 74.085938 C 86.527344 74.085938 86.546875 74.082031 86.5625 74.074219 C 86.617188 74.046875 86.636719 73.980469 86.609375 73.925781 C 86.375 73.453125 86.230469 72.195312 86.230469 72.183594 Z M 85.234375 74.472656 C 85.222656 74.109375 85.195312 73.785156 85.171875 73.445312 C 85.125 72.785156 85.070312 72.046875 85.09375 70.847656 C 85.109375 69.898438 85.0625 69.253906 85.011719 68.570312 C 84.964844 67.945312 84.914062 67.296875 84.914062 66.355469 C 84.914062 65.363281 84.773438 64.65625 84.621094 63.90625 C 84.476562 63.1875 84.328125 62.441406 84.308594 61.40625 C 84.289062 60.289062 84.085938 59.347656 83.894531 58.4375 C 83.71875 57.625 83.539062 56.78125 83.492188 55.8125 C 83.433594 54.660156 83.191406 53.757812 82.960938 52.886719 C 82.777344 52.195312 82.589844 51.480469 82.496094 50.644531 C 82.28125 48.761719 81.4375 47 81.429688 46.980469 C 81.402344 46.925781 81.335938 46.902344 81.28125 46.929688 C 81.226562 46.957031 81.203125 47.023438 81.230469 47.078125 C 81.238281 47.09375 82.066406 48.824219 82.273438 50.667969 C 82.371094 51.519531 82.5625 52.242188 82.746094 52.945312 C 82.972656 53.804688 83.210938 54.691406 83.269531 55.824219 C 83.320312 56.8125 83.503906 57.660156 83.679688 58.484375 C 83.871094 59.382812 84.070312 60.316406 84.085938 61.410156 C 84.105469 62.464844 84.257812 63.21875 84.402344 63.949219 C 84.550781 64.6875 84.691406 65.382812 84.691406 66.355469 C 84.691406 67.300781 84.742188 67.953125 84.789062 68.585938 C 84.839844 69.261719 84.890625 69.902344 84.871094 70.839844 C 84.847656 72.050781 84.902344 72.800781 84.953125 73.460938 C 84.976562 73.800781 85 74.121094 85.011719 74.480469 C 85.050781 75.546875 85.191406 76.203125 85.195312 76.230469 C 85.210938 76.28125 85.253906 76.316406 85.304688 76.316406 C 85.3125 76.316406 85.320312 76.316406 85.328125 76.316406 C 85.390625 76.304688 85.425781 76.242188 85.414062 76.183594 C 85.410156 76.175781 85.269531 75.515625 85.234375 74.472656 Z M 90.425781 20.53125 C 90.433594 20.53125 90.445312 20.527344 90.457031 20.527344 C 90.515625 20.507812 90.546875 20.445312 90.53125 20.386719 C 90.359375 19.8125 90.425781 19.273438 90.453125 19.117188 C 90.730469 18.972656 91.234375 18.949219 91.238281 18.949219 C 91.300781 18.945312 91.34375 18.894531 91.34375 18.832031 C 91.339844 18.769531 91.296875 18.722656 91.226562 18.726562 C 91.203125 18.730469 90.609375 18.757812 90.292969 18.953125 C 90.269531 18.96875 90.25 18.992188 90.246094 19.023438 C 90.238281 19.050781 90.097656 19.710938 90.320312 20.449219 C 90.332031 20.5 90.378906 20.53125 90.425781 20.53125 Z M 90.445312 97.042969 C 90.386719 97.050781 90.34375 97.105469 90.351562 97.164062 C 90.355469 97.226562 90.414062 97.269531 90.472656 97.261719 C 90.476562 97.261719 90.835938 97.222656 91.015625 97.414062 C 91.109375 97.515625 91.136719 97.671875 91.097656 97.878906 C 91.085938 97.941406 91.125 97.996094 91.1875 98.007812 C 91.191406 98.011719 91.199219 98.011719 91.207031 98.011719 C 91.257812 98.011719 91.304688 97.976562 91.3125 97.921875 C 91.367188 97.640625 91.320312 97.417969 91.171875 97.261719 C 90.921875 96.992188 90.464844 97.042969 90.445312 97.042969 Z M 51.171875 16.617188 C 51.171875 16.617188 52.894531 21.925781 55.765625 21.925781 C 58.636719 21.925781 58.003906 19.445312 56.773438 17.589844 L 56.867188 15.074219 C 56.867188 15.074219 56.871094 15.070312 56.878906 15.070312 C 56.878906 15.070312 56.878906 15.070312 56.882812 15.066406 C 57.0625 15.007812 59.078125 14.320312 59.078125 12.417969 C 59.078125 10.429688 58.769531 9.132812 57.929688 7.351562 C 57.089844 5.566406 56.648438 5.566406 56.207031 5.566406 C 55.765625 5.566406 53.777344 6.449219 53.777344 6.449219 C 53.777344 6.449219 54.4375 7.335938 53.996094 8 C 53.554688 8.660156 53.113281 8.660156 53.113281 8.660156 C 53.113281 8.660156 53.996094 10.429688 52.453125 11.09375 C 52.453125 11.09375 52.894531 12.863281 51.347656 13.523438 C 51.347656 13.523438 52.28125 14.222656 52.332031 14.761719 C 52.492188 16.476562 51.171875 16.617188 51.171875 16.617188 Z M 59.449219 18.703125 C 60.042969 19.460938 60.398438 20.820312 60.84375 22.542969 C 61.285156 24.265625 61.042969 26.53125 61.042969 26.53125 C 61.042969 26.53125 61.503906 25.683594 62.164062 24.136719 C 62.828125 22.585938 63.046875 20.378906 62.828125 19.492188 C 62.605469 18.609375 61.28125 17.722656 60.398438 17.503906 C 59.515625 17.28125 58.628906 17.503906 58.628906 17.503906 C 58.628906 17.503906 58.855469 17.945312 59.449219 18.703125 Z M 63.269531 42.039062 C 62.828125 40.269531 61.722656 39.167969 61.28125 37.839844 C 60.839844 36.515625 60.179688 35.410156 59.515625 34.085938 C 58.851562 32.757812 59.148438 31.96875 59.148438 31.96875 C 59.148438 31.96875 58.78125 31.792969 58.28125 31.632812 C 57.777344 31.472656 57.230469 31.382812 57.230469 31.382812 C 57.230469 31.382812 57.175781 31.449219 57.109375 31.550781 C 57.023438 31.730469 56.886719 32.027344 56.839844 32.238281 C 56.84375 32.292969 56.855469 32.339844 56.886719 32.382812 C 57.316406 33.042969 57.972656 34.746094 57.972656 34.746094 L 59.648438 37.203125 C 59.648438 37.203125 58.855469 38.507812 58.414062 39.390625 C 57.972656 40.273438 56.867188 41.378906 56.425781 42.484375 C 55.984375 43.589844 53.996094 45.136719 53.996094 45.136719 C 53.996094 45.136719 51.785156 42.925781 50.902344 42.042969 C 50.019531 41.160156 48.253906 40.273438 46.929688 39.832031 C 45.605469 39.390625 43.175781 38.949219 42.914062 38.945312 C 42.652344 38.945312 42.289062 39.832031 41.847656 40.9375 C 41.40625 42.042969 41.1875 42.929688 41.1875 45.136719 C 41.1875 47.347656 41.40625 48.011719 41.847656 50.664062 C 42.289062 53.316406 43.171875 53.535156 43.835938 56.1875 C 44.5 58.839844 45.160156 60.167969 46.265625 62.15625 C 47.371094 64.144531 49.136719 66.800781 49.578125 67.460938 C 50.019531 68.125 50.019531 68.34375 49.136719 69.453125 C 48.253906 70.554688 47.371094 72.765625 46.488281 74.316406 C 45.605469 75.863281 44.941406 78.738281 44.058594 80.28125 C 43.175781 81.828125 42.289062 83.597656 41.847656 84.703125 C 41.40625 85.8125 41.628906 87.578125 41.847656 88.683594 C 42.070312 89.785156 42.289062 91.554688 42.511719 92.21875 C 42.730469 92.882812 42.953125 92.882812 44.058594 92.882812 C 45.164062 92.882812 45.382812 92.660156 45.605469 91.996094 C 45.824219 91.335938 45.824219 90.007812 45.824219 88.683594 C 45.824219 87.355469 46.046875 86.25 46.707031 85.808594 C 47.371094 85.367188 47.148438 85.144531 48.03125 84.261719 C 48.914062 83.375 49.136719 82.492188 50.242188 81.609375 C 51.34375 80.722656 52.007812 79.175781 52.007812 79.175781 C 52.007812 79.175781 51.566406 81.609375 51.566406 83.820312 C 51.566406 86.03125 51.125 87.796875 51.125 89.566406 C 51.125 91.335938 50.683594 93.324219 50.90625 93.988281 C 51.125 94.648438 51.566406 94.871094 52.671875 95.535156 C 53.777344 96.199219 54.441406 96.417969 54.882812 96.640625 C 55.324219 96.859375 56.871094 96.417969 57.53125 96.199219 C 58.195312 95.976562 57.972656 95.316406 57.089844 94.871094 C 56.207031 94.429688 55.324219 92.882812 55.101562 92.21875 C 54.882812 91.558594 55.324219 90.007812 55.984375 88.242188 C 56.648438 86.472656 56.648438 85.589844 57.089844 83.601562 C 57.53125 81.609375 57.75 80.0625 58.636719 76.527344 C 59.519531 72.992188 59.519531 70.78125 60.179688 67.246094 C 60.84375 63.707031 60.402344 62.382812 60.84375 59.730469 C 61.285156 57.078125 61.0625 54.644531 61.503906 52.878906 C 61.945312 51.109375 61.726562 49.339844 61.726562 49.339844 C 61.726562 49.339844 62.386719 49.339844 63.050781 49.121094 C 63.710938 48.898438 63.933594 47.351562 63.933594 47.351562 C 64.152344 47.351562 64.375 46.6875 64.152344 45.582031 C 63.933594 44.476562 63.710938 43.808594 63.269531 42.039062 Z M 56.84375 32.234375 C 56.828125 32.015625 56.992188 31.726562 57.113281 31.546875 C 57.15625 31.453125 57.1875 31.390625 57.1875 31.390625 C 57.1875 31.390625 56.648438 31.207031 55.664062 31.4375 C 54.675781 31.667969 53.113281 32.09375 52.378906 32.226562 C 51.640625 32.359375 50.023438 32.976562 48.488281 32.367188 C 47.570312 32 47.113281 31.816406 46.753906 31.679688 C 47.863281 29.324219 47.886719 26.667969 47.886719 26.667969 C 47.886719 26.667969 49.34375 26.34375 49.460938 24.90625 C 49.582031 23.472656 49.859375 23.152344 49.832031 21.433594 C 49.804688 19.714844 49.484375 18.707031 49.089844 17.773438 C 48.699219 16.839844 48.699219 16.839844 48.476562 16.398438 C 48.476562 16.398438 46.269531 16.175781 44.945312 17.722656 C 43.621094 19.269531 42.734375 22.585938 42.292969 24.796875 L 41.410156 21.039062 C 41.410156 21.039062 42.074219 21.039062 42.074219 20.375 C 42.074219 20.375 42.515625 20.375 42.292969 18.605469 C 42.074219 16.839844 39.421875 16.398438 39.421875 16.398438 C 39.421875 16.398438 40.546875 14.933594 40.207031 14.671875 C 39.863281 14.410156 38.320312 15.957031 37.878906 16.84375 C 37.4375 17.726562 37.214844 18.167969 37.214844 19.714844 C 37.214844 21.261719 36.773438 35.851562 42.292969 35.1875 C 43.183594 35.078125 43.929688 34.785156 44.558594 34.367188 C 44.285156 34.960938 44.0625 35.40625 44.0625 35.40625 C 45.386719 36.292969 47.152344 35.628906 48.480469 36.070312 C 49.804688 36.511719 50.46875 36.292969 52.242188 36.488281 C 54.015625 36.683594 54.664062 36.070312 55.945312 35.933594 C 57.222656 35.792969 57.976562 34.746094 57.976562 34.746094 C 57.976562 34.746094 57.039062 33.082031 56.835938 32.414062 C 56.820312 32.371094 56.824219 32.308594 56.84375 32.234375 Z M 56.84375 32.234375 "/><path style=" stroke:none;fill-rule:nonzero;fill:rgb(0.779724%,18.03894%,44.309998%);fill-opacity:1;" d="M 61.285156 16.398438 C 61.5 16.722656 61.503906 17.277344 61.390625 17.933594 C 61.050781 17.734375 60.703125 17.578125 60.402344 17.507812 C 59.519531 17.285156 58.636719 17.507812 58.636719 17.507812 L 56.777344 17.507812 L 56.871094 15.074219 C 56.871094 15.074219 59.078125 14.414062 59.078125 12.421875 C 59.078125 12.175781 59.074219 11.941406 59.0625 11.714844 L 59.078125 11.757812 C 59.078125 11.757812 59.960938 11.757812 60.402344 12.199219 C 60.84375 12.640625 60.621094 13.96875 60.621094 13.96875 C 60.621094 13.96875 61.285156 14.1875 61.503906 15.074219 C 61.726562 15.957031 61.285156 16.398438 61.285156 16.398438 Z M 57.972656 34.746094 C 57.972656 34.746094 57.21875 35.792969 55.9375 35.933594 C 54.660156 36.074219 54.007812 36.683594 52.234375 36.488281 C 50.460938 36.292969 49.800781 36.515625 48.472656 36.070312 C 48.261719 36.023438 48.042969 35.980469 47.824219 35.9375 C 46.605469 35.800781 45.175781 36.152344 44.058594 35.40625 C 43.488281 36.929688 43.082031 38.121094 42.804688 38.988281 C 42.84375 38.957031 42.878906 38.941406 42.914062 38.941406 C 43.175781 38.945312 45.605469 39.386719 46.929688 39.828125 C 48.253906 40.269531 50.019531 41.152344 50.902344 42.039062 C 51.785156 42.921875 53.996094 45.132812 53.996094 45.132812 C 53.996094 45.132812 55.984375 43.585938 56.425781 42.480469 C 56.867188 41.375 57.972656 40.269531 58.414062 39.386719 C 58.808594 38.589844 59.488281 37.460938 59.621094 37.238281 C 59.578125 37.144531 59.535156 37.054688 59.488281 36.960938 Z M 81.355469 14.507812 C 81.339844 14.386719 81.332031 14.316406 81.332031 14.316406 C 81.332031 14.316406 81.332031 14.382812 81.339844 14.507812 Z M 99.21875 15.863281 C 99.21875 15.863281 100.765625 14.539062 100.542969 12.546875 C 100.324219 10.558594 99.882812 8.125 97.230469 7.683594 C 94.582031 7.242188 92.152344 6.582031 91.046875 5.472656 C 89.945312 4.367188 88.839844 2.601562 87.292969 1.496094 C 85.75 0.390625 83.761719 0.171875 82.214844 0.613281 C 80.667969 1.054688 79.785156 1.054688 78.902344 1.9375 C 78.203125 2.636719 74.484375 5.253906 74.484375 9.453125 C 74.484375 12.039062 76.578125 13.367188 78.1875 14.007812 C 79.0625 14.035156 79.800781 14.117188 79.980469 14.179688 L 81.332031 14.316406 C 81.332031 14.316406 81.773438 12.546875 81.773438 12.105469 C 81.773438 11.664062 81.554688 11.886719 80.226562 11.664062 C 78.902344 11.445312 78.019531 10.117188 78.019531 8.347656 C 78.019531 6.582031 78.019531 4.371094 78.019531 4.371094 C 78.679688 3.707031 79.121094 2.601562 79.121094 2.601562 C 81.550781 7.023438 85.964844 6.582031 85.964844 6.582031 C 86.1875 7.683594 85.304688 8.347656 85.304688 8.347656 C 85.304688 9.453125 85.746094 9.898438 85.746094 9.898438 C 85.746094 9.898438 85.746094 11.445312 85.746094 12.550781 C 85.746094 13.65625 85.746094 14.097656 85.746094 14.097656 L 87.511719 14.097656 C 87.511719 14.097656 89.277344 13.65625 90.824219 13.65625 C 92.367188 13.65625 93.695312 14.320312 94.136719 15.644531 C 94.578125 16.972656 94.796875 19.183594 94.796875 20.953125 C 94.796875 21.800781 94.785156 22.714844 94.769531 23.4375 C 95.464844 23.402344 96.457031 23.175781 97.226562 22.277344 C 98.550781 20.730469 100.097656 20.289062 100.757812 18.300781 C 101.417969 16.3125 100.980469 14.324219 100.980469 14.324219 C 100.980469 14.324219 100.324219 15.640625 99.21875 15.863281 Z M 81.21875 7.089844 C 81.21875 6.949219 81.125 6.835938 81.011719 6.835938 C 80.894531 6.835938 80.800781 6.949219 80.800781 7.089844 C 80.800781 7.230469 80.894531 7.347656 81.011719 7.347656 C 81.125 7.347656 81.21875 7.230469 81.21875 7.089844 Z M 78.253906 7.347656 C 78.253906 7.484375 78.347656 7.601562 78.464844 7.601562 C 78.578125 7.601562 78.671875 7.488281 78.671875 7.347656 C 78.671875 7.207031 78.578125 7.089844 78.464844 7.089844 C 78.351562 7.089844 78.253906 7.203125 78.253906 7.347656 Z M 79.375 8.664062 C 79.484375 8.664062 79.609375 8.648438 79.742188 8.609375 C 79.800781 8.59375 79.835938 8.535156 79.820312 8.476562 C 79.804688 8.417969 79.746094 8.382812 79.683594 8.398438 C 79.375 8.484375 79.195312 8.433594 79.171875 8.390625 C 79.160156 8.375 79.171875 8.328125 79.242188 8.253906 C 79.539062 7.933594 79.589844 7.609375 79.59375 7.59375 C 79.601562 7.53125 79.5625 7.476562 79.503906 7.46875 C 79.441406 7.457031 79.382812 7.5 79.375 7.558594 C 79.375 7.5625 79.328125 7.832031 79.082031 8.105469 C 78.902344 8.296875 78.941406 8.4375 78.984375 8.503906 C 79.042969 8.609375 79.1875 8.664062 79.375 8.664062 Z M 80.914062 5.320312 C 80.507812 5.378906 80.28125 5.695312 80.269531 5.707031 C 80.238281 5.757812 80.25 5.824219 80.296875 5.859375 C 80.316406 5.875 80.339844 5.882812 80.359375 5.882812 C 80.394531 5.882812 80.429688 5.863281 80.453125 5.835938 C 80.453125 5.832031 80.632812 5.582031 80.945312 5.539062 C 81.1875 5.507812 81.453125 5.605469 81.726562 5.832031 C 81.773438 5.871094 81.84375 5.863281 81.882812 5.816406 C 81.921875 5.769531 81.914062 5.699219 81.867188 5.660156 C 81.539062 5.394531 81.222656 5.28125 80.914062 5.320312 Z M 79.136719 5.882812 C 79.160156 5.882812 79.1875 5.871094 79.210938 5.851562 C 79.253906 5.8125 79.257812 5.742188 79.214844 5.695312 C 79.019531 5.484375 78.8125 5.378906 78.597656 5.382812 C 78.300781 5.394531 78.109375 5.621094 78.101562 5.632812 C 78.0625 5.679688 78.070312 5.75 78.117188 5.789062 C 78.164062 5.828125 78.234375 5.820312 78.273438 5.773438 C 78.273438 5.769531 78.410156 5.613281 78.605469 5.605469 C 78.75 5.597656 78.90625 5.683594 79.054688 5.847656 C 79.074219 5.867188 79.105469 5.882812 79.136719 5.882812 Z M 90.300781 38.457031 C 90.167969 37.949219 90.003906 37.320312 89.542969 36.203125 C 89.539062 36.183594 88.988281 34.460938 88.949219 33.191406 C 88.90625 31.910156 88.929688 30.191406 88.929688 30.175781 C 88.929688 30.113281 88.878906 30.0625 88.820312 30.0625 C 88.757812 30.058594 88.707031 30.113281 88.707031 30.171875 C 88.707031 30.191406 88.6875 31.910156 88.726562 33.199219 C 88.769531 34.5 89.3125 36.199219 89.335938 36.277344 C 89.792969 37.390625 89.957031 38.015625 90.085938 38.515625 C 90.15625 38.789062 90.21875 39.027344 90.3125 39.296875 C 90.574219 40.027344 90.496094 41.042969 90.496094 41.054688 C 90.492188 41.113281 90.535156 41.167969 90.597656 41.171875 C 90.601562 41.171875 90.601562 41.171875 90.605469 41.171875 C 90.664062 41.171875 90.710938 41.128906 90.714844 41.070312 C 90.71875 41.027344 90.800781 40 90.523438 39.226562 C 90.429688 38.960938 90.371094 38.726562 90.300781 38.457031 Z M 74.164062 31.175781 C 74.113281 31.214844 72.917969 32.132812 72.40625 33.425781 C 72.210938 33.929688 71.902344 34.347656 71.574219 34.789062 C 71.074219 35.464844 70.558594 36.167969 70.328125 37.28125 C 70.121094 38.269531 69.921875 38.734375 69.746094 39.144531 C 69.601562 39.488281 69.457031 39.816406 69.34375 40.390625 C 69.089844 41.621094 69.074219 42.140625 69.074219 42.160156 C 69.070312 42.222656 69.121094 42.273438 69.179688 42.277344 C 69.183594 42.277344 69.183594 42.277344 69.183594 42.277344 C 69.242188 42.277344 69.292969 42.230469 69.292969 42.167969 C 69.292969 42.160156 69.3125 41.640625 69.558594 40.429688 C 69.667969 39.878906 69.796875 39.578125 69.949219 39.230469 C 70.128906 38.808594 70.335938 38.335938 70.542969 37.328125 C 70.765625 36.261719 71.265625 35.578125 71.753906 34.917969 C 72.089844 34.464844 72.40625 34.035156 72.613281 33.507812 C 73.101562 32.273438 74.285156 31.359375 74.296875 31.351562 C 74.34375 31.316406 74.355469 31.246094 74.316406 31.195312 C 74.28125 31.148438 74.210938 31.136719 74.164062 31.175781 Z M 55.292969 9.523438 C 55.292969 9.675781 55.378906 9.800781 55.480469 9.800781 C 55.582031 9.800781 55.667969 9.675781 55.667969 9.523438 C 55.667969 9.367188 55.582031 9.242188 55.480469 9.242188 C 55.378906 9.242188 55.292969 9.367188 55.292969 9.523438 Z M 58.042969 8.894531 C 57.9375 8.894531 57.855469 9.019531 57.855469 9.175781 C 57.855469 9.328125 57.9375 9.453125 58.042969 9.453125 C 58.144531 9.453125 58.226562 9.328125 58.226562 9.175781 C 58.226562 9.019531 58.144531 8.894531 58.042969 8.894531 Z M 56.867188 9.496094 C 56.886719 9.683594 57.050781 10.046875 57.503906 10.070312 C 57.660156 10.078125 57.792969 10.253906 57.792969 10.445312 C 57.796875 10.746094 57.515625 10.941406 57.046875 10.972656 C 56.988281 10.976562 56.941406 11.03125 56.945312 11.089844 C 56.949219 11.148438 56.996094 11.195312 57.054688 11.195312 C 57.054688 11.195312 57.058594 11.195312 57.0625 11.195312 C 57.765625 11.144531 58.015625 10.777344 58.011719 10.445312 C 58.011719 10.132812 57.785156 9.867188 57.511719 9.851562 C 57.140625 9.832031 57.089844 9.507812 57.085938 9.46875 C 57.074219 9.410156 57.023438 9.367188 56.960938 9.375 C 56.902344 9.378906 56.855469 9.433594 56.867188 9.496094 Z M 56.199219 11.582031 C 56.179688 11.527344 56.117188 11.496094 56.0625 11.511719 C 56.003906 11.53125 55.96875 11.59375 55.992188 11.652344 C 55.992188 11.660156 56.171875 12.195312 56.835938 12.195312 C 56.960938 12.195312 57.109375 12.171875 57.273438 12.125 C 57.332031 12.109375 57.367188 12.046875 57.347656 11.992188 C 57.332031 11.933594 57.273438 11.898438 57.214844 11.914062 C 56.398438 12.144531 56.207031 11.609375 56.199219 11.582031 Z M 54.363281 8.171875 C 54.320312 8.214844 54.316406 8.285156 54.355469 8.328125 C 54.378906 8.351562 54.410156 8.367188 54.4375 8.367188 C 54.464844 8.367188 54.492188 8.355469 54.511719 8.335938 C 54.546875 8.308594 55.324219 7.613281 56.015625 8.28125 C 56.058594 8.324219 56.128906 8.324219 56.171875 8.28125 C 56.214844 8.238281 56.210938 8.167969 56.167969 8.125 C 55.332031 7.308594 54.375 8.164062 54.363281 8.171875 Z M 58.214844 7.84375 C 57.992188 7.675781 57.773438 7.617188 57.566406 7.667969 C 57.214844 7.757812 57.042969 8.136719 57.035156 8.15625 C 57.007812 8.210938 57.035156 8.277344 57.089844 8.300781 C 57.101562 8.308594 57.117188 8.3125 57.132812 8.3125 C 57.175781 8.3125 57.214844 8.285156 57.234375 8.246094 C 57.234375 8.242188 57.375 7.945312 57.621094 7.882812 C 57.761719 7.847656 57.914062 7.894531 58.082031 8.019531 C 58.128906 8.058594 58.199219 8.050781 58.234375 8 C 58.273438 7.953125 58.265625 7.882812 58.214844 7.84375 Z M 64.859375 2.554688 C 60.335938 1.570312 57.355469 3.320312 54.207031 5.179688 L 53.679688 5.488281 C 51.558594 6.730469 50.511719 8.019531 49.1875 9.644531 C 48.4375 10.566406 47.585938 11.613281 46.410156 12.785156 C 43.289062 15.894531 41.574219 16.191406 41.554688 16.191406 C 41.496094 16.203125 41.453125 16.257812 41.460938 16.316406 C 41.46875 16.371094 41.515625 16.410156 41.570312 16.410156 C 41.578125 16.410156 41.582031 16.410156 41.589844 16.410156 C 41.660156 16.398438 43.328125 16.121094 46.414062 13.089844 C 46.308594 13.449219 46.167969 14.152344 46.488281 14.632812 C 46.488281 14.632812 45.164062 15.292969 45.382812 16.621094 C 45.425781 16.878906 45.4375 17.089844 45.425781 17.265625 C 46.742188 16.226562 48.476562 16.398438 48.476562 16.398438 C 49.347656 16.320312 50.304688 16.441406 51.175781 16.628906 C 51.175781 16.625 51.171875 16.617188 51.171875 16.617188 C 51.171875 16.617188 51.753906 16.996094 52.242188 16.246094 C 52.730469 15.496094 52.390625 15.03125 52.328125 14.765625 C 52.207031 14.234375 51.347656 13.527344 51.347656 13.527344 C 52.894531 12.867188 52.449219 11.097656 52.449219 11.097656 C 53.996094 10.433594 53.113281 8.664062 53.113281 8.664062 C 53.113281 8.664062 53.554688 8.664062 53.996094 8.003906 C 54.367188 7.441406 53.953125 6.726562 53.816406 6.515625 C 54.800781 6.085938 55.675781 5.800781 56.226562 5.679688 C 56.382812 5.644531 56.554688 5.628906 56.734375 5.621094 C 56.960938 5.867188 57.523438 6.523438 57.929688 7.355469 C 57.929688 7.355469 58.417969 6.464844 57.785156 5.6875 C 57.78125 5.683594 57.78125 5.683594 57.78125 5.683594 C 58.429688 5.769531 58.960938 5.914062 58.972656 5.914062 C 59.03125 5.933594 59.089844 5.898438 59.105469 5.839844 C 59.121094 5.78125 59.089844 5.71875 59.03125 5.703125 C 58.957031 5.683594 57.265625 5.226562 56.179688 5.464844 C 55.171875 5.6875 53.121094 6.4375 51.230469 7.644531 C 51.925781 6.953125 52.722656 6.3125 53.792969 5.683594 L 54.320312 5.375 C 57.433594 3.539062 60.375 1.808594 64.8125 2.777344 C 64.871094 2.789062 64.933594 2.753906 64.945312 2.691406 C 64.957031 2.628906 64.917969 2.570312 64.859375 2.554688 Z M 45.605469 8.773438 C 45.636719 8.773438 45.667969 8.757812 45.691406 8.730469 C 45.910156 8.449219 46.113281 8.148438 46.316406 7.859375 C 46.671875 7.339844 47.011719 6.847656 47.414062 6.445312 C 47.457031 6.402344 47.457031 6.332031 47.414062 6.289062 C 47.371094 6.246094 47.300781 6.246094 47.257812 6.289062 C 46.84375 6.703125 46.480469 7.226562 46.132812 7.734375 C 45.933594 8.019531 45.730469 8.320312 45.519531 8.59375 C 45.480469 8.644531 45.488281 8.710938 45.539062 8.75 C 45.558594 8.765625 45.582031 8.773438 45.605469 8.773438 Z M 50.25 3.808594 C 50.269531 3.808594 50.292969 3.800781 50.3125 3.789062 C 50.328125 3.78125 51.910156 2.734375 53.570312 2.527344 C 55.347656 2.300781 55.40625 2.125 55.425781 2.066406 C 55.441406 2.007812 55.410156 1.949219 55.351562 1.925781 C 55.304688 1.914062 55.261719 1.929688 55.230469 1.964844 C 55.199219 1.988281 54.941406 2.128906 53.542969 2.304688 C 51.832031 2.519531 50.253906 3.558594 50.1875 3.601562 C 50.136719 3.636719 50.125 3.707031 50.15625 3.757812 C 50.179688 3.789062 50.214844 3.808594 50.25 3.808594 Z M 106.324219 50.082031 L 105.054688 50.023438 C 104.996094 50.019531 104.941406 50.066406 104.9375 50.128906 C 104.9375 50.1875 104.984375 50.242188 105.042969 50.242188 L 106.3125 50.304688 C 106.316406 50.304688 106.316406 50.304688 106.320312 50.304688 C 106.378906 50.304688 106.425781 50.257812 106.429688 50.199219 C 106.429688 50.136719 106.382812 50.085938 106.324219 50.082031 Z M 107.050781 49.539062 L 105.902344 49.480469 C 105.84375 49.476562 105.789062 49.523438 105.785156 49.585938 C 105.78125 49.644531 105.832031 49.699219 105.890625 49.699219 L 107.039062 49.761719 C 107.042969 49.761719 107.042969 49.761719 107.046875 49.761719 C 107.105469 49.761719 107.152344 49.714844 107.15625 49.65625 C 107.15625 49.59375 107.109375 49.542969 107.050781 49.539062 Z M 117.382812 23.679688 C 117.386719 23.679688 117.386719 23.679688 117.390625 23.679688 L 118.78125 23.558594 C 118.84375 23.554688 118.886719 23.5 118.882812 23.441406 C 118.878906 23.378906 118.824219 23.332031 118.765625 23.339844 L 117.375 23.460938 C 117.3125 23.464844 117.269531 23.519531 117.273438 23.578125 C 117.277344 23.636719 117.324219 23.679688 117.382812 23.679688 Z M 118.300781 23.964844 C 118.316406 24.011719 118.363281 24.046875 118.410156 24.046875 C 118.421875 24.046875 118.429688 24.042969 118.441406 24.042969 L 119.53125 23.738281 C 119.589844 23.722656 119.621094 23.664062 119.605469 23.605469 C 119.589844 23.546875 119.53125 23.511719 119.472656 23.527344 L 118.382812 23.828125 C 118.320312 23.84375 118.285156 23.90625 118.300781 23.964844 Z M 121.246094 37.882812 C 119.53125 40.335938 117.058594 41.640625 117.03125 41.65625 C 116.976562 41.683594 116.957031 41.75 116.984375 41.804688 C 117.003906 41.84375 117.042969 41.863281 117.082031 41.863281 C 117.101562 41.863281 117.117188 41.859375 117.132812 41.851562 C 117.15625 41.839844 119.679688 40.507812 121.425781 38.011719 C 121.460938 37.960938 121.449219 37.890625 121.398438 37.855469 C 121.351562 37.820312 121.28125 37.832031 121.246094 37.882812 Z M 125.25 28.675781 C 125.242188 28.617188 125.1875 28.574219 125.128906 28.582031 C 125.066406 28.589844 125.023438 28.644531 125.03125 28.703125 C 125.035156 28.722656 125.226562 30.289062 124.488281 32.03125 C 123.738281 33.808594 123.113281 35.195312 123.109375 35.207031 C 123.085938 35.261719 123.109375 35.328125 123.164062 35.351562 C 123.179688 35.359375 123.195312 35.363281 123.207031 35.363281 C 123.25 35.363281 123.292969 35.339844 123.308594 35.296875 C 123.316406 35.285156 123.9375 33.894531 124.691406 32.117188 C 125.453125 30.316406 125.257812 28.742188 125.25 28.675781 Z M 71.5625 59.125 C 71.53125 59.128906 68.121094 59.339844 65.589844 59.445312 C 63.066406 59.550781 61.066406 59.351562 61.03125 59.347656 C 60.96875 59.34375 60.914062 59.382812 60.910156 59.445312 C 60.90625 59.507812 60.949219 59.558594 61.007812 59.566406 C 61.039062 59.566406 62.121094 59.6875 64.460938 59.6875 C 64.851562 59.6875 65.234375 59.679688 65.597656 59.664062 C 68.128906 59.558594 71.542969 59.347656 71.574219 59.34375 C 71.636719 59.339844 71.683594 59.289062 71.679688 59.226562 C 71.675781 59.167969 71.621094 59.117188 71.5625 59.125 Z M 58.140625 63.773438 C 58.046875 62.175781 57.777344 61.128906 57.496094 60.023438 C 57.316406 59.308594 57.128906 58.574219 56.984375 57.660156 C 56.808594 56.550781 56.449219 55.371094 56.101562 54.230469 C 55.722656 52.992188 55.332031 51.707031 55.195312 50.558594 C 54.988281 48.820312 54.59375 47.167969 54.300781 45.964844 C 54.226562 45.640625 54.15625 45.351562 54.101562 45.109375 C 54.089844 45.050781 54.027344 45.011719 53.96875 45.023438 C 53.910156 45.039062 53.875 45.097656 53.886719 45.15625 C 53.941406 45.398438 54.011719 45.691406 54.085938 46.015625 C 54.375 47.214844 54.769531 48.855469 54.972656 50.585938 C 55.113281 51.753906 55.507812 53.046875 55.886719 54.296875 C 56.230469 55.429688 56.589844 56.601562 56.761719 57.695312 C 56.90625 58.617188 57.097656 59.359375 57.28125 60.078125 C 57.558594 61.171875 57.824219 62.210938 57.917969 63.789062 C 57.933594 64.042969 57.949219 64.289062 57.964844 64.53125 C 58.109375 66.828125 58.222656 68.640625 57.660156 70.859375 C 57.1875 72.699219 56.558594 73.425781 55.605469 74.53125 C 55.300781 74.882812 54.953125 75.285156 54.578125 75.765625 C 53.070312 77.6875 51.933594 79.089844 51.921875 79.105469 C 51.882812 79.152344 51.890625 79.222656 51.9375 79.261719 C 51.957031 79.277344 51.980469 79.285156 52.007812 79.285156 C 52.039062 79.285156 52.070312 79.273438 52.089844 79.246094 C 52.105469 79.230469 53.242188 77.828125 54.75 75.902344 C 55.121094 75.425781 55.464844 75.027344 55.769531 74.675781 C 56.710938 73.589844 57.386719 72.804688 57.871094 70.914062 C 58.445312 68.660156 58.332031 66.832031 58.183594 64.515625 C 58.171875 64.273438 58.15625 64.027344 58.140625 63.773438 Z M 53.667969 70.667969 C 53.609375 70.6875 53.578125 70.75 53.597656 70.808594 C 53.613281 70.851562 53.96875 71.867188 54.511719 72.449219 C 54.53125 72.472656 54.5625 72.484375 54.59375 72.484375 C 54.617188 72.484375 54.648438 72.472656 54.667969 72.453125 C 54.710938 72.410156 54.714844 72.339844 54.671875 72.296875 C 54.164062 71.75 53.808594 70.746094 53.808594 70.734375 C 53.785156 70.679688 53.722656 70.648438 53.667969 70.667969 Z M 56.046875 95.859375 C 55.746094 95.625 55.472656 95.144531 55.46875 95.140625 C 55.4375 95.089844 55.371094 95.070312 55.320312 95.101562 C 55.265625 95.132812 55.246094 95.199219 55.277344 95.25 C 55.289062 95.273438 55.578125 95.773438 55.910156 96.03125 C 56.140625 96.210938 55.980469 96.460938 55.960938 96.484375 C 55.925781 96.535156 55.9375 96.605469 55.988281 96.640625 C 56.003906 96.652344 56.027344 96.660156 56.050781 96.660156 C 56.082031 96.660156 56.117188 96.644531 56.140625 96.613281 C 56.246094 96.460938 56.367188 96.105469 56.046875 95.859375 Z M 56.390625 95.421875 C 56.335938 95.390625 56.269531 95.410156 56.238281 95.460938 C 56.210938 95.511719 56.226562 95.578125 56.277344 95.613281 C 56.292969 95.621094 56.652344 95.839844 56.652344 96.371094 C 56.652344 96.433594 56.699219 96.484375 56.761719 96.484375 C 56.824219 96.484375 56.875 96.433594 56.875 96.371094 C 56.871094 95.710938 56.410156 95.433594 56.390625 95.421875 Z M 57.039062 95.339844 C 56.980469 95.324219 56.921875 95.355469 56.902344 95.414062 C 56.886719 95.476562 56.921875 95.535156 56.980469 95.550781 C 57.003906 95.558594 57.527344 95.710938 57.421875 96.167969 C 57.40625 96.226562 57.445312 96.289062 57.503906 96.300781 C 57.511719 96.300781 57.519531 96.300781 57.53125 96.300781 C 57.582031 96.300781 57.625 96.265625 57.636719 96.214844 C 57.757812 95.683594 57.296875 95.410156 57.039062 95.339844 Z M 44.800781 91.5625 C 44.738281 91.566406 44.695312 91.621094 44.699219 91.683594 C 44.699219 91.6875 44.765625 92.363281 44.574219 92.683594 C 44.542969 92.738281 44.558594 92.804688 44.609375 92.835938 C 44.628906 92.847656 44.648438 92.851562 44.667969 92.851562 C 44.707031 92.851562 44.742188 92.835938 44.761719 92.796875 C 44.992188 92.414062 44.921875 91.695312 44.921875 91.660156 C 44.914062 91.601562 44.863281 91.554688 44.800781 91.5625 Z M 44.289062 91.988281 C 44.230469 91.980469 44.175781 92.023438 44.167969 92.085938 C 44.148438 92.234375 44.070312 92.65625 43.96875 92.816406 C 43.933594 92.867188 43.949219 92.9375 44 92.96875 C 44.019531 92.980469 44.039062 92.988281 44.058594 92.988281 C 44.097656 92.988281 44.132812 92.96875 44.152344 92.9375 C 44.300781 92.707031 44.378906 92.171875 44.386719 92.113281 C 44.394531 92.054688 44.351562 91.996094 44.289062 91.988281 Z M 43.621094 92.027344 C 43.5625 92.03125 43.515625 92.085938 43.527344 92.148438 C 43.527344 92.148438 43.554688 92.4375 43.429688 92.691406 C 43.402344 92.746094 43.425781 92.8125 43.480469 92.839844 C 43.496094 92.847656 43.511719 92.851562 43.527344 92.851562 C 43.566406 92.851562 43.605469 92.828125 43.625 92.789062 C 43.78125 92.480469 43.746094 92.136719 43.746094 92.121094 C 43.738281 92.0625 43.683594 92.019531 43.621094 92.027344 Z M 43.066406 92.03125 C 43.007812 92.046875 42.980469 92.109375 42.996094 92.167969 C 42.996094 92.171875 43.089844 92.457031 42.964844 92.730469 C 42.941406 92.785156 42.964844 92.851562 43.019531 92.875 C 43.035156 92.882812 43.050781 92.886719 43.066406 92.886719 C 43.109375 92.886719 43.148438 92.863281 43.167969 92.820312 C 43.324219 92.464844 43.210938 92.117188 43.207031 92.101562 C 43.1875 92.042969 43.125 92.007812 43.066406 92.03125 Z M 52.292969 93.351562 C 51.867188 93.140625 51.890625 92.539062 51.890625 92.53125 C 51.894531 92.472656 51.847656 92.417969 51.785156 92.417969 C 51.726562 92.421875 51.671875 92.460938 51.671875 92.523438 C 51.667969 92.550781 51.636719 93.273438 52.195312 93.554688 C 52.210938 93.5625 52.226562 93.566406 52.242188 93.566406 C 52.285156 93.566406 52.324219 93.542969 52.34375 93.503906 C 52.367188 93.445312 52.347656 93.382812 52.292969 93.351562 Z M 61.824219 43.851562 C 61.8125 43.632812 61.800781 43.390625 61.785156 43.109375 C 61.738281 42.15625 61.503906 41.480469 61.261719 40.765625 C 61.136719 40.402344 61.007812 40.023438 60.894531 39.59375 C 60.558594 38.296875 59.773438 37.179688 59.738281 37.132812 C 59.703125 37.085938 59.632812 37.074219 59.585938 37.109375 C 59.535156 37.140625 59.523438 37.214844 59.558594 37.261719 C 59.566406 37.273438 60.355469 38.390625 60.683594 39.648438 C 60.796875 40.085938 60.925781 40.46875 61.050781 40.835938 C 61.289062 41.535156 61.515625 42.199219 61.5625 43.117188 C 61.578125 43.398438 61.589844 43.644531 61.605469 43.863281 C 61.65625 44.746094 61.683594 45.191406 61.589844 45.949219 C 61.523438 46.488281 61.550781 47.121094 61.585938 47.792969 C 61.613281 48.308594 61.640625 48.84375 61.617188 49.328125 C 61.613281 49.390625 61.660156 49.441406 61.722656 49.445312 C 61.722656 49.445312 61.726562 49.445312 61.726562 49.445312 C 61.789062 49.445312 61.835938 49.398438 61.835938 49.339844 C 61.863281 48.84375 61.832031 48.304688 61.808594 47.78125 C 61.773438 47.121094 61.742188 46.5 61.808594 45.976562 C 61.90625 45.199219 61.875 44.722656 61.824219 43.851562 Z M 62.800781 45.789062 C 62.746094 45.816406 62.71875 45.878906 62.746094 45.933594 C 62.746094 45.941406 63.039062 46.585938 62.953125 47.3125 L 62.933594 47.441406 C 62.816406 48.371094 62.761719 48.953125 62.96875 49.183594 C 62.992188 49.210938 63.023438 49.222656 63.050781 49.222656 C 63.078125 49.222656 63.105469 49.210938 63.128906 49.195312 C 63.171875 49.152344 63.175781 49.082031 63.136719 49.039062 C 62.980469 48.867188 63.078125 48.089844 63.15625 47.46875 L 63.171875 47.335938 C 63.269531 46.550781 62.960938 45.871094 62.945312 45.84375 C 62.917969 45.789062 62.855469 45.765625 62.800781 45.789062 Z M 62.128906 46.027344 C 62.074219 46.054688 62.050781 46.121094 62.074219 46.175781 C 62.078125 46.179688 62.371094 46.824219 62.304688 47.457031 C 62.289062 47.59375 62.269531 47.730469 62.253906 47.863281 C 62.179688 48.40625 62.109375 48.914062 62.320312 49.273438 C 62.339844 49.308594 62.375 49.328125 62.414062 49.328125 C 62.433594 49.328125 62.453125 49.324219 62.472656 49.3125 C 62.523438 49.28125 62.542969 49.210938 62.511719 49.160156 C 62.339844 48.871094 62.40625 48.394531 62.472656 47.894531 C 62.488281 47.757812 62.511719 47.617188 62.523438 47.480469 C 62.597656 46.785156 62.289062 46.109375 62.273438 46.082031 C 62.25 46.027344 62.183594 46.003906 62.128906 46.027344 Z M 63.914062 47.234375 C 63.789062 47.257812 63.773438 47.261719 63.632812 46.726562 L 63.609375 46.632812 C 63.46875 46.085938 63.332031 45.566406 62.800781 45.289062 C 62.347656 45.050781 62.164062 44.359375 62.160156 44.355469 C 62.144531 44.296875 62.085938 44.261719 62.027344 44.277344 C 61.96875 44.292969 61.933594 44.351562 61.949219 44.410156 C 61.957031 44.441406 62.160156 45.203125 62.699219 45.484375 C 63.144531 45.71875 63.261719 46.171875 63.398438 46.691406 L 63.421875 46.78125 C 63.539062 47.246094 63.597656 47.464844 63.851562 47.464844 C 63.882812 47.464844 63.917969 47.457031 63.953125 47.453125 C 64.015625 47.441406 64.054688 47.386719 64.042969 47.324219 C 64.03125 47.265625 63.976562 47.226562 63.914062 47.234375 Z M 53.523438 34.835938 C 53.546875 34.835938 53.570312 34.828125 53.589844 34.8125 C 53.609375 34.800781 54.066406 34.464844 54.066406 33.960938 C 54.066406 33.898438 54.015625 33.847656 53.953125 33.847656 C 53.894531 33.847656 53.84375 33.894531 53.84375 33.960938 C 53.84375 34.351562 53.460938 34.632812 53.457031 34.636719 C 53.410156 34.671875 53.398438 34.742188 53.433594 34.789062 C 53.457031 34.816406 53.492188 34.835938 53.523438 34.835938 Z M 48.660156 23.433594 C 48.011719 23.683594 47.59375 24.335938 47.578125 24.363281 C 47.542969 24.417969 47.558594 24.484375 47.609375 24.515625 C 47.628906 24.527344 47.648438 24.53125 47.667969 24.53125 C 47.707031 24.53125 47.742188 24.515625 47.761719 24.480469 C 47.765625 24.480469 47.8125 24.40625 47.898438 24.300781 C 47.964844 24.816406 47.914062 25.285156 47.855469 25.816406 C 47.824219 26.085938 47.792969 26.359375 47.777344 26.660156 C 47.773438 26.722656 47.820312 26.777344 47.878906 26.78125 C 47.882812 26.78125 47.882812 26.78125 47.886719 26.78125 C 47.945312 26.78125 47.992188 26.734375 47.996094 26.675781 C 48.011719 26.382812 48.042969 26.109375 48.074219 25.84375 C 48.136719 25.273438 48.195312 24.734375 48.09375 24.125 C 48.09375 24.113281 48.089844 24.105469 48.082031 24.09375 C 48.25 23.925781 48.476562 23.742188 48.738281 23.640625 C 48.796875 23.617188 48.824219 23.554688 48.800781 23.496094 C 48.785156 23.4375 48.71875 23.410156 48.660156 23.433594 Z M 42.402344 24.789062 C 42.394531 24.726562 42.339844 24.683594 42.28125 24.6875 C 42.21875 24.695312 42.175781 24.75 42.179688 24.808594 C 42.183594 24.824219 42.339844 26.273438 42.875 27.984375 C 43.402344 29.667969 43.65625 30.5625 43.65625 31.09375 C 43.65625 31.15625 43.703125 31.207031 43.765625 31.207031 C 43.828125 31.207031 43.878906 31.15625 43.878906 31.09375 C 43.878906 30.53125 43.621094 29.621094 43.089844 27.917969 C 42.558594 26.226562 42.402344 24.800781 42.402344 24.789062 Z M 46.890625 31.59375 C 46.835938 31.574219 46.769531 31.605469 46.753906 31.664062 C 46.128906 33.480469 44.507812 34.339844 44.492188 34.347656 C 44.4375 34.375 44.417969 34.441406 44.445312 34.496094 C 44.46875 34.535156 44.503906 34.558594 44.542969 34.558594 C 44.558594 34.558594 44.578125 34.554688 44.59375 34.542969 C 44.664062 34.507812 46.308594 33.640625 46.960938 31.734375 C 46.980469 31.675781 46.949219 31.613281 46.890625 31.59375 Z M 57.335938 31.425781 C 57.359375 31.367188 57.332031 31.300781 57.277344 31.277344 C 57.222656 31.253906 57.15625 31.28125 57.132812 31.335938 L 56.710938 32.308594 C 56.695312 32.339844 56.699219 32.375 56.714844 32.40625 C 56.722656 32.417969 57.328125 33.484375 57.871094 34.789062 C 57.890625 34.832031 57.929688 34.855469 57.972656 34.855469 C 57.988281 34.855469 58 34.855469 58.015625 34.847656 C 58.070312 34.824219 58.097656 34.757812 58.074219 34.703125 C 57.59375 33.546875 57.058594 32.570312 56.933594 32.347656 Z M 57.335938 31.425781 "/></g></svg>