<?xml version="1.0" encoding="UTF-8"?><svg xmlns="http://www.w3.org/2000/svg" xmlns:xlink="http://www.w3.org/1999/xlink" width="151.5pt" zoomAndPan="magnify" viewBox="0 0 151.5 100.499997" height="100.499997pt" preserveAspectRatio="xMidYMid meet" version="1.2"><defs><clipPath xml:id="clip1" id="clip1"><path d="M 2.671875 46.792969 L 148.433594 46.792969 L 148.433594 100.003906 L 2.671875 100.003906 Z M 2.671875 46.792969 "/></clipPath><clipPath xml:id="clip2" id="clip2"><path d="M 2.5625 79 L 24 79 L 24 89 L 2.5625 89 Z M 2.5625 79 "/></clipPath><clipPath xml:id="clip3" id="clip3"><path d="M 44.109375 82.082031 L 134.597656 82.082031 L 134.597656 100.003906 L 44.109375 100.003906 Z M 44.109375 82.082031 "/></clipPath><clipPath xml:id="clip4" id="clip4"><path d="M 129.359375 65 L 148.433594 65 L 148.433594 78.746094 L 129.359375 78.746094 Z M 129.359375 65 "/></clipPath></defs><g xml:id="surface1" id="surface1"><path style=" stroke:none;fill-rule:nonzero;fill:rgb(94.119263%,61.178589%,37.649536%);fill-opacity:1;" d="M 77.316406 26.339844 C 77.316406 26.339844 76.320312 27.46875 74.910156 31.046875 C 73.503906 34.625 69.394531 44.722656 65.640625 47.429688 C 61.886719 50.132812 67.242188 49.875 67.242188 49.875 C 67.242188 49.875 74.148438 45.257812 77.726562 33.683594 C 81.304688 22.109375 77.316406 26.339844 77.316406 26.339844 "/><g clip-rule="nonzero" clip-path="url(#clip1)"><path style=" stroke:none;fill-rule:nonzero;fill:rgb(62.348938%,79.998779%,89.019775%);fill-opacity:1;" d="M 20.484375 69.925781 C 15.226562 70.832031 1.457031 73.101562 2.757812 81.820312 C 4.253906 91.84375 26.390625 85.269531 23.730469 90.535156 C 21.066406 95.796875 24.703125 95.929688 33.535156 95.539062 C 42.363281 95.148438 47.796875 94.367188 44.660156 99.308594 C 41.519531 104.25 73.785156 102.402344 97.675781 97.226562 C 122.511719 91.84375 140.273438 83.816406 132.929688 81.953125 C 125.964844 80.183594 129.554688 76.816406 137.734375 74.085938 C 145.914062 71.355469 150.394531 67.542969 147.601562 64.226562 C 146.230469 62.597656 141.726562 63.160156 137.890625 63.722656 C 133.917969 64.304688 130.660156 64.886719 132.34375 63.035156 C 135.65625 59.394531 146.109375 56.011719 143.898438 52.566406 C 142.828125 50.886719 137.808594 51.972656 133.484375 53.058594 C 128.929688 54.203125 125.140625 55.347656 127.539062 53.257812 C 132.214844 49.191406 133.726562 45 123.214844 47.921875 C 112.65625 50.855469 46.367188 65.457031 20.484375 69.925781 "/></g><path style=" stroke:none;fill-rule:nonzero;fill:rgb(79.219055%,89.019775%,94.119263%);fill-opacity:1;" d="M 132.988281 62.40625 C 132.988281 62.40625 132.992188 62.402344 132.992188 62.398438 C 134.429688 61.128906 136.609375 59.886719 138.664062 58.660156 C 136.605469 59.890625 134.421875 61.132812 132.988281 62.40625 "/><path style=" stroke:none;fill-rule:nonzero;fill:rgb(49.409485%,70.979309%,83.529663%);fill-opacity:1;" d="M 132.992188 62.398438 C 134.273438 60.667969 136.121094 59.121094 137.148438 58.410156 C 140.929688 55.796875 142.421875 55.410156 143.933594 52.625 C 145.136719 54.636719 142.070312 56.625 138.664062 58.660156 C 136.609375 59.886719 134.429688 61.128906 132.992188 62.398438 "/><path style=" stroke:none;fill-rule:nonzero;fill:rgb(79.219055%,89.019775%,94.119263%);fill-opacity:1;" d="M 23.566406 88.984375 C 21.023438 86.90625 6.511719 89.964844 3.304688 83.585938 C 6.511719 89.960938 21.015625 86.90625 23.566406 88.980469 C 23.566406 88.980469 23.566406 88.984375 23.566406 88.984375 M 3.304688 83.578125 C 3.300781 83.578125 3.300781 83.578125 3.300781 83.574219 C 3.300781 83.578125 3.300781 83.578125 3.304688 83.578125 M 3.300781 83.570312 C 3.296875 83.566406 3.296875 83.566406 3.296875 83.566406 C 3.296875 83.566406 3.296875 83.566406 3.300781 83.570312 M 3.292969 83.558594 C 3.292969 83.554688 3.292969 83.554688 3.292969 83.554688 C 3.292969 83.554688 3.292969 83.554688 3.292969 83.558594 "/><g clip-rule="nonzero" clip-path="url(#clip2)"><path style=" stroke:none;fill-rule:nonzero;fill:rgb(49.409485%,70.979309%,83.529663%);fill-opacity:1;" d="M 23.566406 88.980469 C 21.015625 86.90625 6.511719 89.960938 3.304688 83.585938 C 3.304688 83.582031 3.304688 83.582031 3.304688 83.578125 C 3.300781 83.578125 3.300781 83.578125 3.300781 83.574219 C 3.300781 83.574219 3.300781 83.570312 3.300781 83.570312 C 3.296875 83.566406 3.296875 83.566406 3.296875 83.566406 C 3.296875 83.5625 3.292969 83.558594 3.292969 83.558594 C 3.292969 83.554688 3.292969 83.554688 3.292969 83.554688 C 3.035156 83.039062 2.855469 82.464844 2.757812 81.820312 C 2.652344 81.09375 2.65625 80.414062 2.746094 79.773438 C 2.75 79.832031 2.746094 79.882812 2.757812 79.9375 C 4.910156 87.433594 23.503906 87.414062 23.566406 88.980469 "/></g><path style=" stroke:none;fill-rule:nonzero;fill:rgb(49.409485%,70.979309%,83.529663%);fill-opacity:1;" d="M 128.488281 52.390625 C 129.589844 50.601562 129.207031 51.222656 129.988281 49.824219 C 130.621094 48.683594 130.621094 48.683594 130.824219 47.539062 C 131.695312 48.472656 130.558594 50.382812 128.488281 52.390625 "/><path style=" stroke:none;fill-rule:nonzero;fill:rgb(79.219055%,89.019775%,94.119263%);fill-opacity:1;" d="M 44.449219 99.863281 C 44.464844 99.6875 44.535156 99.503906 44.660156 99.308594 C 44.753906 99.15625 44.84375 99.007812 44.921875 98.867188 C 44.84375 99.007812 44.753906 99.15625 44.660156 99.308594 C 44.535156 99.503906 44.464844 99.6875 44.449219 99.863281 "/><g clip-rule="nonzero" clip-path="url(#clip3)"><path style=" stroke:none;fill-rule:nonzero;fill:rgb(49.409485%,70.979309%,83.529663%);fill-opacity:1;" d="M 55.410156 102.203125 C 48.671875 102.203125 44.296875 101.480469 44.449219 99.863281 C 44.464844 99.6875 44.535156 99.503906 44.660156 99.308594 C 44.753906 99.15625 44.84375 99.007812 44.921875 98.867188 C 46.214844 99.863281 50.074219 100.316406 55.417969 100.316406 C 66.339844 100.316406 83.484375 98.417969 97.675781 95.34375 C 116.441406 91.277344 131.164062 85.699219 134.074219 82.410156 C 137.839844 84.886719 120.835938 92.207031 97.675781 97.226562 C 83.484375 100.300781 66.335938 102.203125 55.410156 102.203125 "/></g><path style=" stroke:none;fill-rule:nonzero;fill:rgb(79.219055%,89.019775%,94.119263%);fill-opacity:1;" d="M 129.589844 78.472656 C 129.59375 78.464844 129.59375 78.460938 129.597656 78.453125 C 130.601562 77.027344 133.574219 75.476562 137.734375 74.085938 C 138.332031 73.886719 138.910156 73.679688 139.46875 73.46875 C 138.910156 73.679688 138.332031 73.886719 137.734375 74.085938 C 133.550781 75.484375 130.574219 77.042969 129.589844 78.472656 M 139.472656 73.46875 C 139.476562 73.46875 139.480469 73.464844 139.484375 73.464844 C 139.480469 73.464844 139.476562 73.46875 139.472656 73.46875 "/><g clip-rule="nonzero" clip-path="url(#clip4)"><path style=" stroke:none;fill-rule:nonzero;fill:rgb(49.409485%,70.979309%,83.529663%);fill-opacity:1;" d="M 129.597656 78.453125 C 130.332031 76.921875 132.90625 73.953125 139.007812 71.914062 C 144.785156 69.988281 147.4375 67.804688 148.265625 65.355469 C 149.25 68.128906 145.683594 71.117188 139.484375 73.464844 C 139.480469 73.464844 139.476562 73.46875 139.472656 73.46875 C 139.472656 73.46875 139.46875 73.46875 139.46875 73.46875 C 138.910156 73.679688 138.332031 73.886719 137.734375 74.085938 C 133.574219 75.476562 130.601562 77.027344 129.597656 78.453125 "/></g><path style=" stroke:none;fill-rule:nonzero;fill:rgb(79.219055%,89.019775%,94.119263%);fill-opacity:1;" d="M 45.523438 96.722656 C 45.382812 96.089844 44.796875 95.707031 43.882812 95.484375 C 44.816406 95.699219 45.390625 96.082031 45.523438 96.722656 M 32.835938 95.570312 C 33.0625 95.558594 33.296875 95.546875 33.535156 95.539062 C 33.296875 95.546875 33.0625 95.558594 32.835938 95.570312 "/><path style=" stroke:none;fill-rule:nonzero;fill:rgb(49.409485%,70.979309%,83.529663%);fill-opacity:1;" d="M 45.550781 96.90625 C 45.546875 96.839844 45.535156 96.78125 45.523438 96.722656 C 45.390625 96.082031 44.816406 95.699219 43.882812 95.484375 C 43.082031 95.292969 42.035156 95.222656 40.816406 95.222656 C 38.746094 95.222656 36.1875 95.421875 33.535156 95.539062 C 33.296875 95.546875 33.0625 95.558594 32.835938 95.570312 C 31.363281 95.628906 30.046875 95.671875 28.890625 95.671875 C 24.316406 95.671875 22.25 95.007812 23.042969 92.214844 C 23.609375 93.445312 25.597656 93.789062 28.886719 93.789062 C 30.222656 93.789062 31.777344 93.730469 33.535156 93.65625 C 34.890625 93.59375 36.136719 93.5625 37.273438 93.5625 C 42.871094 93.5625 45.757812 94.378906 45.550781 96.90625 "/><path style=" stroke:none;fill-rule:nonzero;fill:rgb(89.7995%,48.629761%,21.958923%);fill-opacity:1;" d="M 68.214844 58.238281 L 62.640625 61.910156 L 67.925781 65.585938 L 71.761719 61.53125 L 68.214844 58.238281 "/><path style=" stroke:none;fill-rule:nonzero;fill:rgb(28.239441%,84.709167%,59.21936%);fill-opacity:1;" d="M 77.183594 50.320312 L 67.242188 58.007812 L 68.75 61.765625 L 81.078125 52.210938 L 81.367188 50.320312 L 77.183594 50.320312 "/><path style=" stroke:none;fill-rule:nonzero;fill:rgb(96.469116%,88.62915%,29.40979%);fill-opacity:1;" d="M 25.726562 53.015625 C 25.726562 53.015625 23.539062 52.542969 22.363281 51.605469 C 21.191406 50.664062 18.0625 50.429688 16.105469 52.308594 C 14.148438 54.1875 16.339844 62.960938 24.554688 71.96875 C 32.769531 80.976562 53.109375 87.320312 72.277344 88.261719 C 91.441406 89.203125 108.261719 75.964844 113.035156 68.601562 C 117.804688 61.238281 122.1875 54.816406 119.527344 51.367188 C 118.089844 49.503906 112.378906 52.679688 102.984375 55.847656 C 95 58.546875 84.355469 61.242188 71.417969 60.847656 C 43.253906 59.984375 39.652344 54.894531 25.726562 53.015625 "/><path style=" stroke:none;fill-rule:nonzero;fill:rgb(59.999084%,70.979309%,26.269531%);fill-opacity:1;" d="M 73.957031 60.886719 C 73.117188 60.886719 72.273438 60.871094 71.417969 60.847656 C 71.28125 60.84375 71.144531 60.835938 71.011719 60.832031 C 71.144531 60.835938 71.28125 60.84375 71.417969 60.847656 C 72.273438 60.871094 73.117188 60.886719 73.957031 60.886719 C 74.871094 60.886719 75.773438 60.871094 76.664062 60.839844 C 75.773438 60.871094 74.871094 60.886719 73.957031 60.886719 M 76.679688 60.839844 C 76.683594 60.839844 76.6875 60.839844 76.691406 60.839844 C 76.6875 60.839844 76.683594 60.839844 76.679688 60.839844 M 76.710938 60.839844 C 76.714844 60.839844 76.71875 60.839844 76.722656 60.839844 C 76.71875 60.839844 76.714844 60.839844 76.710938 60.839844 M 76.75 60.835938 C 76.75 60.835938 76.75 60.835938 76.753906 60.835938 C 76.75 60.835938 76.75 60.835938 76.75 60.835938 "/><path style=" stroke:none;fill-rule:nonzero;fill:rgb(96.469116%,88.62915%,29.40979%);fill-opacity:1;" d="M 64.722656 60.539062 C 61.042969 60.304688 57.859375 59.988281 55.046875 59.617188 C 57.859375 59.988281 61.042969 60.304688 64.722656 60.539062 M 25.683594 53.003906 C 25.546875 52.972656 25.109375 52.867188 24.570312 52.6875 C 25.109375 52.867188 25.546875 52.972656 25.683594 53.003906 "/><path style=" stroke:none;fill-rule:nonzero;fill:rgb(86.669922%,43.139648%,6.269836%);fill-opacity:1;" d="M 71.011719 60.832031 C 70.671875 60.824219 70.332031 60.8125 70 60.796875 C 70.332031 60.8125 70.671875 60.824219 71.011719 60.832031 M 68.335938 60.730469 C 67.078125 60.675781 65.878906 60.613281 64.722656 60.539062 C 65.878906 60.613281 67.078125 60.675781 68.335938 60.730469 "/><path style=" stroke:none;fill-rule:nonzero;fill:rgb(27.059937%,74.899292%,17.248535%);fill-opacity:1;" d="M 70 60.796875 C 69.433594 60.777344 68.878906 60.753906 68.335938 60.730469 C 68.878906 60.753906 69.433594 60.777344 70 60.796875 "/><path style=" stroke:none;fill-rule:nonzero;fill:rgb(92.939758%,78.42865%,8.628845%);fill-opacity:1;" d="M 74.808594 66.9375 C 73.65625 66.9375 72.472656 66.917969 71.261719 66.878906 C 34.410156 65.703125 23.539062 54.265625 23.539062 54.265625 L 24.570312 52.6875 C 25.109375 52.867188 25.546875 52.972656 25.683594 53.003906 C 25.710938 53.011719 25.726562 53.015625 25.726562 53.015625 C 36.347656 54.449219 40.960938 57.75 55.046875 59.617188 C 57.859375 59.988281 61.042969 60.304688 64.722656 60.539062 C 65.878906 60.613281 67.078125 60.675781 68.335938 60.730469 C 68.878906 60.753906 69.433594 60.777344 70 60.796875 C 70.332031 60.8125 70.671875 60.824219 71.011719 60.832031 C 71.144531 60.835938 71.28125 60.84375 71.417969 60.847656 C 72.273438 60.871094 73.117188 60.886719 73.957031 60.886719 C 74.871094 60.886719 75.773438 60.871094 76.664062 60.839844 C 76.667969 60.839844 76.675781 60.839844 76.679688 60.839844 C 76.683594 60.839844 76.6875 60.839844 76.691406 60.839844 C 76.699219 60.839844 76.707031 60.839844 76.710938 60.839844 C 76.714844 60.839844 76.71875 60.839844 76.722656 60.839844 C 76.730469 60.839844 76.742188 60.839844 76.75 60.835938 C 76.75 60.835938 76.75 60.835938 76.753906 60.835938 C 95.945312 60.191406 109.410156 53.058594 115.757812 51.238281 C 114.308594 53.78125 105.347656 66.9375 74.808594 66.9375 "/><path style=" stroke:none;fill-rule:nonzero;fill:rgb(13.328552%,23.919678%,28.239441%);fill-opacity:1;" d="M 63.574219 90.59375 C 68.496094 90.679688 77.765625 91.425781 87.453125 88.835938 C 99.265625 85.679688 101.160156 82.464844 100.175781 80.273438 C 99.1875 78.078125 91.753906 83.953125 67.191406 83.484375 C 42.472656 83.011719 36.210938 73.378906 32.066406 77.21875 C 27.917969 81.054688 50.996094 90.378906 63.574219 90.59375 "/><path style=" stroke:none;fill-rule:nonzero;fill:rgb(89.7995%,48.629761%,21.958923%);fill-opacity:1;" d="M 49.28125 22.484375 C 49.28125 22.484375 50.660156 24.558594 50.425781 26.789062 C 50.191406 29.023438 55.863281 24.363281 55.863281 24.363281 L 53.359375 19.425781 C 53.359375 19.425781 52.023438 19.410156 51.953125 19.332031 C 51.886719 19.257812 49.28125 22.484375 49.28125 22.484375 "/><path style=" stroke:none;fill-rule:nonzero;fill:rgb(94.119263%,61.178589%,37.649536%);fill-opacity:1;" d="M 43.09375 15.117188 C 43.09375 15.117188 42.875 16.253906 43.773438 17.898438 C 44.671875 19.546875 44.945312 19.625 44.867188 20.917969 C 44.789062 22.207031 46.003906 21.074219 46.589844 22.367188 C 47.175781 23.65625 47.566406 23.734375 48.46875 23.5 C 49.367188 23.265625 52.574219 21.707031 52.535156 18.0625 C 52.496094 14.421875 47.175781 12.925781 46.980469 12.886719 C 46.785156 12.847656 43.0625 13.671875 43.09375 15.117188 "/><path style=" stroke:none;fill-rule:nonzero;fill:rgb(13.328552%,23.919678%,28.239441%);fill-opacity:1;" d="M 56.566406 52.992188 C 56.566406 52.992188 54.257812 44.296875 52.222656 42.339844 C 50.191406 40.382812 48.898438 40.339844 48.859375 37.324219 C 48.820312 34.308594 50.425781 26.789062 50.425781 26.789062 C 50.425781 26.789062 52.417969 24.597656 55.863281 24.011719 C 55.863281 24.011719 57.894531 26.4375 61.574219 33.839844 C 65.25 41.242188 68.027344 49.871094 67.675781 51.097656 C 67.320312 52.328125 62.628906 51.191406 59.070312 52.210938 C 59.070312 52.210938 57.035156 53.1875 56.566406 52.992188 "/><path style=" stroke:none;fill-rule:nonzero;fill:rgb(96.078491%,57.249451%,72.549438%);fill-opacity:1;" d="M 64.1875 51.730469 C 63.140625 46.066406 56.007812 28.625 56.007812 28.625 L 54.023438 38.34375 L 59.070312 52.210938 C 60.714844 51.738281 62.597656 51.726562 64.1875 51.730469 "/><path style=" stroke:none;fill-rule:nonzero;fill:rgb(21.569824%,74.899292%,50.979614%);fill-opacity:1;" d="M 68.457031 60 C 68.457031 60 77.257812 66.207031 77.882812 64.878906 C 78.511719 63.554688 72.371094 59.8125 72.371094 59.8125 L 68.457031 60 "/><path style=" stroke:none;fill-rule:nonzero;fill:rgb(13.328552%,23.919678%,28.239441%);fill-opacity:1;" d="M 55.109375 41.324219 C 55.109375 41.324219 59.121094 39.734375 60.054688 38.980469 L 60.585938 40.417969 C 60.585938 40.417969 58 42.5625 55.582031 42.628906 L 55.109375 41.324219 "/><path style=" stroke:none;fill-rule:nonzero;fill:rgb(13.328552%,23.919678%,28.239441%);fill-opacity:1;" d="M 57.5 47.898438 C 57.5 47.898438 61.464844 46.90625 62.4375 45.640625 L 63.023438 47.429688 C 63.023438 47.429688 58.675781 50.042969 57.933594 49.089844 L 57.5 47.898438 "/><path style=" stroke:none;fill-rule:nonzero;fill:rgb(94.119263%,61.178589%,37.649536%);fill-opacity:1;" d="M 56.566406 52.992188 C 56.566406 52.992188 55.46875 55.539062 54.023438 56.910156 C 52.574219 58.28125 45.496094 63.527344 45.613281 65.214844 C 45.730469 66.898438 62.152344 80.941406 62.152344 80.941406 C 62.152344 80.941406 62.777344 81.605469 62.621094 82.039062 C 62.464844 82.46875 58.082031 83.976562 58.28125 84.5625 C 58.480469 85.148438 61.179688 84.785156 62.785156 84.261719 C 64.390625 83.738281 65.640625 83.644531 65.640625 82.367188 C 65.640625 81.664062 65.328125 82.25 63.917969 79.902344 C 62.511719 77.550781 57.574219 69.660156 54.285156 67.507812 C 51 65.351562 55.820312 64.277344 56.867188 63.945312 C 59.601562 63.074219 66.65625 61.179688 68.417969 58.789062 C 70.175781 56.398438 68.570312 51.945312 67.242188 51.097656 C 65.914062 50.25 57.808594 50.699219 56.566406 52.992188 "/><path style=" stroke:none;fill-rule:nonzero;fill:rgb(78.039551%,91.758728%,98.429871%);fill-opacity:1;" d="M 67.242188 51.097656 C 65.914062 50.25 57.808594 50.699219 56.566406 52.992188 C 56.566406 52.992188 56.0625 54.160156 55.289062 55.339844 C 56.96875 54.894531 60 54.203125 62.433594 54.285156 C 65.613281 54.390625 67.789062 56.191406 68.382812 58.828125 L 68.417969 58.789062 C 70.175781 56.398438 68.570312 51.945312 67.242188 51.097656 "/><path style=" stroke:none;fill-rule:nonzero;fill:rgb(94.119263%,61.178589%,37.649536%);fill-opacity:1;" d="M 69.453125 59.8125 C 69.453125 59.8125 67.871094 60.523438 67.929688 61.96875 C 67.988281 63.410156 81.078125 79.390625 81.078125 79.390625 C 81.078125 79.390625 82.433594 80.570312 81.078125 81.683594 C 79.722656 82.800781 77.554688 83.375 77.730469 84.261719 C 77.902344 85.148438 83.507812 83.828125 85.40625 81.507812 C 86.703125 79.917969 84.355469 81.273438 82.773438 75.925781 C 81.1875 70.578125 78.507812 67.054688 75.515625 63.765625 L 77.394531 63 L 73.796875 60.472656 L 69.453125 59.8125 "/><path style=" stroke:none;fill-rule:nonzero;fill:rgb(32.548523%,91.369629%,67.059326%);fill-opacity:1;" d="M 81.078125 50.640625 C 81.078125 50.640625 69.042969 58.113281 68.457031 60 C 68.457031 60 75.925781 62.238281 77.882812 64.878906 C 77.882812 64.878906 84.355469 61.167969 87.054688 60 C 89.757812 58.828125 92.917969 56.886719 93.332031 53.832031 C 93.746094 50.78125 81.078125 50.640625 81.078125 50.640625 "/><path style=" stroke:none;fill-rule:nonzero;fill:rgb(94.119263%,61.178589%,37.649536%);fill-opacity:1;" d="M 52.222656 38.03125 L 52.222656 44.6875 L 45.652344 55.175781 C 45.652344 55.175781 43.78125 56.597656 43.09375 57.144531 C 42.40625 57.691406 43.910156 57.492188 44.664062 56.949219 C 45.417969 56.40625 43.5 58.789062 42.050781 58.984375 C 40.605469 59.179688 42.6875 60.894531 44.867188 59.378906 C 47.050781 57.859375 46.148438 56.792969 46.898438 56.085938 C 47.644531 55.382812 55.824219 47.703125 56.410156 44.453125 C 56.996094 41.203125 58.054688 26.792969 54.023438 26.789062 C 50.894531 26.789062 52.222656 34.507812 52.222656 38.03125 "/><path style=" stroke:none;fill-rule:nonzero;fill:rgb(89.7995%,48.629761%,21.958923%);fill-opacity:1;" d="M 82.65625 19.332031 C 82.65625 19.332031 83.769531 23.402344 81.1875 24.34375 C 78.605469 25.28125 83.59375 33.683594 83.59375 33.683594 L 90.050781 24.011719 C 90.050781 24.011719 86.457031 24.394531 88.105469 17.496094 C 89.757812 10.59375 82.65625 19.332031 82.65625 19.332031 "/><path style=" stroke:none;fill-rule:nonzero;fill:rgb(94.119263%,61.178589%,37.649536%);fill-opacity:1;" d="M 80.410156 13.226562 C 80.410156 13.226562 80.644531 15.34375 80.351562 16.691406 C 80.054688 18.039062 80.808594 21.300781 83.613281 21.78125 C 86.414062 22.265625 88.320312 18.347656 88.347656 16.9375 C 88.371094 15.53125 89.035156 11.539062 89.035156 11.539062 L 86.316406 9.378906 L 83.449219 9.4375 C 83.449219 9.4375 79.90625 11.105469 79.902344 11.269531 C 79.902344 11.433594 80.410156 13.226562 80.410156 13.226562 "/><path style=" stroke:none;fill-rule:nonzero;fill:rgb(22.749329%,9.408569%,5.488586%);fill-opacity:1;" d="M 80.496094 14.667969 C 80.496094 14.667969 79.320312 13.667969 79.566406 12.035156 C 79.808594 10.402344 79.683594 8.34375 80.945312 7.230469 L 80.933594 8.039062 C 80.933594 8.039062 81.9375 6.269531 83.953125 5.441406 L 84.875 5.132812 C 84.875 5.132812 84.097656 6.308594 84.851562 6.539062 C 85.605469 6.769531 88.875 5.203125 88.875 5.203125 C 88.875 5.203125 88.039062 6.015625 88.023438 7.097656 C 88.003906 8.179688 88.855469 8.820312 89.503906 8.722656 C 90.15625 8.625 90.890625 10.433594 90.113281 11.613281 C 89.335938 12.789062 90.304688 13.074219 90.175781 14.265625 C 90.046875 15.453125 87.910156 19.632812 87.542969 19.277344 C 87.175781 18.921875 88.667969 14.9375 88.304688 13.472656 C 87.945312 12.003906 87.207031 11.125 85.257812 11.199219 C 83.308594 11.273438 80.234375 9.914062 80.496094 14.667969 "/><path style=" stroke:none;fill-rule:nonzero;fill:rgb(94.119263%,61.178589%,37.649536%);fill-opacity:1;" d="M 92.808594 23.363281 C 92.808594 23.363281 99.144531 15.863281 100.960938 12.875 C 102.78125 9.890625 105.539062 4.835938 106.242188 2.195312 C 106.949219 -0.449219 107.421875 -2.964844 107.714844 -2.976562 C 108.242188 -2.996094 107.644531 -0.871094 108.179688 -1.039062 C 109.4375 -1.429688 110.410156 -5.621094 111.113281 -5.148438 C 111.816406 -4.679688 112.136719 -0.292969 109.765625 1.664062 C 108.125 3.015625 108.726562 3.046875 107.535156 6.070312 C 106.382812 8.980469 105.015625 13.269531 103.886719 15.367188 C 101.820312 19.191406 94.683594 27.398438 94.800781 29.984375 C 94.917969 32.566406 94.832031 36.621094 94.832031 36.621094 L 91.515625 29.695312 L 92.808594 23.363281 "/><path style=" stroke:none;fill-rule:nonzero;fill:rgb(100%,34.899902%,25.489807%);fill-opacity:1;" d="M 81.808594 24.011719 C 81.808594 24.011719 82.035156 28.527344 84.621094 28.398438 C 87.210938 28.265625 88.484375 23.363281 88.484375 23.363281 L 92.925781 23.082031 C 92.925781 23.082031 92.335938 32.722656 94.449219 33.085938 L 94.917969 33 C 94.917969 33 94.683594 39.300781 94.917969 43.394531 C 95.152344 47.492188 96.269531 52.894531 94.039062 54.246094 C 91.808594 55.597656 93.277344 53.4375 86.46875 51.960938 C 79.664062 50.484375 76.613281 51.101562 77.199219 49.882812 C 77.785156 48.667969 78.667969 44.320312 78.316406 39.851562 C 77.964844 35.386719 77.550781 30.863281 77.550781 30.863281 C 77.550781 30.863281 76.699219 27.46875 77.59375 26.082031 C 78.488281 24.695312 81.808594 24.011719 81.808594 24.011719 "/><path style=" stroke:none;fill-rule:nonzero;fill:rgb(13.328552%,23.919678%,28.239441%);fill-opacity:1;" d="M 80.238281 50.960938 C 81.757812 51.132812 83.828125 51.390625 86.46875 51.960938 C 87.390625 52.160156 88.152344 52.371094 88.800781 52.585938 C 88.691406 48.5 88.347656 30.503906 90.585938 23.234375 L 88.484375 23.363281 C 88.484375 23.363281 87.210938 28.265625 84.621094 28.398438 C 82.035156 28.527344 81.808594 24.011719 81.808594 24.011719 C 81.808594 24.011719 81.085938 24.160156 80.226562 24.460938 C 80.527344 27.273438 81.160156 33.746094 81.070312 37.570312 C 80.984375 41.179688 80.503906 47.65625 80.238281 50.960938 "/><path style=" stroke:none;fill-rule:nonzero;fill:rgb(13.328552%,23.919678%,28.239441%);fill-opacity:1;" d="M 93.042969 23.082031 L 91.816406 23.15625 C 91.667969 26.019531 91.429688 35.5 94.855469 35.214844 C 94.886719 33.886719 94.917969 33 94.917969 33 L 94.449219 33.085938 C 92.335938 32.722656 93.042969 23.082031 93.042969 23.082031 "/><path style=" stroke:none;fill-rule:nonzero;fill:rgb(13.328552%,23.919678%,28.239441%);fill-opacity:1;" d="M 78.488281 29.160156 C 78.292969 27.660156 78.058594 26.566406 77.835938 25.785156 C 77.746094 25.878906 77.230469 26.042969 77.183594 26.160156 C 76.855469 27 77.550781 30.863281 77.550781 30.863281 C 77.550781 30.863281 77.71875 32.695312 77.929688 35.175781 C 78.367188 33.550781 78.769531 31.3125 78.488281 29.160156 "/><path style=" stroke:none;fill-rule:nonzero;fill:rgb(13.328552%,23.919678%,28.239441%);fill-opacity:1;" d="M 88.863281 37.570312 C 88.863281 37.570312 93.980469 38.089844 94.917969 37.089844 C 94.917969 37.089844 95.507812 39.117188 94.917969 39.570312 C 94.332031 40.027344 89.324219 40.117188 88.863281 39.570312 C 88.40625 39.03125 88.863281 37.570312 88.863281 37.570312 "/><path style=" stroke:none;fill-rule:nonzero;fill:rgb(13.328552%,23.919678%,28.239441%);fill-opacity:1;" d="M 88.171875 46.488281 C 88.171875 46.488281 95.136719 47.101562 95.179688 46.164062 C 95.222656 45.222656 96.125 48.734375 95.40625 48.90625 C 94.683594 49.074219 88.320312 48.289062 88.320312 48.289062 L 88.171875 46.488281 "/><path style=" stroke:none;fill-rule:nonzero;fill:rgb(13.328552%,23.919678%,28.239441%);fill-opacity:1;" d="M 81.070312 37.570312 C 81.070312 37.570312 78.144531 37.734375 77.882812 37.570312 C 77.59375 37.386719 77.453125 39.292969 77.882812 39.570312 C 78.316406 39.851562 81 39.570312 81 39.570312 L 81.070312 37.570312 "/><path style=" stroke:none;fill-rule:nonzero;fill:rgb(13.328552%,23.919678%,28.239441%);fill-opacity:1;" d="M 80.613281 45.980469 C 80.613281 45.980469 77.621094 46.148438 77.882812 45.980469 C 78.144531 45.808594 76.792969 47.925781 77.730469 48.179688 C 78.667969 48.429688 80.453125 48.179688 80.453125 48.179688 L 80.613281 45.980469 "/><path style=" stroke:none;fill-rule:nonzero;fill:rgb(94.119263%,61.178589%,37.649536%);fill-opacity:1;" d="M 87.71875 15.855469 C 87.71875 15.855469 88.074219 14.445312 88.722656 15.242188 C 89.367188 16.035156 88.058594 18.550781 87.683594 17.828125 C 87.308594 17.101562 87.71875 15.855469 87.71875 15.855469 "/><path style=" stroke:none;fill-rule:nonzero;fill:rgb(13.328552%,23.919678%,28.239441%);fill-opacity:1;" d="M 22.363281 51.605469 C 21.191406 50.664062 18.0625 50.429688 16.105469 52.308594 C 14.972656 53.398438 15.234375 56.8125 17.257812 61.242188 C 20.414062 61.234375 25.089844 60.015625 25.554688 52.972656 C 25.019531 52.84375 23.339844 52.386719 22.363281 51.605469 "/><path style=" stroke:none;fill-rule:nonzero;fill:rgb(13.328552%,23.919678%,28.239441%);fill-opacity:1;" d="M 119.527344 51.367188 C 118.605469 50.171875 115.917969 51.050781 111.628906 52.675781 C 111.585938 55.007812 112.46875 58.632812 117.046875 62.277344 C 119.800781 57.648438 121.390625 53.78125 119.527344 51.367188 "/><path style=" stroke:none;fill-rule:nonzero;fill:rgb(62.348938%,79.998779%,89.019775%);fill-opacity:1;" d="M 50.207031 89.054688 C 50.207031 89.054688 55.972656 84.085938 60.421875 84.890625 C 63.660156 85.476562 59.726562 88.117188 61.902344 88.3125 C 64.070312 88.507812 67.277344 82.707031 71.726562 83.816406 C 76.175781 84.925781 70.488281 88.324219 73.792969 88.046875 C 77.09375 87.769531 81.175781 81.554688 84.792969 81.804688 C 88.414062 82.050781 81.21875 87.128906 83.417969 87.402344 C 85.621094 87.679688 89.335938 83.660156 90.550781 84.890625 C 91.761719 86.117188 91.3125 87.769531 93.234375 86.210938 C 95.15625 84.648438 98.179688 80.425781 100.792969 82.171875 C 103.410156 83.914062 94.097656 90.714844 93.988281 90.757812 C 93.871094 90.800781 62.636719 93.648438 62.636719 93.648438 L 49.214844 90.757812 L 50.207031 89.054688 "/><path style=" stroke:none;fill-rule:nonzero;fill:rgb(69.40918%,87.838745%,94.898987%);fill-opacity:1;" d="M 49.835938 89.835938 C 49.835938 89.835938 55.597656 84.867188 60.050781 85.671875 C 63.285156 86.257812 59.355469 88.894531 61.523438 89.089844 C 63.699219 89.285156 66.902344 83.484375 71.351562 84.59375 C 73.402344 85.105469 73.300781 86.105469 72.914062 87.003906 C 73.414062 85.980469 74.402344 84.484375 71.726562 83.816406 C 67.277344 82.707031 64.070312 88.507812 61.902344 88.3125 C 59.726562 88.117188 63.660156 85.476562 60.421875 84.890625 C 55.972656 84.085938 50.207031 89.054688 50.207031 89.054688 L 49.214844 90.757812 L 49.285156 90.773438 L 49.835938 89.835938 "/><path style=" stroke:none;fill-rule:nonzero;fill:rgb(69.40918%,87.838745%,94.898987%);fill-opacity:1;" d="M 83.417969 87.402344 C 83.089844 87.363281 82.972656 87.210938 83 86.984375 C 82.558594 87.628906 82.414062 88.105469 83.046875 88.183594 C 85.246094 88.457031 88.960938 84.441406 90.175781 85.671875 C 91.390625 86.898438 90.9375 88.550781 92.859375 86.992188 C 94.78125 85.429688 97.804688 81.203125 100.417969 82.949219 C 100.898438 83.269531 100.976562 83.761719 100.78125 84.351562 C 101.34375 83.421875 101.472656 82.625 100.792969 82.171875 C 98.179688 80.425781 95.15625 84.648438 93.234375 86.210938 C 91.3125 87.769531 91.761719 86.117188 90.550781 84.890625 C 89.335938 83.660156 85.621094 87.679688 83.417969 87.402344 "/><path style=" stroke:none;fill-rule:nonzero;fill:rgb(69.40918%,87.838745%,94.898987%);fill-opacity:1;" d="M 72.804688 87.253906 C 72.351562 88.195312 71.78125 88.964844 73.417969 88.828125 C 76.71875 88.550781 80.800781 82.332031 84.421875 82.582031 C 85.328125 82.644531 85.554688 83.011719 85.421875 83.53125 C 85.996094 82.625 86.113281 81.894531 84.792969 81.804688 C 81.175781 81.554688 77.09375 87.769531 73.792969 88.046875 C 72.644531 88.144531 72.582031 87.796875 72.804688 87.253906 "/><path style=" stroke:none;fill-rule:nonzero;fill:rgb(62.348938%,79.998779%,89.019775%);fill-opacity:1;" d="M 100.722656 77.90625 C 100.722656 77.90625 101.089844 75.816406 101.960938 76.007812 C 102.832031 76.203125 100.722656 77.90625 100.722656 77.90625 "/><path style=" stroke:none;fill-rule:nonzero;fill:rgb(62.348938%,79.998779%,89.019775%);fill-opacity:1;" d="M 62.585938 85.09375 C 62.585938 85.09375 62.953125 83.003906 63.824219 83.195312 C 64.691406 83.390625 62.585938 85.09375 62.585938 85.09375 "/><path style=" stroke:none;fill-rule:nonzero;fill:rgb(62.348938%,79.998779%,89.019775%);fill-opacity:1;" d="M 107.972656 72.179688 C 107.972656 72.179688 108.007812 68.929688 109.09375 69.203125 C 110.8125 69.632812 107.972656 72.179688 107.972656 72.179688 "/><path style=" stroke:none;fill-rule:nonzero;fill:rgb(62.348938%,79.998779%,89.019775%);fill-opacity:1;" d="M 79.289062 81.339844 C 79.289062 81.339844 79.320312 78.089844 80.40625 78.363281 C 82.128906 78.789062 79.289062 81.339844 79.289062 81.339844 "/><path style=" stroke:none;fill-rule:nonzero;fill:rgb(69.40918%,87.838745%,94.898987%);fill-opacity:1;" d="M 8.6875 77.90625 C 7.859375 78.386719 6.394531 79.539062 6.976562 81.339844 C 7.769531 83.804688 12.964844 84.964844 13.820312 83.535156 C 14.675781 82.109375 11.742188 81.054688 12.722656 78.886719 C 13.699219 76.722656 10.28125 76.976562 8.6875 77.90625 "/><path style=" stroke:none;fill-rule:nonzero;fill:rgb(69.40918%,87.838745%,94.898987%);fill-opacity:1;" d="M 14.738281 73.480469 C 14.167969 73.679688 13.210938 74.03125 12.722656 74.582031 C 12.230469 75.132812 12.570312 76.082031 13.605469 75.46875 C 14.648438 74.855469 15.898438 75.007812 15.898438 74.089844 C 15.898438 73.171875 14.984375 73.390625 14.738281 73.480469 "/><path style=" stroke:none;fill-rule:nonzero;fill:rgb(69.40918%,87.838745%,94.898987%);fill-opacity:1;" d="M 17.191406 72.703125 C 17.191406 72.703125 16.789062 72.757812 16.742188 73.070312 C 16.699219 73.378906 17.398438 73.632812 17.570312 73.242188 C 17.742188 72.851562 17.402344 72.632812 17.191406 72.703125 "/><path style=" stroke:none;fill-rule:nonzero;fill:rgb(69.40918%,87.838745%,94.898987%);fill-opacity:1;" d="M 24.4375 91.429688 C 24.105469 91.546875 23.730469 91.984375 24.113281 92.804688 C 24.496094 93.628906 25.96875 94.71875 26.761719 94.058594 C 27.382812 93.539062 25.398438 93.371094 25.214844 92.296875 C 25.097656 91.609375 24.890625 91.273438 24.4375 91.429688 "/><path style=" stroke:none;fill-rule:nonzero;fill:rgb(69.40918%,87.838745%,94.898987%);fill-opacity:1;" d="M 28.4375 93.84375 C 28.4375 93.84375 27.886719 93.6875 27.886719 94.253906 C 27.886719 94.820312 28.792969 94.808594 29.015625 94.425781 C 29.242188 94.042969 28.4375 93.84375 28.4375 93.84375 "/><path style=" stroke:none;fill-rule:nonzero;fill:rgb(69.40918%,85.879517%,92.549133%);fill-opacity:1;" d="M 107.800781 78.886719 C 109.742188 78.246094 111.300781 76.992188 112.464844 75.449219 L 112.886719 74.855469 C 113.027344 74.660156 113.132812 74.433594 113.261719 74.226562 C 113.535156 73.820312 113.707031 73.355469 113.945312 72.921875 C 114.15625 72.472656 114.320312 72.003906 114.527344 71.542969 C 114.695312 71.070312 114.855469 70.589844 115.054688 70.113281 C 115.03125 70.621094 114.980469 71.136719 114.917969 71.648438 C 114.796875 72.148438 114.710938 72.664062 114.542969 73.152344 C 114.214844 74.140625 113.75 75.09375 113.121094 75.945312 C 112.476562 76.777344 111.691406 77.519531 110.773438 78.042969 C 109.863281 78.566406 108.832031 78.910156 107.800781 78.886719 "/><path style=" stroke:none;fill-rule:nonzero;fill:rgb(69.40918%,85.879517%,92.549133%);fill-opacity:1;" d="M 113.34375 81.339844 C 114.605469 80.480469 115.65625 79.382812 116.632812 78.25 C 117.117188 77.675781 117.578125 77.085938 118.003906 76.46875 L 118.632812 75.539062 L 119.207031 74.574219 C 119.410156 74.261719 119.5625 73.917969 119.742188 73.589844 C 119.917969 73.257812 120.09375 72.925781 120.238281 72.582031 L 120.710938 71.558594 L 121.121094 70.507812 C 121.417969 69.8125 121.613281 69.082031 121.867188 68.367188 C 122.101562 67.644531 122.269531 66.90625 122.511719 66.171875 C 122.449219 66.933594 122.386719 67.703125 122.257812 68.460938 C 122.09375 69.210938 121.976562 69.980469 121.726562 70.714844 C 121.324219 72.210938 120.660156 73.625 119.917969 74.984375 C 119.144531 76.332031 118.195312 77.578125 117.101562 78.683594 C 116.5625 79.238281 115.96875 79.738281 115.351562 80.203125 C 114.71875 80.644531 114.074219 81.085938 113.34375 81.339844 "/><path style=" stroke:none;fill-rule:nonzero;fill:rgb(31.369019%,20.388794%,15.689087%);fill-opacity:1;" d="M 53.261719 22.75 C 52.578125 21.613281 51.230469 20.164062 49.898438 18.636719 C 48.570312 17.109375 47.273438 16.175781 44.664062 16.292969 C 42.050781 16.410156 41.5625 14.941406 43.089844 13.023438 C 44.613281 11.101562 48.078125 9.789062 51.324219 11.554688 C 54.570312 13.316406 54.296875 15.394531 58.246094 16.019531 C 62.199219 16.648438 65.109375 16.066406 66.070312 18.683594 C 66.667969 20.308594 65.734375 22.726562 66.8125 25.144531 C 69.191406 30.480469 65.71875 33.921875 62.082031 33 C 58.441406 32.078125 55.078125 25.75 53.261719 22.75 "/><path style=" stroke:none;fill-rule:nonzero;fill:rgb(39.99939%,76.469421%,94.898987%);fill-opacity:1;" d="M 56.574219 52.976562 C 57.140625 53.019531 57.6875 52.816406 58.183594 52.570312 C 58.675781 52.332031 59.140625 51.953125 59.710938 51.746094 C 60.261719 51.527344 60.914062 51.460938 61.480469 51.660156 C 61.761719 51.753906 62.027344 51.886719 62.277344 52.042969 C 62.519531 52.179688 62.78125 52.289062 63.054688 52.296875 C 63.605469 52.332031 64.113281 52.09375 64.667969 51.902344 C 64.945312 51.808594 65.246094 51.707031 65.585938 51.71875 C 65.925781 51.71875 66.261719 51.90625 66.492188 52.109375 C 66.949219 52.5 67.308594 52.976562 67.667969 53.417969 C 68.027344 53.851562 68.40625 54.300781 68.992188 54.363281 L 68.992188 54.40625 C 68.699219 54.445312 68.382812 54.355469 68.125 54.199219 C 67.863281 54.039062 67.636719 53.839844 67.433594 53.632812 C 67.023438 53.214844 66.640625 52.792969 66.210938 52.441406 C 66.003906 52.269531 65.808594 52.167969 65.5625 52.148438 C 65.320312 52.125 65.054688 52.1875 64.785156 52.269531 C 64.253906 52.429688 63.640625 52.644531 63.027344 52.519531 C 62.71875 52.480469 62.453125 52.3125 62.199219 52.164062 C 61.964844 52.003906 61.710938 51.863281 61.441406 51.789062 C 60.890625 51.632812 60.335938 51.808594 59.84375 52.058594 C 59.339844 52.289062 58.878906 52.636719 58.308594 52.859375 C 57.761719 53.070312 57.132812 53.21875 56.558594 53.011719 L 56.574219 52.976562 "/><path style=" stroke:none;fill-rule:nonzero;fill:rgb(39.99939%,76.469421%,94.898987%);fill-opacity:1;" d="M 55.945312 54.230469 C 56.554688 54.277344 57.160156 54.222656 57.738281 54.085938 C 58.027344 54.015625 58.316406 53.941406 58.597656 53.835938 C 58.871094 53.734375 59.148438 53.613281 59.449219 53.507812 C 60.046875 53.320312 60.683594 53.210938 61.308594 53.273438 C 61.621094 53.304688 61.933594 53.378906 62.21875 53.511719 C 62.359375 53.578125 62.5 53.648438 62.636719 53.726562 C 62.769531 53.800781 62.890625 53.847656 63.03125 53.871094 C 63.601562 53.941406 64.191406 53.746094 64.820312 53.691406 C 65.132812 53.660156 65.46875 53.648438 65.800781 53.730469 C 66.140625 53.804688 66.445312 54.007812 66.683594 54.230469 C 67.15625 54.6875 67.464844 55.234375 67.8125 55.726562 C 67.988281 55.96875 68.15625 56.222656 68.371094 56.417969 C 68.582031 56.617188 68.839844 56.773438 69.152344 56.769531 L 69.152344 56.8125 C 68.839844 56.886719 68.5 56.765625 68.242188 56.582031 C 67.976562 56.394531 67.757812 56.160156 67.558594 55.921875 C 67.15625 55.445312 66.804688 54.941406 66.386719 54.550781 C 66.175781 54.359375 65.949219 54.214844 65.695312 54.144531 C 65.433594 54.066406 65.144531 54.058594 64.851562 54.074219 C 64.261719 54.101562 63.632812 54.253906 62.984375 54.09375 C 62.824219 54.046875 62.664062 53.964844 62.539062 53.875 C 62.417969 53.785156 62.292969 53.707031 62.15625 53.640625 C 61.890625 53.503906 61.597656 53.421875 61.296875 53.40625 C 60.695312 53.375 60.117188 53.59375 59.570312 53.828125 C 58.492188 54.363281 57.128906 54.664062 55.9375 54.269531 L 55.945312 54.230469 "/><path style=" stroke:none;fill-rule:nonzero;fill:rgb(24.708557%,81.959534%,56.079102%);fill-opacity:1;" d="M 90.1875 58.429688 C 89.039062 57.984375 88.257812 57.269531 87.859375 56.308594 C 87.113281 54.503906 87.988281 52.492188 88.023438 52.410156 L 88.398438 52.574219 C 88.390625 52.59375 87.5625 54.515625 88.238281 56.152344 C 88.589844 57.003906 89.296875 57.644531 90.335938 58.046875 L 90.1875 58.429688 "/></g></svg>